<svg xmlns="http://www.w3.org/2000/svg" fill="none" viewBox="0 0 300 200">
    <rect
        width="247"
        height="91"
        x="26.5"
        y="54.5"
        fill="var(--color-surface-base)"
        stroke="var(--color-border-base)"
        rx="3.5"
    /><path
        fill="var(--color-text-base)"
        d="m81.392 84 2.926-9.8h1.764l2.926 9.8h-1.61l-.658-2.352h-3.08L83.002 84h-1.61Zm3.766-7.7-1.162 4.158h2.408L85.242 76.3h-.084Zm5.189 7.7v-1.288h2.324V75.67c0-.308-.15-.462-.449-.462h-1.68V73.92h1.947c.54 0 .951.145 1.231.434.29.28.434.69.434 1.232v7.126h2.339V84h-6.146Zm11.726.168c-.672 0-1.265-.15-1.778-.448a3.23 3.23 0 0 1-1.204-1.274c-.29-.541-.434-1.171-.434-1.89 0-.728.14-1.367.42-1.918.29-.55.69-.98 1.204-1.288.523-.308 1.125-.462 1.806-.462.672 0 1.251.154 1.736.462.485.299.859.7 1.12 1.204.271.504.406 1.06.406 1.666v.308c0 .103-.005.22-.014.35h-5.222c.047.644.257 1.134.63 1.47.373.327.812.49 1.316.49.439 0 .784-.089 1.036-.266.261-.187.453-.439.574-.756h1.498a3.212 3.212 0 0 1-1.05 1.68c-.532.448-1.213.672-2.044.672Zm0-5.992c-.457 0-.863.14-1.218.42-.355.27-.583.653-.686 1.148h3.696c-.037-.467-.219-.845-.546-1.134-.327-.29-.742-.434-1.246-.434ZM107.262 84v-1.288h1.694v-3.906c0-.308-.15-.462-.448-.462h-1.106v-1.288h1.666c.382 0 .695.112.938.336.242.215.364.518.364.91v.168h.07c.102-.523.322-.915.658-1.176.345-.27.844-.406 1.498-.406h1.078v1.568h-1.512c-.551 0-.976.191-1.274.574-.299.383-.448.84-.448 1.372v2.31h2.156V84h-5.334Zm12.272 0c-.681 0-1.223-.163-1.624-.49-.401-.336-.602-.929-.602-1.778v-3.416h-1.75v-1.26h1.036c.476 0 .756-.233.84-.7l.21-1.12h1.148v1.82h2.744v1.26h-2.744v3.388c0 .364.079.62.238.77.168.14.453.21.854.21h1.624V84h-1.974Z"
    /><g
        stroke="var(--color-text-base)"
        stroke-linecap="round"
        stroke-linejoin="round"
        stroke-width="2"
        clip-path="url(#a)"
    ><path
            d="M43 73.5a3.5 3.5 0 1 0 7 0 3.5 3.5 0 0 0-7 0ZM42.5 88h8l-4-7-4 7ZM54 70l7 7M54 77l7-7M54 81h7v7h-7v-7Z"
        /></g><path
        fill="var(--color-text-base)"
        d="M85.102 108.168c-.69 0-1.307-.201-1.848-.602-.541-.411-.966-.994-1.274-1.75-.299-.756-.448-1.661-.448-2.716 0-1.045.154-1.946.462-2.702.308-.756.742-1.34 1.302-1.75.57-.41 1.241-.616 2.016-.616.924 0 1.675.27 2.254.812.588.541.938 1.269 1.05 2.184h-1.302c-.093-.56-.313-1.013-.658-1.358-.336-.355-.784-.532-1.344-.532-.803 0-1.433.35-1.89 1.05-.457.7-.686 1.671-.686 2.912 0 1.26.229 2.235.686 2.926.457.691 1.05 1.036 1.778 1.036.523 0 .952-.154 1.288-.462a2.95 2.95 0 0 0 .756-1.204 5.03 5.03 0 0 0 .294-1.526h-2.184v-1.008h3.388V108h-1.078l-.098-1.484h-.056c-.196.504-.485.905-.868 1.204-.373.299-.887.448-1.54.448Zm8.563 0c-.654 0-1.233-.149-1.737-.448a3.302 3.302 0 0 1-1.175-1.274c-.29-.551-.434-1.19-.434-1.918s.14-1.363.42-1.904c.289-.551.685-.975 1.19-1.274.504-.308 1.091-.462 1.763-.462.673 0 1.247.154 1.723.462.475.299.84.695 1.091 1.19a3.468 3.468 0 0 1 .365 1.904v.35h-5.39c.028.513.144.943.35 1.288.214.336.48.588.797.756.327.168.672.252 1.037.252.513 0 .914-.107 1.203-.322.29-.215.51-.513.659-.896h1.162a3.157 3.157 0 0 1-.994 1.638c-.504.439-1.181.658-2.03.658Zm0-6.23c-.542 0-1.018.163-1.428.49-.402.327-.65.784-.742 1.372h4.227c-.037-.579-.247-1.031-.63-1.358-.373-.336-.849-.504-1.427-.504Zm9.052 6.062c-.635 0-1.134-.154-1.498-.462-.364-.308-.546-.863-.546-1.666v-3.808h-1.764v-1.008h1.05c.476 0 .751-.233.826-.7l.196-1.078h.868v1.778h2.772v1.008h-2.772v3.808c0 .392.089.667.266.826.187.159.504.238.952.238h1.554V108h-1.904Zm13.597 0-1.54-6.944h1.162l.994 5.194 1.19-5.194h1.316l1.19 5.194.994-5.194h1.176L121.242 108h-1.204l-1.26-5.39-1.26 5.39h-1.204Zm10.271.168c-.551 0-1.008-.098-1.372-.294a1.967 1.967 0 0 1-.812-.77 2.187 2.187 0 0 1-.266-1.064c0-.709.256-1.246.77-1.61.522-.373 1.218-.56 2.086-.56h1.904v-.14c0-1.213-.556-1.82-1.666-1.82-.448 0-.826.098-1.134.294-.299.196-.49.504-.574.924h-1.204c.046-.467.2-.868.462-1.204.27-.336.616-.593 1.036-.77.42-.177.891-.266 1.414-.266.989 0 1.708.261 2.156.784.457.513.686 1.199.686 2.058V108h-1.008l-.098-1.078h-.098c-.206.336-.481.63-.826.882-.336.243-.822.364-1.456.364Zm.21-1.036c.448 0 .826-.107 1.134-.322.317-.215.555-.499.714-.854a2.68 2.68 0 0 0 .252-1.162h-1.806c-.635 0-1.083.107-1.344.322-.252.215-.378.499-.378.854 0 .364.121.649.364.854.242.205.597.308 1.064.308Zm5.748.868v-1.008h1.778v-4.578c0-.233-.112-.35-.336-.35h-1.26v-1.008h1.694c.308 0 .556.084.742.252.187.168.28.415.28.742v.294h.056c.112-.467.322-.826.63-1.078.318-.252.756-.378 1.316-.378h1.274v1.246h-1.442c-.569 0-1.008.191-1.316.574-.308.373-.462.854-.462 1.442v2.842h2.184V108h-5.138Zm8.451 0v-6.944h.98l.126 1.05h.07c.186-.336.48-.621.882-.854.401-.243.863-.364 1.386-.364.849 0 1.484.252 1.904.756.429.504.644 1.232.644 2.184V108h-1.176v-4.032c0-.616-.136-1.097-.406-1.442-.271-.355-.691-.532-1.26-.532-.551 0-1.018.191-1.4.574-.383.373-.574.915-.574 1.624V108h-1.176Zm11.432.168c-.653 0-1.232-.149-1.736-.448a3.311 3.311 0 0 1-1.176-1.274c-.289-.551-.434-1.19-.434-1.918s.14-1.363.42-1.904c.29-.551.686-.975 1.19-1.274.504-.308 1.092-.462 1.764-.462.672 0 1.246.154 1.722.462.476.299.84.695 1.092 1.19a3.468 3.468 0 0 1 .364 1.904v.35h-5.39c.028.513.145.943.35 1.288.215.336.481.588.798.756.327.168.672.252 1.036.252.514 0 .915-.107 1.204-.322a1.97 1.97 0 0 0 .658-.896h1.162a3.153 3.153 0 0 1-.994 1.638c-.504.439-1.18.658-2.03.658Zm0-6.23c-.541 0-1.017.163-1.428.49-.401.327-.648.784-.742 1.372h4.228c-.037-.579-.247-1.031-.63-1.358-.373-.336-.849-.504-1.428-.504Zm8.087 6.23c-.588 0-1.116-.14-1.582-.42-.458-.28-.817-.691-1.078-1.232-.262-.551-.392-1.218-.392-2.002 0-.775.13-1.433.392-1.974.261-.541.62-.952 1.078-1.232.466-.28.994-.42 1.582-.42.55 0 1.003.107 1.358.322.364.215.634.495.812.84v-4.13h1.176V108h-.966l-.126-1.078h-.084a2.16 2.16 0 0 1-.826.91c-.364.224-.812.336-1.344.336Zm.154-1.12c.588 0 1.073-.205 1.456-.616.382-.42.574-1.055.574-1.904s-.192-1.479-.574-1.89c-.383-.42-.868-.63-1.456-.63s-1.074.21-1.456.63c-.374.411-.56 1.041-.56 1.89s.186 1.484.56 1.904c.382.411.868.616 1.456.616Zm16.873 1.12c-.653 0-1.232-.149-1.736-.448a3.165 3.165 0 0 1-1.19-1.26c-.289-.551-.434-1.195-.434-1.932 0-.737.145-1.377.434-1.918a3.139 3.139 0 0 1 1.19-1.274c.504-.299 1.083-.448 1.736-.448s1.232.149 1.736.448c.504.299.901.723 1.19 1.274.289.541.434 1.181.434 1.918 0 .737-.145 1.381-.434 1.932a3.165 3.165 0 0 1-1.19 1.26c-.504.299-1.083.448-1.736.448Zm0-1.12c.401 0 .765-.089 1.092-.266.327-.177.583-.453.77-.826.196-.373.294-.849.294-1.428s-.098-1.055-.294-1.428c-.187-.373-.443-.649-.77-.826a2.257 2.257 0 0 0-1.092-.266c-.392 0-.751.089-1.078.266-.327.177-.588.453-.784.826-.196.373-.294.849-.294 1.428 0 .868.21 1.507.63 1.918.42.401.929.602 1.526.602Zm5.37.952v-1.008h1.778v-4.578c0-.233-.112-.35-.336-.35h-1.26v-1.008h1.694c.308 0 .556.084.742.252.187.168.28.415.28.742v.294h.056c.112-.467.322-.826.63-1.078.318-.252.756-.378 1.316-.378h1.274v1.246h-1.442c-.569 0-1.008.191-1.316.574-.308.373-.462.854-.462 1.442v2.842h2.184V108h-5.138Zm19.575.168c-.588 0-1.115-.14-1.582-.42-.457-.28-.816-.691-1.078-1.232-.261-.551-.392-1.218-.392-2.002 0-.775.131-1.433.392-1.974.262-.541.621-.952 1.078-1.232.467-.28.994-.42 1.582-.42.551 0 1.004.107 1.358.322.364.215.635.495.812.84v-4.13h1.176V108h-.966l-.126-1.078h-.084a2.154 2.154 0 0 1-.826.91c-.364.224-.812.336-1.344.336Zm.154-1.12c.588 0 1.074-.205 1.456-.616.383-.42.574-1.055.574-1.904s-.191-1.479-.574-1.89c-.382-.42-.868-.63-1.456-.63s-1.073.21-1.456.63c-.373.411-.56 1.041-.56 1.89s.187 1.484.56 1.904c.383.411.868.616 1.456.616Zm8.395-7.224a.95.95 0 0 1-.7-.28.915.915 0 0 1-.28-.672c0-.27.093-.495.28-.672a.95.95 0 0 1 .7-.28c.271 0 .499.093.686.28a.867.867 0 0 1 .294.672.895.895 0 0 1-.294.672.933.933 0 0 1-.686.28ZM208.318 108v-1.008h2.212v-4.578c0-.233-.117-.35-.35-.35h-1.624v-1.008h1.904c.831 0 1.246.415 1.246 1.246v4.69h2.212V108h-5.6Zm11.265.168c-.654 0-1.232-.149-1.736-.448a3.296 3.296 0 0 1-1.176-1.274c-.29-.551-.435-1.19-.435-1.918s.141-1.363.421-1.904a3.139 3.139 0 0 1 1.19-1.274c.504-.308 1.092-.462 1.764-.462.672 0 1.246.154 1.722.462.476.299.84.695 1.092 1.19a3.468 3.468 0 0 1 .364 1.904v.35h-5.39c.028.513.144.943.35 1.288.214.336.48.588.798.756.326.168.672.252 1.036.252.513 0 .914-.107 1.204-.322.289-.215.508-.513.658-.896h1.162a3.16 3.16 0 0 1-.994 1.638c-.504.439-1.181.658-2.03.658Zm0-6.23c-.542 0-1.018.163-1.428.49-.402.327-.649.784-.742 1.372h4.228c-.038-.579-.248-1.031-.63-1.358-.374-.336-.85-.504-1.428-.504ZM85.928 126c-.635 0-1.134-.154-1.498-.462-.364-.308-.546-.863-.546-1.666v-3.808H82.12v-1.008h1.05c.476 0 .751-.233.826-.7l.196-1.078h.868v1.778h2.772v1.008H85.06v3.808c0 .392.089.667.266.826.187.159.504.238.952.238h1.554V126h-1.904Zm4.642 0v-1.008h1.779v-4.578c0-.233-.112-.35-.337-.35h-1.26v-1.008h1.695c.307 0 .555.084.742.252.186.168.28.415.28.742v.294h.056c.111-.467.322-.826.63-1.078.317-.252.755-.378 1.316-.378h1.273v1.246h-1.442c-.569 0-1.008.191-1.316.574-.308.373-.462.854-.462 1.442v2.842h2.184V126H90.57Zm9.305 3.08 1.708-3.752h-.406l-2.744-6.272h1.274l2.282 5.376 2.408-5.376h1.232l-4.522 10.024h-1.232Zm10.425-11.256a.947.947 0 0 1-.7-.28.916.916 0 0 1-.28-.672c0-.271.093-.495.28-.672a.947.947 0 0 1 .7-.28c.27 0 .499.093.686.28a.866.866 0 0 1 .294.672.896.896 0 0 1-.294.672.933.933 0 0 1-.686.28ZM107.584 126v-1.008h2.212v-4.578c0-.233-.117-.35-.35-.35h-1.624v-1.008h1.904c.83 0 1.246.415 1.246 1.246v4.69h2.212V126h-5.6Zm8.226 0v-6.944h.98l.126 1.05h.07c.187-.336.481-.621.882-.854.401-.243.863-.364 1.386-.364.849 0 1.484.252 1.904.756.429.504.644 1.232.644 2.184V126h-1.176v-4.032c0-.616-.135-1.097-.406-1.442-.271-.355-.691-.532-1.26-.532-.551 0-1.017.191-1.4.574-.383.373-.574.915-.574 1.624V126h-1.176Zm11.237-2.044c-.486 0-.92-.089-1.302-.266l-.476.574c-.103.14-.131.28-.084.42.056.131.191.196.406.196h1.834c.83 0 1.502.163 2.016.49.513.317.77.826.77 1.526 0 .42-.108.807-.322 1.162-.215.355-.556.639-1.022.854-.458.224-1.06.336-1.806.336-.971 0-1.75-.182-2.338-.546-.588-.364-.882-.919-.882-1.666 0-.271.065-.523.196-.756a2.62 2.62 0 0 1 .518-.602 1.09 1.09 0 0 1-.504-.756c-.056-.336.046-.667.308-.994l.63-.784c-.448-.467-.672-1.041-.672-1.722 0-.448.107-.863.322-1.246a2.4 2.4 0 0 1 .924-.938c.41-.233.905-.35 1.484-.35.373 0 .718.056 1.036.168h2.604v.882l-1.302.042v.098c.242.401.364.849.364 1.344 0 .448-.108.868-.322 1.26a2.32 2.32 0 0 1-.924.924c-.402.233-.887.35-1.456.35Zm0-1.008c.457 0 .83-.135 1.12-.406.298-.271.448-.644.448-1.12 0-.476-.15-.845-.448-1.106-.29-.271-.663-.406-1.12-.406-.467 0-.85.135-1.148.406-.299.261-.448.63-.448 1.106 0 .476.149.849.448 1.12.298.271.681.406 1.148.406Zm-2.044 4.046c0 .411.191.719.574.924.382.205.877.308 1.484.308.588 0 1.064-.117 1.428-.35.373-.233.56-.546.56-.938 0-.308-.131-.569-.392-.784-.262-.205-.742-.308-1.442-.308h-1.582c-.42.308-.63.691-.63 1.148Z"
    /><defs><clipPath id="a"><path fill="#fff" d="M40 67h24v24H40z" /></clipPath></defs>
</svg>
