<svg xmlns="http://www.w3.org/2000/svg" fill="none" viewBox="0 0 300 200">
  <path fill="var(--color-text-base)" d="M38.924 105.5v-9.8h3.262c1.017 0 1.783.233 2.296.7.513.467.77 1.064.77 1.792 0 .57-.154 1.04-.462 1.414-.308.364-.653.621-1.036.77v.098c.457.149.859.42 1.204.812.345.392.518.896.518 1.512 0 .504-.126.961-.378 1.372-.243.401-.602.723-1.078.966-.467.243-1.04.364-1.722.364h-3.374Zm1.176-5.572h2.002c.625 0 1.101-.135 1.428-.406.336-.28.504-.681.504-1.204 0-.495-.163-.877-.49-1.148-.327-.27-.821-.406-1.484-.406H40.1v3.164Zm0 4.494h2.072c.672 0 1.19-.149 1.554-.448.364-.308.546-.737.546-1.288s-.191-.975-.574-1.274c-.383-.308-.9-.462-1.554-.462H40.1v3.472Zm7.47 1.078v-1.008h1.779v-4.578c0-.233-.112-.35-.336-.35h-1.26v-1.008h1.694c.307 0 .555.084.741.252.187.168.28.415.28.742v.294h.056c.112-.467.322-.826.63-1.078.318-.252.756-.378 1.316-.378h1.275v1.246h-1.442c-.57 0-1.008.191-1.316.574-.309.373-.462.854-.462 1.442v2.842h2.184v1.008H47.57Zm11.49.168c-.654 0-1.233-.149-1.737-.448a3.3 3.3 0 0 1-1.176-1.274c-.29-.551-.434-1.19-.434-1.918s.14-1.363.42-1.904a3.14 3.14 0 0 1 1.19-1.274c.504-.308 1.092-.462 1.764-.462.672 0 1.246.154 1.722.462.476.299.84.695 1.092 1.19a3.468 3.468 0 0 1 .364 1.904v.35h-5.39c.028.513.145.943.35 1.288.215.336.48.588.798.756.327.168.672.252 1.036.252.513 0 .915-.107 1.204-.322a1.97 1.97 0 0 0 .658-.896h1.162a3.158 3.158 0 0 1-.994 1.638c-.504.439-1.18.658-2.03.658Zm0-6.23c-.542 0-1.018.163-1.429.49-.401.327-.649.784-.742 1.372h4.228c-.037-.579-.247-1.031-.63-1.358-.373-.336-.85-.504-1.428-.504Zm7.736 6.23c-.551 0-1.008-.098-1.372-.294a1.968 1.968 0 0 1-.812-.77 2.195 2.195 0 0 1-.266-1.064c0-.709.256-1.246.77-1.61.522-.373 1.218-.56 2.086-.56h1.904v-.14c0-1.213-.556-1.82-1.666-1.82-.448 0-.826.098-1.134.294-.3.196-.49.504-.574.924h-1.204c.046-.467.2-.868.462-1.204.27-.336.616-.593 1.036-.77.42-.177.89-.266 1.414-.266.989 0 1.708.261 2.156.784.457.513.686 1.199.686 2.058v4.27h-1.008l-.098-1.078h-.098c-.206.336-.481.63-.826.882-.336.243-.822.364-1.456.364Zm.21-1.036c.448 0 .826-.107 1.134-.322.317-.215.555-.499.714-.854a2.68 2.68 0 0 0 .252-1.162H67.3c-.635 0-1.083.107-1.344.322-.252.215-.378.499-.378.854 0 .364.12.649.364.854.242.205.597.308 1.064.308Zm8.534 1.036c-.588 0-1.115-.14-1.582-.42-.457-.28-.817-.691-1.078-1.232-.261-.551-.392-1.218-.392-2.002 0-.775.13-1.433.392-1.974.261-.541.62-.952 1.078-1.232.467-.28.994-.42 1.582-.42.55 0 1.003.107 1.358.322.364.215.635.495.812.84v-4.13h1.176v10.08h-.966l-.126-1.078h-.084a2.158 2.158 0 0 1-.826.91c-.364.224-.812.336-1.344.336Zm.154-1.12c.588 0 1.073-.205 1.456-.616.383-.42.574-1.055.574-1.904s-.191-1.479-.574-1.89c-.383-.42-.868-.63-1.456-.63s-1.073.21-1.456.63c-.373.411-.56 1.041-.56 1.89s.187 1.484.56 1.904c.383.411.868.616 1.456.616Zm8.59 1.12a3.268 3.268 0 0 1-1.68-.434 3.127 3.127 0 0 1-1.161-1.246c-.29-.551-.434-1.204-.434-1.96s.144-1.405.434-1.946c.289-.55.681-.97 1.176-1.26a3.287 3.287 0 0 1 1.666-.434c.858 0 1.544.215 2.058.644.513.43.84 1.003.98 1.722h-1.204a1.645 1.645 0 0 0-.644-.91c-.318-.233-.719-.35-1.204-.35-.355 0-.691.093-1.008.28-.318.187-.574.467-.77.84-.196.373-.294.845-.294 1.414s.098 1.045.294 1.428c.196.373.452.653.77.84.317.187.653.28 1.008.28.513 0 .919-.117 1.218-.35.308-.233.518-.541.63-.924h1.204c-.178.737-.528 1.316-1.05 1.736-.514.42-1.176.63-1.988.63Zm5.26-.168v-1.008h1.777v-4.578c0-.233-.112-.35-.336-.35h-1.26v-1.008h1.694c.308 0 .556.084.742.252.187.168.28.415.28.742v.294h.056c.112-.467.322-.826.63-1.078.318-.252.756-.378 1.316-.378h1.274v1.246h-1.442c-.57 0-1.008.191-1.316.574-.308.373-.462.854-.462 1.442v2.842h2.184v1.008h-5.138Zm10.928.168c-.84 0-1.475-.252-1.904-.756-.43-.504-.644-1.232-.644-2.184v-4.172H99.1v4.032c0 .616.135 1.101.406 1.456.28.345.7.518 1.26.518s1.031-.187 1.414-.56c.382-.383.574-.929.574-1.638v-3.808h1.176v6.944h-.98l-.126-1.05h-.07c-.187.336-.481.625-.882.868-.402.233-.868.35-1.4.35Zm5.202-.168v-6.944h.966l.126.812h.07c.122-.28.304-.513.546-.7.252-.187.556-.28.91-.28.355 0 .654.089.896.266.252.168.434.406.546.714h.056a1.64 1.64 0 0 1 .588-.7c.271-.187.598-.28.98-.28.532 0 .929.182 1.19.546.271.355.406.83.406 1.428v5.138h-1.148v-4.956c0-.336-.07-.602-.21-.798-.13-.196-.345-.294-.644-.294a.943.943 0 0 0-.756.35c-.196.233-.294.565-.294.994v4.704h-1.162v-4.956c0-.336-.065-.602-.196-.798-.13-.196-.345-.294-.644-.294a.984.984 0 0 0-.77.35c-.196.233-.294.565-.294.994v4.704h-1.162Zm12.315.168c-.532 0-.985-.107-1.358-.322a2.067 2.067 0 0 1-.812-.91h-.084l-.126 1.064h-.966V95.42h1.176v4.13c.177-.308.452-.579.826-.812.382-.233.83-.35 1.344-.35.597 0 1.124.14 1.582.42.457.28.816.69 1.078 1.232.261.541.392 1.199.392 1.974 0 .784-.131 1.451-.392 2.002-.262.541-.626.952-1.092 1.232-.458.28-.98.42-1.568.42Zm-.154-1.12c.588 0 1.068-.205 1.442-.616.382-.42.574-1.055.574-1.904s-.192-1.479-.574-1.89c-.374-.42-.854-.63-1.442-.63s-1.074.21-1.456.63c-.383.411-.574 1.041-.574 1.89s.191 1.484.574 1.904c.382.411.868.616 1.456.616Zm8.38 1.12c-.886 0-1.605-.205-2.156-.616-.541-.42-.844-.994-.91-1.722h1.218a1.4 1.4 0 0 0 .56.938c.327.243.766.364 1.316.364.523 0 .91-.112 1.162-.336.262-.224.392-.481.392-.77 0-.392-.154-.658-.462-.798-.308-.149-.77-.261-1.386-.336-.737-.084-1.348-.285-1.834-.602-.485-.317-.728-.793-.728-1.428 0-.57.238-1.04.714-1.414.476-.373 1.125-.56 1.946-.56.812 0 1.452.187 1.918.56.467.364.733.887.798 1.568h-1.162c-.028-.336-.191-.602-.49-.798-.289-.205-.653-.308-1.092-.308-.457 0-.812.089-1.064.266-.252.168-.378.392-.378.672s.14.513.42.7c.29.177.742.294 1.358.35.486.056.929.149 1.33.28.402.131.719.336.952.616.243.28.364.672.364 1.176.01.42-.107.798-.35 1.134-.233.327-.56.588-.98.784-.42.187-.905.28-1.456.28Zm10.395-1.288 3.696-3.738v-.084l-3.696-3.71h1.582l3.724 3.752-3.724 3.78h-1.582Zm15.002 1.288c-.551 0-1.008-.098-1.372-.294a1.967 1.967 0 0 1-.812-.77 2.198 2.198 0 0 1-.266-1.064c0-.709.257-1.246.77-1.61.523-.373 1.218-.56 2.086-.56h1.904v-.14c0-1.213-.555-1.82-1.666-1.82-.448 0-.826.098-1.134.294-.299.196-.49.504-.574.924h-1.204c.047-.467.201-.868.462-1.204a2.608 2.608 0 0 1 1.036-.77c.42-.177.891-.266 1.414-.266.989 0 1.708.261 2.156.784.457.513.686 1.199.686 2.058v4.27h-1.008l-.098-1.078h-.098c-.205.336-.481.63-.826.882-.336.243-.821.364-1.456.364Zm.21-1.036c.448 0 .826-.107 1.134-.322.317-.215.555-.499.714-.854a2.68 2.68 0 0 0 .252-1.162h-1.806c-.635 0-1.083.107-1.344.322-.252.215-.378.499-.378.854 0 .364.121.649.364.854.243.205.597.308 1.064.308Zm5.749.868v-1.008h1.778v-4.578c0-.233-.112-.35-.336-.35h-1.26v-1.008h1.694c.308 0 .555.084.742.252.186.168.28.415.28.742v.294h.056c.112-.467.322-.826.63-1.078.317-.252.756-.378 1.316-.378h1.274v1.246h-1.442c-.57 0-1.008.191-1.316.574-.308.373-.462.854-.462 1.442v2.842h2.184v1.008h-5.138Zm11.488.168c-.653 0-1.232-.149-1.736-.448a3.296 3.296 0 0 1-1.176-1.274c-.289-.551-.434-1.19-.434-1.918s.14-1.363.42-1.904c.289-.55.686-.975 1.19-1.274.504-.308 1.092-.462 1.764-.462.672 0 1.246.154 1.722.462.476.299.84.695 1.092 1.19a3.468 3.468 0 0 1 .364 1.904v.35h-5.39c.028.513.145.943.35 1.288.215.336.481.588.798.756.327.168.672.252 1.036.252.513 0 .915-.107 1.204-.322.289-.215.509-.513.658-.896h1.162a3.16 3.16 0 0 1-.994 1.638c-.504.439-1.181.658-2.03.658Zm0-6.23c-.541 0-1.017.163-1.428.49-.401.327-.649.784-.742 1.372h4.228c-.037-.579-.247-1.031-.63-1.358-.373-.336-.849-.504-1.428-.504Zm10.551 4.942 3.696-3.738v-.084l-3.696-3.71h1.582l3.724 3.752-3.724 3.78h-1.582Z"/>
  <path fill="var(--color-brand-primary-base)" d="M194.612 105.668c-.551 0-1.008-.098-1.372-.294a1.967 1.967 0 0 1-.812-.77 2.198 2.198 0 0 1-.266-1.064c0-.709.257-1.246.77-1.61.523-.373 1.218-.56 2.086-.56h1.904v-.14c0-1.213-.555-1.82-1.666-1.82-.448 0-.826.098-1.134.294-.299.196-.49.504-.574.924h-1.204c.047-.467.201-.868.462-1.204a2.608 2.608 0 0 1 1.036-.77c.42-.177.891-.266 1.414-.266.989 0 1.708.261 2.156.784.457.513.686 1.199.686 2.058v4.27h-1.008l-.098-1.078h-.098c-.205.336-.481.63-.826.882-.336.243-.821.364-1.456.364Zm.21-1.036c.448 0 .826-.107 1.134-.322.317-.215.555-.499.714-.854a2.68 2.68 0 0 0 .252-1.162h-1.806c-.635 0-1.083.107-1.344.322-.252.215-.378.499-.378.854 0 .364.121.649.364.854.243.205.597.308 1.064.308Zm6.309.868-1.54-6.944h1.162l.994 5.194 1.19-5.194h1.316l1.19 5.194.994-5.194h1.176l-1.554 6.944h-1.204l-1.26-5.39-1.26 5.39h-1.204Zm10.928.168c-.653 0-1.232-.149-1.736-.448a3.296 3.296 0 0 1-1.176-1.274c-.289-.551-.434-1.19-.434-1.918s.14-1.363.42-1.904c.289-.55.686-.975 1.19-1.274.504-.308 1.092-.462 1.764-.462.672 0 1.246.154 1.722.462.476.299.84.695 1.092 1.19a3.468 3.468 0 0 1 .364 1.904v.35h-5.39c.028.513.145.943.35 1.288.215.336.481.588.798.756.327.168.672.252 1.036.252.513 0 .915-.107 1.204-.322.289-.215.509-.513.658-.896h1.162a3.16 3.16 0 0 1-.994 1.638c-.504.439-1.181.658-2.03.658Zm0-6.23c-.541 0-1.017.163-1.428.49-.401.327-.649.784-.742 1.372h4.228c-.037-.579-.247-1.031-.63-1.358-.373-.336-.849-.504-1.428-.504Zm8.395 6.23c-.887 0-1.606-.205-2.156-.616-.542-.42-.845-.994-.91-1.722h1.218c.056.383.242.695.56.938.326.243.765.364 1.316.364.522 0 .91-.112 1.162-.336.261-.224.392-.481.392-.77 0-.392-.154-.658-.462-.798-.308-.149-.77-.261-1.386-.336-.738-.084-1.349-.285-1.834-.602-.486-.317-.728-.793-.728-1.428 0-.57.238-1.04.714-1.414.476-.373 1.124-.56 1.946-.56.812 0 1.451.187 1.918.56.466.364.732.887.798 1.568h-1.162c-.028-.336-.192-.602-.49-.798-.29-.205-.654-.308-1.092-.308-.458 0-.812.089-1.064.266-.252.168-.378.392-.378.672s.14.513.42.7c.289.177.742.294 1.358.35.485.056.928.149 1.33.28.401.131.718.336.952.616.242.28.364.672.364 1.176.009.42-.108.798-.35 1.134-.234.327-.56.588-.98.784-.42.187-.906.28-1.456.28Zm8.324 0c-.653 0-1.232-.149-1.736-.448a3.165 3.165 0 0 1-1.19-1.26c-.289-.551-.434-1.195-.434-1.932 0-.737.145-1.377.434-1.918.289-.55.686-.975 1.19-1.274.504-.299 1.083-.448 1.736-.448s1.232.15 1.736.448c.504.299.901.723 1.19 1.274.289.541.434 1.181.434 1.918 0 .737-.145 1.381-.434 1.932a3.165 3.165 0 0 1-1.19 1.26c-.504.299-1.083.448-1.736.448Zm0-1.12c.401 0 .765-.089 1.092-.266.327-.177.583-.453.77-.826.196-.373.294-.849.294-1.428s-.098-1.055-.294-1.428c-.187-.373-.443-.649-.77-.826a2.254 2.254 0 0 0-1.092-.266c-.392 0-.751.089-1.078.266-.327.177-.588.453-.784.826-.196.373-.294.849-.294 1.428 0 .868.21 1.507.63 1.918.42.401.929.602 1.526.602Zm4.713.952v-6.944h.966l.126.812h.07a1.74 1.74 0 0 1 .546-.7c.252-.187.555-.28.91-.28.354 0 .653.089.896.266.252.168.434.406.546.714h.056c.121-.28.317-.513.588-.7.27-.187.597-.28.98-.28.532 0 .928.182 1.19.546.27.355.406.83.406 1.428v5.138h-1.148v-4.956c0-.336-.07-.602-.21-.798-.131-.196-.346-.294-.644-.294a.943.943 0 0 0-.756.35c-.196.233-.294.565-.294.994v4.704h-1.162v-4.956c0-.336-.066-.602-.196-.798-.131-.196-.346-.294-.644-.294a.983.983 0 0 0-.77.35c-.196.233-.294.565-.294.994v4.704h-1.162Zm12.146.168c-.653 0-1.232-.149-1.736-.448a3.311 3.311 0 0 1-1.176-1.274c-.289-.551-.434-1.19-.434-1.918s.14-1.363.42-1.904c.29-.55.686-.975 1.19-1.274.504-.308 1.092-.462 1.764-.462.672 0 1.246.154 1.722.462.476.299.84.695 1.092 1.19a3.468 3.468 0 0 1 .364 1.904v.35h-5.39c.028.513.145.943.35 1.288.215.336.481.588.798.756.327.168.672.252 1.036.252.514 0 .915-.107 1.204-.322a1.97 1.97 0 0 0 .658-.896h1.162a3.153 3.153 0 0 1-.994 1.638c-.504.439-1.18.658-2.03.658Zm0-6.23c-.541 0-1.017.163-1.428.49-.401.327-.648.784-.742 1.372h4.228c-.037-.579-.247-1.031-.63-1.358-.373-.336-.849-.504-1.428-.504Z"/>
</svg>
