<svg xmlns="http://www.w3.org/2000/svg" fill="none" viewBox="0 0 300 200">
    <g filter="url(#button__a)">
        <rect width="168" height="56" x="66" y="72" fill="var(--color-brand-primary-base)" rx="4" />
    </g>
    <path
        fill="var(--color-brand-primary-contrast)"
        d="m114.66 107 4.38-14h1.94l4.36 14h-1.84l-1.02-3.48h-4.96L116.5 107h-1.84Zm5.3-11.64-2.02 6.76h4.12l-2.02-6.76h-.08Zm12.192 11.88c-.893 0-1.693-.207-2.4-.62-.693-.413-1.246-1.007-1.66-1.78-.413-.787-.62-1.72-.62-2.8 0-1.08.207-2.007.62-2.78.414-.787.974-1.387 1.68-1.8a4.698 4.698 0 0 1 2.38-.62c1.227 0 2.207.307 2.94.92.734.613 1.2 1.433 1.4 2.46h-1.72a2.349 2.349 0 0 0-.92-1.3c-.453-.333-1.026-.5-1.72-.5-.506 0-.986.133-1.44.4-.453.267-.82.667-1.1 1.2-.28.533-.42 1.207-.42 2.02s.14 1.493.42 2.04c.28.533.647.933 1.1 1.2.454.267.934.4 1.44.4.734 0 1.314-.167 1.74-.5.44-.333.74-.773.9-1.32h1.72c-.253 1.053-.753 1.88-1.5 2.48-.733.6-1.68.9-2.84.9Zm12.872-.24c-.906 0-1.62-.22-2.14-.66-.52-.44-.78-1.233-.78-2.38v-5.44h-2.52v-1.44h1.5c.68 0 1.074-.333 1.18-1l.28-1.54h1.24v2.54h3.96v1.44h-3.96v5.44c0 .56.127.953.38 1.18.267.227.72.34 1.36.34h2.22V107h-2.72Zm10.833-11.68c-.4 0-.734-.133-1-.4a1.308 1.308 0 0 1-.4-.96c0-.387.133-.707.4-.96.266-.267.6-.4 1-.4.386 0 .713.133.98.4.28.253.42.573.42.96 0 .373-.14.693-.42.96-.267.267-.594.4-.98.4Zm-3.88 11.68v-1.44h3.16v-6.54c0-.333-.167-.5-.5-.5h-2.32v-1.44h2.72c1.186 0 1.78.593 1.78 1.78v6.7h3.16V107h-8Zm15.992.24c-.934 0-1.76-.213-2.48-.64a4.52 4.52 0 0 1-1.7-1.8c-.414-.787-.62-1.707-.62-2.76 0-1.053.206-1.967.62-2.74.413-.787.98-1.393 1.7-1.82.72-.427 1.546-.64 2.48-.64.933 0 1.76.213 2.48.64.72.427 1.286 1.033 1.7 1.82.413.773.62 1.687.62 2.74 0 1.053-.207 1.973-.62 2.76a4.527 4.527 0 0 1-1.7 1.8c-.72.427-1.547.64-2.48.64Zm0-1.6c.573 0 1.093-.127 1.56-.38.466-.253.833-.647 1.1-1.18.28-.533.42-1.213.42-2.04s-.14-1.507-.42-2.04c-.267-.533-.634-.927-1.1-1.18a3.218 3.218 0 0 0-1.56-.38c-.56 0-1.074.127-1.54.38-.467.253-.84.647-1.12 1.18-.28.533-.42 1.213-.42 2.04 0 1.24.3 2.153.9 2.74.6.573 1.326.86 2.18.86Zm7.752 1.36v-9.92h1.4l.18 1.5h.1c.267-.48.687-.887 1.26-1.22.573-.347 1.233-.52 1.98-.52 1.213 0 2.12.36 2.72 1.08.613.72.92 1.76.92 3.12V107h-1.68v-5.76c0-.88-.193-1.567-.58-2.06-.387-.507-.987-.76-1.8-.76-.787 0-1.453.273-2 .82-.547.533-.82 1.307-.82 2.32V107h-1.68Z"
    />
    <defs>
        <filter
            id="button__a"
            width="184"
            height="72"
            x="60"
            y="66"
            color-interpolation-filters="sRGB"
            filterUnits="userSpaceOnUse"
        >
            <feFlood flood-opacity="0" result="BackgroundImageFix" />
            <feColorMatrix in="SourceAlpha" result="hardAlpha" values="0 0 0 0 0 0 0 0 0 0 0 0 0 0 0 0 0 0 127 0" />
            <feOffset dx="2" dy="2" />
            <feGaussianBlur stdDeviation="4" />
            <feComposite in2="hardAlpha" operator="out" />
            <feColorMatrix values="0 0 0 0 0.705882 0 0 0 0 0.745098 0 0 0 0 0.823529 0 0 0 1 0" />
            <feBlend in2="BackgroundImageFix" result="effect1_dropShadow_1_2" />
            <feBlend in="SourceGraphic" in2="effect1_dropShadow_1_2" result="shape" />
        </filter>
    </defs>
</svg>
