<svg xmlns="http://www.w3.org/2000/svg" fill="none" viewBox="0 0 300 200">
  <g filter="url(#checkbox__a)">
    <rect width="56" height="56" x="37" y="69" fill="#1B4FFF" rx="4"/>
  </g>
  <rect width="55" height="55" x="37.5" y="69.5" stroke="#CBD4E9" rx="3.5"/>
  <path fill="#222938" d="M109.62 89V75h2.12v12.1h6.9V89h-9.02Zm15.472.24c-.786 0-1.446-.133-1.98-.4-.533-.28-.933-.647-1.2-1.1a3.018 3.018 0 0 1-.4-1.52c0-.973.354-1.733 1.06-2.28.72-.547 1.734-.82 3.04-.82h2.56v-.22c0-1.493-.693-2.24-2.08-2.24-.573 0-1.06.127-1.46.38-.386.24-.646.633-.78 1.18h-2.12c.107-1.04.554-1.86 1.34-2.46.8-.613 1.807-.92 3.02-.92 1.467 0 2.534.36 3.2 1.08.667.72 1 1.713 1 2.98V89h-1.8l-.18-1.46h-.14c-.293.467-.66.867-1.1 1.2-.44.333-1.1.5-1.98.5Zm.4-1.78c.867 0 1.514-.26 1.94-.78.44-.533.68-1.207.72-2.02h-2.32c-.76 0-1.3.127-1.62.38-.306.24-.46.58-.46 1.02 0 .44.154.787.46 1.04.32.24.747.36 1.28.36Zm13.032 1.78c-.733 0-1.353-.147-1.86-.44a3.07 3.07 0 0 1-1.14-1.26h-.12l-.18 1.46h-1.82V74.6h2.12v5.76c.24-.4.62-.753 1.14-1.06.52-.307 1.14-.46 1.86-.46.827 0 1.567.2 2.22.6.654.387 1.167.967 1.54 1.74.387.773.58 1.727.58 2.86 0 1.133-.193 2.087-.58 2.86-.373.773-.886 1.36-1.54 1.76-.653.387-1.393.58-2.22.58Zm-.44-2.02c.76 0 1.387-.26 1.88-.78.507-.533.76-1.327.76-2.38 0-1.067-.253-1.867-.76-2.4-.493-.533-1.12-.8-1.88-.8-.76 0-1.393.267-1.9.8-.493.52-.74 1.313-.74 2.38 0 1.053.247 1.847.74 2.38.507.533 1.14.8 1.9.8Zm12.013 2.02c-.96 0-1.807-.213-2.54-.64a4.609 4.609 0 0 1-1.72-1.82c-.414-.773-.62-1.673-.62-2.7 0-1.04.2-1.953.6-2.74.413-.787.986-1.4 1.72-1.84.746-.44 1.606-.66 2.58-.66.96 0 1.786.22 2.48.66.693.427 1.226 1 1.6 1.72.386.72.58 1.513.58 2.38v.44c0 .147-.007.313-.02.5h-7.46c.066.92.366 1.62.9 2.1.533.467 1.16.7 1.88.7.626 0 1.12-.127 1.48-.38a2.31 2.31 0 0 0 .82-1.08h2.14a4.588 4.588 0 0 1-1.5 2.4c-.76.64-1.734.96-2.92.96Zm0-8.56c-.654 0-1.234.2-1.74.6-.507.387-.834.933-.98 1.64h5.28c-.054-.667-.314-1.207-.78-1.62-.467-.413-1.06-.62-1.78-.62Zm7.232 8.32v-1.84h3.32V77.1c0-.44-.214-.66-.64-.66h-2.4V74.6h2.78c.773 0 1.36.207 1.76.62.413.4.62.987.62 1.76v10.18h3.34V89h-8.78Z"/>
  <path fill="#474E5C" d="M112.395 107.18c-.74 0-1.4-.215-1.98-.645-.58-.44-1.035-1.065-1.365-1.875-.32-.81-.48-1.78-.48-2.91 0-1.12.165-2.085.495-2.895.33-.81.795-1.435 1.395-1.875.61-.44 1.33-.66 2.16-.66.99 0 1.795.29 2.415.87.63.58 1.005 1.36 1.125 2.34h-1.395c-.1-.6-.335-1.085-.705-1.455-.36-.38-.84-.57-1.44-.57-.86 0-1.535.375-2.025 1.125s-.735 1.79-.735 3.12c0 1.35.245 2.395.735 3.135.49.74 1.125 1.11 1.905 1.11.56 0 1.02-.165 1.38-.495.36-.34.63-.77.81-1.29.19-.53.295-1.075.315-1.635h-2.34v-1.08h3.63V107h-1.155l-.105-1.59h-.06c-.21.54-.52.97-.93 1.29-.4.32-.95.48-1.65.48Zm9.009-8.94c-.3 0-.55-.1-.75-.3-.2-.2-.3-.44-.3-.72 0-.29.1-.53.3-.72.2-.2.45-.3.75-.3a1 1 0 0 1 .735.3c.21.19.315.43.315.72a.96.96 0 0 1-.315.72 1 1 0 0 1-.735.3Zm-2.91 8.76v-1.08h2.37v-4.905c0-.25-.125-.375-.375-.375h-1.74v-1.08h2.04c.89 0 1.335.445 1.335 1.335v5.025h2.37V107h-6Zm11.259 0-3.27-7.44h1.44l2.565 6.06 2.58-6.06h1.425l-3.285 7.44h-1.455Zm9.804.18c-.7 0-1.32-.16-1.86-.48-.53-.33-.95-.785-1.26-1.365-.31-.59-.465-1.275-.465-2.055 0-.78.15-1.46.45-2.04.31-.59.735-1.045 1.275-1.365.54-.33 1.17-.495 1.89-.495s1.335.165 1.845.495c.51.32.9.745 1.17 1.275a3.714 3.714 0 0 1 .39 2.04v.375h-5.775c.03.55.155 1.01.375 1.38.23.36.515.63.855.81.35.18.72.27 1.11.27.55 0 .98-.115 1.29-.345.31-.23.545-.55.705-.96h1.245a3.383 3.383 0 0 1-1.065 1.755c-.54.47-1.265.705-2.175.705Zm0-6.675c-.58 0-1.09.175-1.53.525-.43.35-.695.84-.795 1.47h4.53c-.04-.62-.265-1.105-.675-1.455-.4-.36-.91-.54-1.53-.54Zm15.649 9.795 1.83-4.02h-.435l-2.94-6.72h1.365l2.445 5.76 2.58-5.76h1.32l-4.845 10.74h-1.32Zm11.259-3.12c-.7 0-1.32-.16-1.86-.48-.54-.32-.965-.77-1.275-1.35-.31-.59-.465-1.28-.465-2.07 0-.79.155-1.475.465-2.055.31-.59.735-1.045 1.275-1.365.54-.32 1.16-.48 1.86-.48.7 0 1.32.16 1.86.48.54.32.965.775 1.275 1.365.31.58.465 1.265.465 2.055 0 .79-.155 1.48-.465 2.07-.31.58-.735 1.03-1.275 1.35-.54.32-1.16.48-1.86.48Zm0-1.2c.43 0 .82-.095 1.17-.285.35-.19.625-.485.825-.885.21-.4.315-.91.315-1.53s-.105-1.13-.315-1.53c-.2-.4-.475-.695-.825-.885-.35-.19-.74-.285-1.17-.285-.42 0-.805.095-1.155.285-.35.19-.63.485-.84.885-.21.4-.315.91-.315 1.53 0 .93.225 1.615.675 2.055.45.43.995.645 1.635.645Zm8.469 1.2c-.9 0-1.58-.27-2.04-.81-.46-.54-.69-1.32-.69-2.34v-4.47h1.26v4.32c0 .66.145 1.18.435 1.56.3.37.75.555 1.35.555.6 0 1.105-.2 1.515-.6.41-.41.615-.995.615-1.755v-4.08h1.26V107h-1.05l-.135-1.125h-.075c-.2.36-.515.67-.945.93-.43.25-.93.375-1.5.375Zm6.279-.18v-1.08h1.905v-4.905c0-.25-.12-.375-.36-.375h-1.35v-1.08h1.815c.33 0 .595.09.795.27.2.18.3.445.3.795v.315h.06c.12-.5.345-.885.675-1.155.34-.27.81-.405 1.41-.405h1.365v1.335h-1.545c-.61 0-1.08.205-1.41.615-.33.4-.495.915-.495 1.545v3.045h2.34V107h-5.505Zm20.703.18c-.9 0-1.58-.27-2.04-.81-.46-.54-.69-1.32-.69-2.34v-4.47h1.26v4.32c0 .66.145 1.18.435 1.56.3.37.75.555 1.35.555.6 0 1.105-.2 1.515-.6.41-.41.615-.995.615-1.755v-4.08h1.26V107h-1.05l-.135-1.125h-.075c-.2.36-.515.67-.945.93-.43.25-.93.375-1.5.375Zm9.595 0c-.95 0-1.72-.22-2.31-.66-.58-.45-.905-1.065-.975-1.845h1.305c.06.41.26.745.6 1.005.35.26.82.39 1.41.39.56 0 .975-.12 1.245-.36.28-.24.42-.515.42-.825 0-.42-.165-.705-.495-.855-.33-.16-.825-.28-1.485-.36-.79-.09-1.445-.305-1.965-.645s-.78-.85-.78-1.53c0-.61.255-1.115.765-1.515.51-.4 1.205-.6 2.085-.6.87 0 1.555.2 2.055.6.5.39.785.95.855 1.68h-1.245c-.03-.36-.205-.645-.525-.855-.31-.22-.7-.33-1.17-.33-.49 0-.87.095-1.14.285-.27.18-.405.42-.405.72s.15.55.45.75c.31.19.795.315 1.455.375.52.06.995.16 1.425.3.43.14.77.36 1.02.66.26.3.39.72.39 1.26.01.45-.115.855-.375 1.215-.25.35-.6.63-1.05.84-.45.2-.97.3-1.56.3Zm8.994 0c-.7 0-1.32-.16-1.86-.48-.53-.33-.95-.785-1.26-1.365-.31-.59-.465-1.275-.465-2.055 0-.78.15-1.46.45-2.04.31-.59.735-1.045 1.275-1.365.54-.33 1.17-.495 1.89-.495s1.335.165 1.845.495c.51.32.9.745 1.17 1.275a3.714 3.714 0 0 1 .39 2.04v.375h-5.775c.03.55.155 1.01.375 1.38.23.36.515.63.855.81.35.18.72.27 1.11.27.55 0 .98-.115 1.29-.345.31-.23.545-.55.705-.96h1.245a3.383 3.383 0 0 1-1.065 1.755c-.54.47-1.265.705-2.175.705Zm0-6.675c-.58 0-1.09.175-1.53.525-.43.35-.695.84-.795 1.47h4.53c-.04-.62-.265-1.105-.675-1.455-.4-.36-.91-.54-1.53-.54Zm5.679 6.495v-1.08h1.905v-4.905c0-.25-.12-.375-.36-.375h-1.35v-1.08h1.815c.33 0 .595.09.795.27.2.18.3.445.3.795v.315h.06c.12-.5.345-.885.675-1.155.34-.27.81-.405 1.41-.405h1.365v1.335h-1.545c-.61 0-1.08.205-1.41.615-.33.4-.495.915-.495 1.545v3.045h2.34V107h-5.505Zm12.309.18c-.95 0-1.72-.22-2.31-.66-.58-.45-.905-1.065-.975-1.845h1.305c.06.41.26.745.6 1.005.35.26.82.39 1.41.39.56 0 .975-.12 1.245-.36.28-.24.42-.515.42-.825 0-.42-.165-.705-.495-.855-.33-.16-.825-.28-1.485-.36-.79-.09-1.445-.305-1.965-.645s-.78-.85-.78-1.53c0-.61.255-1.115.765-1.515.51-.4 1.205-.6 2.085-.6.87 0 1.555.2 2.055.6.5.39.785.95.855 1.68h-1.245c-.03-.36-.205-.645-.525-.855-.31-.22-.7-.33-1.17-.33-.49 0-.87.095-1.14.285-.27.18-.405.42-.405.72s.15.55.45.75c.31.19.795.315 1.455.375.52.06.995.16 1.425.3.43.14.77.36 1.02.66.26.3.39.72.39 1.26.01.45-.115.855-.375 1.215-.25.35-.6.63-1.05.84-.45.2-.97.3-1.56.3Zm17.283 0c-.59 0-1.08-.105-1.47-.315-.39-.21-.68-.485-.87-.825-.19-.35-.285-.73-.285-1.14 0-.76.275-1.335.825-1.725.56-.4 1.305-.6 2.235-.6h2.04v-.15c0-1.3-.595-1.95-1.785-1.95-.48 0-.885.105-1.215.315-.32.21-.525.54-.615.99h-1.29c.05-.5.215-.93.495-1.29.29-.36.66-.635 1.11-.825a3.86 3.86 0 0 1 1.515-.285c1.06 0 1.83.28 2.31.84.49.55.735 1.285.735 2.205V107h-1.08l-.105-1.155h-.105c-.22.36-.515.675-.885.945-.36.26-.88.39-1.56.39Zm.225-1.11c.48 0 .885-.115 1.215-.345.34-.23.595-.535.765-.915.18-.38.27-.795.27-1.245h-1.935c-.68 0-1.16.115-1.44.345-.27.23-.405.535-.405.915 0 .39.13.695.39.915.26.22.64.33 1.14.33ZM109.245 127v-10.8h1.26v4.485c.2-.38.53-.69.99-.93.46-.25.965-.375 1.515-.375.91 0 1.6.275 2.07.825.48.55.72 1.32.72 2.31V127h-1.26v-4.32c0-.67-.165-1.19-.495-1.56-.32-.37-.77-.555-1.35-.555-.4 0-.765.09-1.095.27-.33.18-.595.445-.795.795-.2.35-.3.78-.3 1.29V127h-1.26Zm12.159-8.76c-.3 0-.55-.1-.75-.3-.2-.2-.3-.44-.3-.72 0-.29.1-.53.3-.72.2-.2.45-.3.75-.3a1 1 0 0 1 .735.3c.21.19.315.43.315.72a.96.96 0 0 1-.315.72 1 1 0 0 1-.735.3Zm-2.91 8.76v-1.08h2.37v-4.905c0-.25-.125-.375-.375-.375h-1.74v-1.08h2.04c.89 0 1.335.445 1.335 1.335v5.025h2.37V127h-6Zm8.814 0v-7.44h1.05l.135 1.125h.075c.2-.36.515-.665.945-.915.43-.26.925-.39 1.485-.39.91 0 1.59.27 2.04.81.46.54.69 1.32.69 2.34V127h-1.26v-4.32c0-.66-.145-1.175-.435-1.545-.29-.38-.74-.57-1.35-.57-.59 0-1.09.205-1.5.615-.41.4-.615.98-.615 1.74V127h-1.26Zm12.954 0c-.68 0-1.215-.165-1.605-.495-.39-.33-.585-.925-.585-1.785v-4.08h-1.89v-1.08h1.125c.51 0 .805-.25.885-.75l.21-1.155h.93v1.905h2.97v1.08h-2.97v4.08c0 .42.095.715.285.885.2.17.54.255 1.02.255h1.665V127h-2.04Z"/>
  <path fill="#E3FCFF" fill-rule="evenodd" d="M79.97 84.767a2 2 0 0 0-2.829 0L62.274 99.634l-6.082-6.082a2 2 0 0 0-2.828 0l-4.95 4.95a2 2 0 0 0 0 2.828l12.398 12.398a2 2 0 0 0 2.828 0l.118-.118c.15-.086.29-.193.418-.321l20.743-20.743a2 2 0 0 0 0-2.829l-4.95-4.95Z" clip-rule="evenodd"/>
  <defs>
    <filter id="checkbox__a" width="58" height="58" x="37" y="69" color-interpolation-filters="sRGB" filterUnits="userSpaceOnUse">
      <feFlood flood-opacity="0" result="BackgroundImageFix"/>
      <feBlend in="SourceGraphic" in2="BackgroundImageFix" result="shape"/>
      <feColorMatrix in="SourceAlpha" result="hardAlpha" values="0 0 0 0 0 0 0 0 0 0 0 0 0 0 0 0 0 0 127 0"/>
      <feOffset dx="2" dy="2"/>
      <feGaussianBlur stdDeviation="1"/>
      <feComposite in2="hardAlpha" k2="-1" k3="1" operator="arithmetic"/>
      <feColorMatrix values="0 0 0 0 0.705882 0 0 0 0 0.745098 0 0 0 0 0.823529 0 0 0 0.3 0"/>
      <feBlend in2="shape" result="effect1_innerShadow_1_97"/>
    </filter>
  </defs>
</svg>
