<svg width="300" height="200" viewBox="0 0 300 200" fill="none" xmlns="http://www.w3.org/2000/svg">
    <g filter="url(#filter0_d_17_44)">
        <rect x="72" y="13" width="156" height="173" fill="var(--color-surface-base)" />
        <rect x="72.5" y="13.5" width="155" height="172" stroke="var(--color-border-base)" />
    </g>
    <rect x="77" y="18" width="146" height="82" rx="4" fill="var(--color-brand-primary-base)" />
    <path
        d="M80.458 127V118.53H77.826V117.2H84.574V118.53H81.942V127H80.458ZM86.4165 127V116.92H87.9005V121.092C88.0872 120.747 88.3859 120.462 88.7965 120.238C89.2072 120.005 89.6692 119.888 90.1825 119.888C91.0412 119.888 91.6945 120.149 92.1425 120.672C92.5905 121.185 92.8145 121.927 92.8145 122.898V127H91.3305V123.108C91.3305 122.529 91.1905 122.081 90.9105 121.764C90.6305 121.447 90.2432 121.288 89.7485 121.288C89.2352 121.288 88.7965 121.461 88.4325 121.806C88.0779 122.151 87.9005 122.651 87.9005 123.304V127H86.4165ZM97.8491 118.992C97.5224 118.992 97.2471 118.889 97.0231 118.684C96.8084 118.469 96.7011 118.208 96.7011 117.9C96.7011 117.592 96.8084 117.335 97.0231 117.13C97.2471 116.925 97.5224 116.822 97.8491 116.822C98.1851 116.822 98.4604 116.925 98.6751 117.13C98.8991 117.335 99.0111 117.592 99.0111 117.9C99.0111 118.208 98.8991 118.469 98.6751 118.684C98.4604 118.889 98.1851 118.992 97.8491 118.992ZM95.0631 127V125.712H97.2471V121.806C97.2471 121.498 97.0977 121.344 96.7991 121.344H95.2591V120.056H97.0651C97.6437 120.056 98.0637 120.191 98.3251 120.462C98.5957 120.723 98.7311 121.143 98.7311 121.722V125.712H100.915V127H95.0631ZM106.44 127.168C105.525 127.168 104.797 126.953 104.256 126.524C103.714 126.095 103.406 125.525 103.332 124.816H104.858C104.914 125.143 105.077 125.409 105.348 125.614C105.628 125.819 105.996 125.922 106.454 125.922C106.892 125.922 107.228 125.833 107.462 125.656C107.704 125.469 107.826 125.255 107.826 125.012C107.826 124.657 107.681 124.415 107.392 124.284C107.112 124.153 106.696 124.055 106.146 123.99C105.67 123.934 105.236 123.827 104.844 123.668C104.461 123.5 104.158 123.276 103.934 122.996C103.71 122.707 103.598 122.347 103.598 121.918C103.598 121.311 103.836 120.821 104.312 120.448C104.788 120.075 105.45 119.888 106.3 119.888C107.149 119.888 107.807 120.079 108.274 120.462C108.74 120.845 109.011 121.367 109.086 122.03H107.658C107.62 121.75 107.476 121.531 107.224 121.372C106.972 121.204 106.659 121.12 106.286 121.12C105.903 121.12 105.6 121.195 105.376 121.344C105.152 121.484 105.04 121.671 105.04 121.904C105.04 122.408 105.581 122.716 106.664 122.828C107.177 122.884 107.634 122.982 108.036 123.122C108.437 123.253 108.754 123.463 108.988 123.752C109.221 124.032 109.338 124.429 109.338 124.942C109.347 125.362 109.226 125.74 108.974 126.076C108.731 126.412 108.39 126.678 107.952 126.874C107.522 127.07 107.018 127.168 106.44 127.168ZM123.033 118.992C122.706 118.992 122.431 118.889 122.207 118.684C121.992 118.469 121.885 118.208 121.885 117.9C121.885 117.592 121.992 117.335 122.207 117.13C122.431 116.925 122.706 116.822 123.033 116.822C123.369 116.822 123.644 116.925 123.859 117.13C124.083 117.335 124.195 117.592 124.195 117.9C124.195 118.208 124.083 118.469 123.859 118.684C123.644 118.889 123.369 118.992 123.033 118.992ZM120.247 127V125.712H122.431V121.806C122.431 121.498 122.281 121.344 121.983 121.344H120.443V120.056H122.249C122.827 120.056 123.247 120.191 123.509 120.462C123.779 120.723 123.915 121.143 123.915 121.722V125.712H126.099V127H120.247ZM131.623 127.168C130.709 127.168 129.981 126.953 129.439 126.524C128.898 126.095 128.59 125.525 128.515 124.816H130.041C130.097 125.143 130.261 125.409 130.531 125.614C130.811 125.819 131.18 125.922 131.637 125.922C132.076 125.922 132.412 125.833 132.645 125.656C132.888 125.469 133.009 125.255 133.009 125.012C133.009 124.657 132.865 124.415 132.575 124.284C132.295 124.153 131.88 124.055 131.329 123.99C130.853 123.934 130.419 123.827 130.027 123.668C129.645 123.5 129.341 123.276 129.117 122.996C128.893 122.707 128.781 122.347 128.781 121.918C128.781 121.311 129.019 120.821 129.495 120.448C129.971 120.075 130.634 119.888 131.483 119.888C132.333 119.888 132.991 120.079 133.457 120.462C133.924 120.845 134.195 121.367 134.269 122.03H132.841C132.804 121.75 132.659 121.531 132.407 121.372C132.155 121.204 131.843 121.12 131.469 121.12C131.087 121.12 130.783 121.195 130.559 121.344C130.335 121.484 130.223 121.671 130.223 121.904C130.223 122.408 130.765 122.716 131.847 122.828C132.361 122.884 132.818 122.982 133.219 123.122C133.621 123.253 133.938 123.463 134.171 123.752C134.405 124.032 134.521 124.429 134.521 124.942C134.531 125.362 134.409 125.74 134.157 126.076C133.915 126.412 133.574 126.678 133.135 126.874C132.706 127.07 132.202 127.168 131.623 127.168ZM147.726 127.168C147.176 127.168 146.714 127.075 146.34 126.888C145.967 126.692 145.687 126.435 145.5 126.118C145.314 125.791 145.22 125.437 145.22 125.054C145.22 124.373 145.468 123.841 145.962 123.458C146.466 123.075 147.176 122.884 148.09 122.884H149.882V122.73C149.882 121.685 149.397 121.162 148.426 121.162C148.025 121.162 147.684 121.251 147.404 121.428C147.134 121.596 146.952 121.871 146.858 122.254H145.374C145.449 121.526 145.762 120.952 146.312 120.532C146.872 120.103 147.577 119.888 148.426 119.888C149.453 119.888 150.2 120.14 150.666 120.644C151.133 121.148 151.366 121.843 151.366 122.73V127H150.106L149.98 125.978H149.882C149.677 126.305 149.42 126.585 149.112 126.818C148.804 127.051 148.342 127.168 147.726 127.168ZM148.006 125.922C148.613 125.922 149.066 125.74 149.364 125.376C149.672 125.003 149.84 124.531 149.868 123.962H148.244C147.712 123.962 147.334 124.051 147.11 124.228C146.896 124.396 146.788 124.634 146.788 124.942C146.788 125.25 146.896 125.493 147.11 125.67C147.334 125.838 147.633 125.922 148.006 125.922ZM165.243 127.168C164.599 127.168 164.021 127.019 163.507 126.72C163.003 126.421 162.607 126.001 162.317 125.46C162.028 124.909 161.883 124.265 161.883 123.528C161.883 122.791 162.028 122.151 162.317 121.61C162.616 121.069 163.017 120.649 163.521 120.35C164.025 120.042 164.599 119.888 165.243 119.888C166.13 119.888 166.844 120.112 167.385 120.56C167.936 120.999 168.286 121.605 168.435 122.38H166.881C166.788 122.044 166.597 121.778 166.307 121.582C166.027 121.386 165.668 121.288 165.229 121.288C164.912 121.288 164.609 121.372 164.319 121.54C164.039 121.708 163.811 121.96 163.633 122.296C163.465 122.623 163.381 123.033 163.381 123.528C163.381 124.013 163.465 124.424 163.633 124.76C163.811 125.096 164.039 125.353 164.319 125.53C164.609 125.698 164.912 125.782 165.229 125.782C165.677 125.782 166.037 125.684 166.307 125.488C166.578 125.292 166.769 125.021 166.881 124.676H168.435C168.249 125.441 167.885 126.048 167.343 126.496C166.802 126.944 166.102 127.168 165.243 127.168ZM172.91 127.168C172.359 127.168 171.897 127.075 171.524 126.888C171.151 126.692 170.871 126.435 170.684 126.118C170.497 125.791 170.404 125.437 170.404 125.054C170.404 124.373 170.651 123.841 171.146 123.458C171.65 123.075 172.359 122.884 173.274 122.884H175.066V122.73C175.066 121.685 174.581 121.162 173.61 121.162C173.209 121.162 172.868 121.251 172.588 121.428C172.317 121.596 172.135 121.871 172.042 122.254H170.558C170.633 121.526 170.945 120.952 171.496 120.532C172.056 120.103 172.761 119.888 173.61 119.888C174.637 119.888 175.383 120.14 175.85 120.644C176.317 121.148 176.55 121.843 176.55 122.73V127H175.29L175.164 125.978H175.066C174.861 126.305 174.604 126.585 174.296 126.818C173.988 127.051 173.526 127.168 172.91 127.168ZM173.19 125.922C173.797 125.922 174.249 125.74 174.548 125.376C174.856 125.003 175.024 124.531 175.052 123.962H173.428C172.896 123.962 172.518 124.051 172.294 124.228C172.079 124.396 171.972 124.634 171.972 124.942C171.972 125.25 172.079 125.493 172.294 125.67C172.518 125.838 172.817 125.922 173.19 125.922ZM178.812 127V125.712H180.506V121.806C180.506 121.498 180.357 121.344 180.058 121.344H178.952V120.056H180.618C181.001 120.056 181.314 120.168 181.556 120.392C181.799 120.607 181.92 120.91 181.92 121.302V121.47H181.99C182.093 120.947 182.312 120.555 182.648 120.294C182.994 120.023 183.493 119.888 184.146 119.888H185.224V121.456H183.712C183.162 121.456 182.737 121.647 182.438 122.03C182.14 122.413 181.99 122.87 181.99 123.402V125.712H184.146V127H178.812ZM189.951 127.168C189.372 127.168 188.854 127.033 188.397 126.762C187.94 126.482 187.576 126.071 187.305 125.53C187.044 124.989 186.913 124.321 186.913 123.528C186.913 122.735 187.048 122.067 187.319 121.526C187.59 120.985 187.954 120.579 188.411 120.308C188.878 120.028 189.396 119.888 189.965 119.888C190.497 119.888 190.936 119.991 191.281 120.196C191.626 120.392 191.883 120.644 192.051 120.952V116.92H193.535V127H192.261L192.135 125.978H192.051C191.864 126.342 191.598 126.631 191.253 126.846C190.917 127.061 190.483 127.168 189.951 127.168ZM190.259 125.754C190.791 125.754 191.23 125.567 191.575 125.194C191.93 124.821 192.107 124.265 192.107 123.528C192.107 122.781 191.93 122.226 191.575 121.862C191.23 121.489 190.791 121.302 190.259 121.302C189.727 121.302 189.284 121.489 188.929 121.862C188.584 122.235 188.411 122.795 188.411 123.542C188.411 124.279 188.584 124.835 188.929 125.208C189.284 125.572 189.727 125.754 190.259 125.754Z"
        fill="var(--color-text-base)"
    />
    <path
        d="M81.27 140.12C80.9033 140.12 80.5933 140.047 80.34 139.9C80.0933 139.747 79.9033 139.537 79.77 139.27H79.71L79.62 140H78.71V132.8H79.77V135.68C79.89 135.48 80.08 135.303 80.34 135.15C80.6 134.997 80.91 134.92 81.27 134.92C81.6833 134.92 82.0533 135.02 82.38 135.22C82.7067 135.413 82.9633 135.703 83.15 136.09C83.3433 136.477 83.44 136.953 83.44 137.52C83.44 138.087 83.3433 138.563 83.15 138.95C82.9633 139.337 82.7067 139.63 82.38 139.83C82.0533 140.023 81.6833 140.12 81.27 140.12ZM81.05 139.11C81.43 139.11 81.7433 138.98 81.99 138.72C82.2433 138.453 82.37 138.057 82.37 137.53C82.37 136.997 82.2433 136.597 81.99 136.33C81.7433 136.063 81.43 135.93 81.05 135.93C80.67 135.93 80.3533 136.063 80.1 136.33C79.8533 136.59 79.73 136.987 79.73 137.52C79.73 138.047 79.8533 138.443 80.1 138.71C80.3533 138.977 80.67 139.11 81.05 139.11ZM85.4261 142.2L86.6061 139.59H86.3161L84.3861 135.04H85.5361L87.0161 138.67L88.5861 135.04H89.6961L86.5461 142.2H85.4261ZM96.7683 140V135.04H97.6883L97.7783 135.78H97.8283C97.9616 135.54 98.1683 135.337 98.4483 135.17C98.7283 135.003 99.0516 134.92 99.4183 134.92C100.025 134.92 100.482 135.103 100.788 135.47C101.095 135.837 101.248 136.377 101.248 137.09V140H100.188V137.22C100.188 136.807 100.102 136.487 99.9283 136.26C99.7549 136.033 99.4816 135.92 99.1083 135.92C98.7416 135.92 98.4349 136.043 98.1883 136.29C97.9483 136.537 97.8283 136.893 97.8283 137.36V140H96.7683ZM104.984 140.12C104.511 140.12 104.088 140.013 103.714 139.8C103.341 139.587 103.048 139.287 102.834 138.9C102.621 138.507 102.514 138.047 102.514 137.52C102.514 136.993 102.621 136.537 102.834 136.15C103.048 135.757 103.341 135.453 103.714 135.24C104.088 135.027 104.514 134.92 104.994 134.92C105.474 134.92 105.898 135.027 106.264 135.24C106.638 135.453 106.928 135.757 107.134 136.15C107.348 136.537 107.454 136.993 107.454 137.52C107.454 138.047 107.348 138.507 107.134 138.9C106.921 139.287 106.628 139.587 106.254 139.8C105.888 140.013 105.464 140.12 104.984 140.12ZM104.984 139.11C105.238 139.11 105.471 139.053 105.684 138.94C105.898 138.827 106.068 138.653 106.194 138.42C106.328 138.18 106.394 137.88 106.394 137.52C106.394 137.153 106.328 136.853 106.194 136.62C106.068 136.387 105.898 136.213 105.684 136.1C105.478 135.987 105.248 135.93 104.994 135.93C104.741 135.93 104.508 135.987 104.294 136.1C104.081 136.213 103.908 136.387 103.774 136.62C103.648 136.853 103.584 137.153 103.584 137.52C103.584 138.067 103.721 138.47 103.994 138.73C104.274 138.983 104.604 139.11 104.984 139.11ZM108.75 140V139.08H109.96V136.29C109.96 136.07 109.854 135.96 109.64 135.96H108.85V135.04H110.04C110.314 135.04 110.537 135.12 110.71 135.28C110.884 135.433 110.97 135.65 110.97 135.93V136.05H111.02C111.094 135.677 111.25 135.397 111.49 135.21C111.737 135.017 112.094 134.92 112.56 134.92H113.33V136.04H112.25C111.857 136.04 111.554 136.177 111.34 136.45C111.127 136.723 111.02 137.05 111.02 137.43V139.08H112.56V140H108.75ZM116.707 140.12C116.293 140.12 115.923 140.023 115.597 139.83C115.27 139.63 115.01 139.337 114.817 138.95C114.63 138.563 114.537 138.087 114.537 137.52C114.537 136.953 114.633 136.477 114.827 136.09C115.02 135.703 115.28 135.413 115.607 135.22C115.94 135.02 116.31 134.92 116.717 134.92C117.097 134.92 117.41 134.993 117.657 135.14C117.903 135.28 118.087 135.46 118.207 135.68V132.8H119.267V140H118.357L118.267 139.27H118.207C118.073 139.53 117.883 139.737 117.637 139.89C117.397 140.043 117.087 140.12 116.707 140.12ZM116.927 139.11C117.307 139.11 117.62 138.977 117.867 138.71C118.12 138.443 118.247 138.047 118.247 137.52C118.247 136.987 118.12 136.59 117.867 136.33C117.62 136.063 117.307 135.93 116.927 135.93C116.547 135.93 116.23 136.063 115.977 136.33C115.73 136.597 115.607 136.997 115.607 137.53C115.607 138.057 115.73 138.453 115.977 138.72C116.23 138.98 116.547 139.11 116.927 139.11ZM123.043 140.12C122.583 140.12 122.169 140.013 121.803 139.8C121.443 139.587 121.159 139.287 120.953 138.9C120.746 138.507 120.643 138.047 120.643 137.52C120.643 136.993 120.746 136.537 120.953 136.15C121.166 135.763 121.453 135.463 121.813 135.25C122.173 135.03 122.583 134.92 123.043 134.92C123.676 134.92 124.186 135.08 124.573 135.4C124.966 135.713 125.216 136.147 125.323 136.7H124.213C124.146 136.46 124.009 136.27 123.803 136.13C123.603 135.99 123.346 135.92 123.033 135.92C122.806 135.92 122.589 135.98 122.383 136.1C122.183 136.22 122.019 136.4 121.893 136.64C121.773 136.873 121.713 137.167 121.713 137.52C121.713 137.867 121.773 138.16 121.893 138.4C122.019 138.64 122.183 138.823 122.383 138.95C122.589 139.07 122.806 139.13 123.033 139.13C123.353 139.13 123.609 139.06 123.803 138.92C123.996 138.78 124.133 138.587 124.213 138.34H125.323C125.189 138.887 124.929 139.32 124.543 139.64C124.156 139.96 123.656 140.12 123.043 140.12ZM128.969 140.12C128.495 140.12 128.072 140.013 127.699 139.8C127.325 139.587 127.032 139.287 126.819 138.9C126.605 138.507 126.499 138.047 126.499 137.52C126.499 136.993 126.605 136.537 126.819 136.15C127.032 135.757 127.325 135.453 127.699 135.24C128.072 135.027 128.499 134.92 128.979 134.92C129.459 134.92 129.882 135.027 130.249 135.24C130.622 135.453 130.912 135.757 131.119 136.15C131.332 136.537 131.439 136.993 131.439 137.52C131.439 138.047 131.332 138.507 131.119 138.9C130.905 139.287 130.612 139.587 130.239 139.8C129.872 140.013 129.449 140.12 128.969 140.12ZM128.969 139.11C129.222 139.11 129.455 139.053 129.669 138.94C129.882 138.827 130.052 138.653 130.179 138.42C130.312 138.18 130.379 137.88 130.379 137.52C130.379 137.153 130.312 136.853 130.179 136.62C130.052 136.387 129.882 136.213 129.669 136.1C129.462 135.987 129.232 135.93 128.979 135.93C128.725 135.93 128.492 135.987 128.279 136.1C128.065 136.213 127.892 136.387 127.759 136.62C127.632 136.853 127.569 137.153 127.569 137.52C127.569 138.067 127.705 138.47 127.979 138.73C128.259 138.983 128.589 139.11 128.969 139.11ZM134.695 140.12C134.282 140.12 133.912 140.023 133.585 139.83C133.258 139.63 132.998 139.337 132.805 138.95C132.618 138.563 132.525 138.087 132.525 137.52C132.525 136.953 132.622 136.477 132.815 136.09C133.008 135.703 133.268 135.413 133.595 135.22C133.928 135.02 134.298 134.92 134.705 134.92C135.085 134.92 135.398 134.993 135.645 135.14C135.892 135.28 136.075 135.46 136.195 135.68V132.8H137.255V140H136.345L136.255 139.27H136.195C136.062 139.53 135.872 139.737 135.625 139.89C135.385 140.043 135.075 140.12 134.695 140.12ZM134.915 139.11C135.295 139.11 135.608 138.977 135.855 138.71C136.108 138.443 136.235 138.047 136.235 137.52C136.235 136.987 136.108 136.59 135.855 136.33C135.608 136.063 135.295 135.93 134.915 135.93C134.535 135.93 134.218 136.063 133.965 136.33C133.718 136.597 133.595 136.997 133.595 137.53C133.595 138.057 133.718 138.453 133.965 138.72C134.218 138.98 134.535 139.11 134.915 139.11ZM141.021 140.12C140.541 140.12 140.118 140.013 139.751 139.8C139.384 139.58 139.098 139.277 138.891 138.89C138.684 138.503 138.581 138.053 138.581 137.54C138.581 137.02 138.681 136.563 138.881 136.17C139.088 135.777 139.374 135.47 139.741 135.25C140.114 135.03 140.544 134.92 141.031 134.92C141.511 134.92 141.924 135.03 142.271 135.25C142.618 135.463 142.884 135.75 143.071 136.11C143.264 136.47 143.361 136.867 143.361 137.3C143.361 137.367 143.361 137.44 143.361 137.52C143.361 137.593 143.358 137.677 143.351 137.77H139.621C139.654 138.23 139.804 138.58 140.071 138.82C140.338 139.053 140.651 139.17 141.011 139.17C141.324 139.17 141.571 139.107 141.751 138.98C141.938 138.847 142.074 138.667 142.161 138.44H143.231C143.111 138.913 142.861 139.313 142.481 139.64C142.101 139.96 141.614 140.12 141.021 140.12ZM141.021 135.84C140.694 135.84 140.404 135.94 140.151 136.14C139.898 136.333 139.734 136.607 139.661 136.96H142.301C142.274 136.627 142.144 136.357 141.911 136.15C141.678 135.943 141.381 135.84 141.021 135.84Z"
        fill="var(--color-text-base)"
        fill-opacity="0.6"
    />
    <path
        d="M165.75 175V168H168.04C168.587 168 169.037 168.093 169.39 168.28C169.75 168.467 170.017 168.72 170.19 169.04C170.37 169.353 170.46 169.71 170.46 170.11C170.46 170.563 170.343 170.967 170.11 171.32C169.883 171.667 169.533 171.92 169.06 172.08L170.53 175H169.3L167.96 172.23H166.81V175H165.75ZM166.81 171.27H167.98C168.46 171.27 168.81 171.163 169.03 170.95C169.257 170.737 169.37 170.457 169.37 170.11C169.37 169.757 169.26 169.477 169.04 169.27C168.82 169.057 168.463 168.95 167.97 168.95H166.81V171.27ZM174.056 175.12C173.576 175.12 173.153 175.013 172.786 174.8C172.419 174.58 172.133 174.277 171.926 173.89C171.719 173.503 171.616 173.053 171.616 172.54C171.616 172.02 171.716 171.563 171.916 171.17C172.123 170.777 172.409 170.47 172.776 170.25C173.149 170.03 173.579 169.92 174.066 169.92C174.546 169.92 174.959 170.03 175.306 170.25C175.653 170.463 175.919 170.75 176.106 171.11C176.299 171.47 176.396 171.867 176.396 172.3C176.396 172.367 176.396 172.44 176.396 172.52C176.396 172.593 176.393 172.677 176.386 172.77H172.656C172.689 173.23 172.839 173.58 173.106 173.82C173.373 174.053 173.686 174.17 174.046 174.17C174.359 174.17 174.606 174.107 174.786 173.98C174.973 173.847 175.109 173.667 175.196 173.44H176.266C176.146 173.913 175.896 174.313 175.516 174.64C175.136 174.96 174.649 175.12 174.056 175.12ZM174.056 170.84C173.729 170.84 173.439 170.94 173.186 171.14C172.933 171.333 172.769 171.607 172.696 171.96H175.336C175.309 171.627 175.179 171.357 174.946 171.15C174.713 170.943 174.416 170.84 174.056 170.84ZM179.542 175.12C179.149 175.12 178.819 175.053 178.552 174.92C178.286 174.78 178.086 174.597 177.952 174.37C177.819 174.137 177.752 173.883 177.752 173.61C177.752 173.123 177.929 172.743 178.282 172.47C178.642 172.197 179.149 172.06 179.802 172.06H181.082V171.95C181.082 171.203 180.736 170.83 180.042 170.83C179.756 170.83 179.512 170.893 179.312 171.02C179.119 171.14 178.989 171.337 178.922 171.61H177.862C177.916 171.09 178.139 170.68 178.532 170.38C178.932 170.073 179.436 169.92 180.042 169.92C180.776 169.92 181.309 170.1 181.642 170.46C181.976 170.82 182.142 171.317 182.142 171.95V175H181.242L181.152 174.27H181.082C180.936 174.503 180.752 174.703 180.532 174.87C180.312 175.037 179.982 175.12 179.542 175.12ZM179.742 174.23C180.176 174.23 180.499 174.1 180.712 173.84C180.932 173.573 181.052 173.237 181.072 172.83H179.912C179.532 172.83 179.262 172.893 179.102 173.02C178.949 173.14 178.872 173.31 178.872 173.53C178.872 173.75 178.949 173.923 179.102 174.05C179.262 174.17 179.476 174.23 179.742 174.23ZM185.718 175.12C185.305 175.12 184.935 175.023 184.608 174.83C184.282 174.63 184.022 174.337 183.828 173.95C183.642 173.563 183.548 173.087 183.548 172.52C183.548 171.953 183.645 171.477 183.838 171.09C184.032 170.703 184.292 170.413 184.618 170.22C184.952 170.02 185.322 169.92 185.728 169.92C186.108 169.92 186.422 169.993 186.668 170.14C186.915 170.28 187.098 170.46 187.218 170.68V167.8H188.278V175H187.368L187.278 174.27H187.218C187.085 174.53 186.895 174.737 186.648 174.89C186.408 175.043 186.098 175.12 185.718 175.12ZM185.938 174.11C186.318 174.11 186.632 173.977 186.878 173.71C187.132 173.443 187.258 173.047 187.258 172.52C187.258 171.987 187.132 171.59 186.878 171.33C186.632 171.063 186.318 170.93 185.938 170.93C185.558 170.93 185.242 171.063 184.988 171.33C184.742 171.597 184.618 171.997 184.618 172.53C184.618 173.057 184.742 173.453 184.988 173.72C185.242 173.98 185.558 174.11 185.938 174.11ZM195.23 175V170.04H196.11L196.2 170.62H196.25C196.337 170.413 196.47 170.247 196.65 170.12C196.83 169.987 197.044 169.92 197.29 169.92C197.53 169.92 197.74 169.98 197.92 170.1C198.1 170.22 198.234 170.393 198.32 170.62H198.36C198.447 170.42 198.584 170.253 198.77 170.12C198.957 169.987 199.187 169.92 199.46 169.92C199.827 169.92 200.104 170.04 200.29 170.28C200.484 170.52 200.58 170.857 200.58 171.29V175H199.56V171.5C199.56 171.3 199.517 171.143 199.43 171.03C199.35 170.91 199.22 170.85 199.04 170.85C198.86 170.85 198.71 170.92 198.59 171.06C198.477 171.2 198.42 171.397 198.42 171.65V175H197.39V171.5C197.39 171.3 197.35 171.143 197.27 171.03C197.19 170.91 197.06 170.85 196.88 170.85C196.7 170.85 196.55 170.92 196.43 171.06C196.31 171.2 196.25 171.397 196.25 171.65V175H195.23ZM203.977 175.12C203.503 175.12 203.08 175.013 202.707 174.8C202.333 174.587 202.04 174.287 201.827 173.9C201.613 173.507 201.507 173.047 201.507 172.52C201.507 171.993 201.613 171.537 201.827 171.15C202.04 170.757 202.333 170.453 202.707 170.24C203.08 170.027 203.507 169.92 203.987 169.92C204.467 169.92 204.89 170.027 205.257 170.24C205.63 170.453 205.92 170.757 206.127 171.15C206.34 171.537 206.447 171.993 206.447 172.52C206.447 173.047 206.34 173.507 206.127 173.9C205.913 174.287 205.62 174.587 205.247 174.8C204.88 175.013 204.457 175.12 203.977 175.12ZM203.977 174.11C204.23 174.11 204.463 174.053 204.677 173.94C204.89 173.827 205.06 173.653 205.187 173.42C205.32 173.18 205.387 172.88 205.387 172.52C205.387 172.153 205.32 171.853 205.187 171.62C205.06 171.387 204.89 171.213 204.677 171.1C204.47 170.987 204.24 170.93 203.987 170.93C203.733 170.93 203.5 170.987 203.287 171.1C203.073 171.213 202.9 171.387 202.767 171.62C202.64 171.853 202.577 172.153 202.577 172.52C202.577 173.067 202.713 173.47 202.987 173.73C203.267 173.983 203.597 174.11 203.977 174.11ZM207.743 175V174.08H208.953V171.29C208.953 171.07 208.846 170.96 208.633 170.96H207.843V170.04H209.033C209.306 170.04 209.529 170.12 209.703 170.28C209.876 170.433 209.963 170.65 209.963 170.93V171.05H210.013C210.086 170.677 210.243 170.397 210.483 170.21C210.729 170.017 211.086 169.92 211.553 169.92H212.323V171.04H211.243C210.849 171.04 210.546 171.177 210.333 171.45C210.119 171.723 210.013 172.05 210.013 172.43V174.08H211.553V175H207.743ZM216.029 175.12C215.549 175.12 215.125 175.013 214.759 174.8C214.392 174.58 214.105 174.277 213.899 173.89C213.692 173.503 213.589 173.053 213.589 172.54C213.589 172.02 213.689 171.563 213.889 171.17C214.095 170.777 214.382 170.47 214.749 170.25C215.122 170.03 215.552 169.92 216.039 169.92C216.519 169.92 216.932 170.03 217.279 170.25C217.625 170.463 217.892 170.75 218.079 171.11C218.272 171.47 218.369 171.867 218.369 172.3C218.369 172.367 218.369 172.44 218.369 172.52C218.369 172.593 218.365 172.677 218.359 172.77H214.629C214.662 173.23 214.812 173.58 215.079 173.82C215.345 174.053 215.659 174.17 216.019 174.17C216.332 174.17 216.579 174.107 216.759 173.98C216.945 173.847 217.082 173.667 217.169 173.44H218.239C218.119 173.913 217.869 174.313 217.489 174.64C217.109 174.96 216.622 175.12 216.029 175.12ZM216.029 170.84C215.702 170.84 215.412 170.94 215.159 171.14C214.905 171.333 214.742 171.607 214.669 171.96H217.309C217.282 171.627 217.152 171.357 216.919 171.15C216.685 170.943 216.389 170.84 216.029 170.84Z"
        fill="var(--color-text-base)"
    />
    <path d="M160 172L152.5 175.464V168.536L160 172Z" fill="var(--color-text-base)" />
    <defs>
        <filter
            id="filter0_d_17_44"
            x="66"
            y="7"
            width="172"
            height="189"
            filterUnits="userSpaceOnUse"
            color-interpolation-filters="sRGB"
        >
            <feFlood flood-opacity="0" result="BackgroundImageFix" />
            <feColorMatrix
                in="SourceAlpha"
                type="matrix"
                values="0 0 0 0 0 0 0 0 0 0 0 0 0 0 0 0 0 0 127 0"
                result="hardAlpha"
            />
            <feOffset dx="2" dy="2" />
            <feGaussianBlur stdDeviation="4" />
            <feComposite in2="hardAlpha" operator="out" />
            <feColorMatrix type="matrix" values="0 0 0 0 0.705882 0 0 0 0 0.745098 0 0 0 0 0.823529 0 0 0 1 0" />
            <feBlend mode="normal" in2="BackgroundImageFix" result="effect1_dropShadow_17_44" />
            <feBlend mode="normal" in="SourceGraphic" in2="effect1_dropShadow_17_44" result="shape" />
        </filter>
    </defs>
</svg>
