<svg xmlns="http://www.w3.org/2000/svg" fill="none" viewBox="0 0 300 200">
    <path
        fill="var(--color-text-muted)"
        d="M114.337 70v-9.8h2.058c1.606 0 2.791.439 3.556 1.316.775.877 1.162 2.072 1.162 3.584s-.387 2.707-1.162 3.584c-.765.877-1.95 1.316-3.556 1.316h-2.058Zm1.176-1.078h.854c.859 0 1.545-.159 2.058-.476.523-.317.901-.76 1.134-1.33.234-.57.35-1.241.35-2.016 0-.775-.116-1.447-.35-2.016a2.723 2.723 0 0 0-1.134-1.33c-.513-.317-1.199-.476-2.058-.476h-.854v7.644Zm10.411-7.098a.95.95 0 0 1-.7-.28.915.915 0 0 1-.28-.672c0-.27.093-.495.28-.672a.95.95 0 0 1 .7-.28c.271 0 .499.093.686.28a.867.867 0 0 1 .294.672.895.895 0 0 1-.294.672.933.933 0 0 1-.686.28ZM123.208 70v-1.008h2.212v-4.578c0-.233-.117-.35-.35-.35h-1.624v-1.008h1.904c.831 0 1.246.415 1.246 1.246v4.69h2.212V70h-5.6Zm11.264.168c-.886 0-1.605-.205-2.156-.616-.541-.42-.844-.994-.91-1.722h1.218a1.4 1.4 0 0 0 .56.938c.327.243.766.364 1.316.364.523 0 .91-.112 1.162-.336.262-.224.392-.48.392-.77 0-.392-.154-.658-.462-.798-.308-.15-.77-.261-1.386-.336-.737-.084-1.348-.285-1.834-.602-.485-.317-.728-.793-.728-1.428 0-.57.238-1.04.714-1.414.476-.373 1.125-.56 1.946-.56.812 0 1.452.187 1.918.56.467.364.733.887.798 1.568h-1.162c-.028-.336-.191-.602-.49-.798-.289-.205-.653-.308-1.092-.308-.457 0-.812.089-1.064.266-.252.168-.378.392-.378.672s.14.513.42.7c.29.177.742.294 1.358.35.486.056.929.15 1.33.28.402.13.719.336.952.616.243.28.364.672.364 1.176.01.42-.107.798-.35 1.134-.233.327-.56.588-.98.784-.42.187-.905.28-1.456.28Zm5.217 2.912V63.056h.952l.14 1.148h.084c.177-.373.462-.686.854-.938.392-.252.854-.378 1.386-.378.56 0 1.064.14 1.512.42.457.28.817.695 1.078 1.246.261.541.392 1.204.392 1.988 0 .775-.135 1.433-.406 1.974-.261.541-.625.952-1.092 1.232-.457.28-.985.42-1.582.42-.532 0-.985-.112-1.358-.336-.364-.233-.625-.504-.784-.812v4.06h-1.176Zm3.178-4.032c.588 0 1.073-.205 1.456-.616.383-.42.574-1.055.574-1.904 0-.85-.191-1.48-.574-1.89-.383-.42-.868-.63-1.456-.63s-1.073.21-1.456.63c-.383.41-.574 1.04-.574 1.89 0 .85.191 1.484.574 1.904.383.41.868.616 1.456.616Zm5.174.952v-1.008h2.366v-7.714c0-.233-.116-.35-.35-.35h-1.764V59.92h2.044c.402 0 .71.107.924.322.215.215.322.523.322.924v7.826h2.366V70h-5.908Zm10.957.168c-.551 0-1.008-.098-1.372-.294a1.965 1.965 0 0 1-.812-.77 2.198 2.198 0 0 1-.266-1.064c0-.71.257-1.246.77-1.61.523-.373 1.218-.56 2.086-.56h1.904v-.14c0-1.213-.555-1.82-1.666-1.82-.448 0-.826.098-1.134.294-.299.196-.49.504-.574.924h-1.204c.047-.467.201-.868.462-1.204a2.608 2.608 0 0 1 1.036-.77c.42-.177.891-.266 1.414-.266.989 0 1.708.261 2.156.784.457.513.686 1.2.686 2.058V70h-1.008l-.098-1.078h-.098c-.205.336-.481.63-.826.882-.336.243-.821.364-1.456.364Zm.21-1.036c.448 0 .826-.107 1.134-.322.317-.215.555-.5.714-.854a2.68 2.68 0 0 0 .252-1.162h-1.806c-.635 0-1.083.107-1.344.322-.252.215-.378.5-.378.854 0 .364.121.649.364.854.243.205.597.308 1.064.308Zm6.659 3.948 1.708-3.752h-.406l-2.744-6.272h1.274l2.282 5.376 2.408-5.376h1.232l-4.522 10.024h-1.232Zm10.424-11.256a.95.95 0 0 1-.7-.28.915.915 0 0 1-.28-.672c0-.27.093-.495.28-.672a.95.95 0 0 1 .7-.28c.271 0 .499.093.686.28a.867.867 0 0 1 .294.672.895.895 0 0 1-.294.672.933.933 0 0 1-.686.28ZM173.575 70v-1.008h2.212v-4.578c0-.233-.117-.35-.35-.35h-1.624v-1.008h1.904c.831 0 1.246.415 1.246 1.246v4.69h2.212V70h-5.6Zm8.227 0v-6.944h.98l.126 1.05h.07c.186-.336.48-.62.882-.854.401-.243.863-.364 1.386-.364.849 0 1.484.252 1.904.756.429.504.644 1.232.644 2.184V70h-1.176v-4.032c0-.616-.136-1.097-.406-1.442-.271-.355-.691-.532-1.26-.532-.551 0-1.018.191-1.4.574-.383.373-.574.915-.574 1.624V70h-1.176Zm11.236-2.044a3.07 3.07 0 0 1-1.302-.266l-.476.574c-.103.14-.131.28-.084.42.056.13.191.196.406.196h1.834c.831 0 1.503.163 2.016.49.513.317.77.826.77 1.526a2.2 2.2 0 0 1-.322 1.162c-.215.355-.555.64-1.022.854-.457.224-1.059.336-1.806.336-.971 0-1.75-.182-2.338-.546-.588-.364-.882-.92-.882-1.666 0-.27.065-.523.196-.756.14-.224.313-.425.518-.602a1.09 1.09 0 0 1-.504-.756c-.056-.336.047-.667.308-.994l.63-.784c-.448-.467-.672-1.04-.672-1.722 0-.448.107-.863.322-1.246.215-.392.523-.705.924-.938.411-.233.905-.35 1.484-.35.373 0 .719.056 1.036.168h2.604v.882l-1.302.042v.098c.243.401.364.85.364 1.344 0 .448-.107.868-.322 1.26a2.31 2.31 0 0 1-.924.924c-.401.233-.887.35-1.456.35Zm0-1.008c.457 0 .831-.135 1.12-.406.299-.27.448-.644.448-1.12 0-.476-.149-.845-.448-1.106-.289-.27-.663-.406-1.12-.406-.467 0-.849.135-1.148.406-.299.261-.448.63-.448 1.106 0 .476.149.85.448 1.12.299.27.681.406 1.148.406Zm-2.044 4.046c0 .41.191.719.574.924.383.205.877.308 1.484.308.588 0 1.064-.117 1.428-.35.373-.233.56-.546.56-.938 0-.308-.131-.57-.392-.784-.261-.205-.742-.308-1.442-.308h-1.582c-.42.308-.63.69-.63 1.148Zm18.721-.826c-.588 0-1.115-.14-1.582-.42-.457-.28-.816-.69-1.078-1.232-.261-.55-.392-1.218-.392-2.002 0-.775.131-1.433.392-1.974.262-.541.621-.952 1.078-1.232.467-.28.994-.42 1.582-.42.551 0 1.004.107 1.358.322.364.215.635.495.812.84v-4.13h1.176V70h-.966l-.126-1.078h-.084a2.156 2.156 0 0 1-.826.91c-.364.224-.812.336-1.344.336Zm.154-1.12c.588 0 1.074-.205 1.456-.616.383-.42.574-1.055.574-1.904 0-.85-.191-1.48-.574-1.89-.382-.42-.868-.63-1.456-.63s-1.073.21-1.456.63c-.373.41-.56 1.04-.56 1.89 0 .85.187 1.484.56 1.904.383.41.868.616 1.456.616Zm7.891 1.12c-.551 0-1.008-.098-1.372-.294a1.965 1.965 0 0 1-.812-.77 2.187 2.187 0 0 1-.266-1.064c0-.71.256-1.246.77-1.61.522-.373 1.218-.56 2.086-.56h1.904v-.14c0-1.213-.556-1.82-1.666-1.82-.448 0-.826.098-1.134.294-.299.196-.49.504-.574.924h-1.204c.046-.467.2-.868.462-1.204.27-.336.616-.593 1.036-.77.42-.177.891-.266 1.414-.266.989 0 1.708.261 2.156.784.457.513.686 1.2.686 2.058V70h-1.008l-.098-1.078h-.098c-.206.336-.481.63-.826.882-.336.243-.822.364-1.456.364Zm.21-1.036c.448 0 .826-.107 1.134-.322.317-.215.555-.5.714-.854a2.68 2.68 0 0 0 .252-1.162h-1.806c-.635 0-1.083.107-1.344.322-.252.215-.378.5-.378.854 0 .364.121.649.364.854.242.205.597.308 1.064.308Zm9.5.868c-.634 0-1.134-.154-1.498-.462-.364-.308-.546-.863-.546-1.666v-3.808h-1.764v-1.008h1.05c.476 0 .752-.233.826-.7l.196-1.078h.868v1.778h2.772v1.008h-2.772v3.808c0 .392.089.667.266.826.187.159.504.238.952.238h1.554V70h-1.904Zm7.079.168c-.551 0-1.008-.098-1.372-.294a1.965 1.965 0 0 1-.812-.77 2.187 2.187 0 0 1-.266-1.064c0-.71.256-1.246.77-1.61.522-.373 1.218-.56 2.086-.56h1.904v-.14c0-1.213-.556-1.82-1.666-1.82-.448 0-.826.098-1.134.294-.299.196-.49.504-.574.924h-1.204c.046-.467.2-.868.462-1.204.27-.336.616-.593 1.036-.77.42-.177.891-.266 1.414-.266.989 0 1.708.261 2.156.784.457.513.686 1.2.686 2.058V70h-1.008l-.098-1.078h-.098c-.206.336-.481.63-.826.882-.336.243-.822.364-1.456.364Zm.21-1.036c.448 0 .826-.107 1.134-.322.317-.215.555-.5.714-.854a2.68 2.68 0 0 0 .252-1.162h-1.806c-.635 0-1.083.107-1.344.322-.252.215-.378.5-.378.854 0 .364.121.649.364.854.242.205.597.308 1.064.308ZM117.613 88.168c-.653 0-1.232-.15-1.736-.448a3.168 3.168 0 0 1-1.19-1.26c-.289-.55-.434-1.195-.434-1.932 0-.737.145-1.377.434-1.918.29-.55.686-.975 1.19-1.274.504-.299 1.083-.448 1.736-.448.654 0 1.232.15 1.736.448.504.299.901.723 1.19 1.274.29.541.434 1.18.434 1.918 0 .737-.144 1.381-.434 1.932a3.161 3.161 0 0 1-1.19 1.26c-.504.299-1.082.448-1.736.448Zm0-1.12c.402 0 .766-.089 1.092-.266.327-.177.584-.453.77-.826.196-.373.294-.85.294-1.428 0-.579-.098-1.055-.294-1.428a1.838 1.838 0 0 0-.77-.826 2.248 2.248 0 0 0-1.092-.266c-.392 0-.751.089-1.078.266a1.927 1.927 0 0 0-.784.826c-.196.373-.294.85-.294 1.428 0 .868.21 1.507.63 1.918.42.401.929.602 1.526.602Zm5.371.952v-1.008h1.778v-4.578c0-.233-.112-.35-.336-.35h-1.26v-1.008h1.694c.308 0 .555.084.742.252.187.168.28.415.28.742v.294h.056c.112-.467.322-.826.63-1.078.317-.252.756-.378 1.316-.378h1.274v1.246h-1.442c-.569 0-1.008.191-1.316.574-.308.373-.462.854-.462 1.442v2.842h2.184V88h-5.138Zm19.575.168c-.588 0-1.115-.14-1.582-.42-.457-.28-.817-.69-1.078-1.232-.261-.55-.392-1.218-.392-2.002 0-.775.131-1.433.392-1.974.261-.541.621-.952 1.078-1.232.467-.28.994-.42 1.582-.42.551 0 1.003.107 1.358.322.364.215.635.495.812.84v-4.13h1.176V88h-.966l-.126-1.078h-.084a2.162 2.162 0 0 1-.826.91c-.364.224-.812.336-1.344.336Zm.154-1.12c.588 0 1.073-.205 1.456-.616.383-.42.574-1.055.574-1.904 0-.85-.191-1.48-.574-1.89-.383-.42-.868-.63-1.456-.63s-1.073.21-1.456.63c-.373.41-.56 1.04-.56 1.89 0 .85.187 1.484.56 1.904.383.41.868.616 1.456.616Zm8.548 1.12c-.653 0-1.232-.15-1.736-.448a3.309 3.309 0 0 1-1.176-1.274c-.289-.55-.434-1.19-.434-1.918s.14-1.363.42-1.904c.29-.55.686-.975 1.19-1.274.504-.308 1.092-.462 1.764-.462.672 0 1.246.154 1.722.462.476.299.84.695 1.092 1.19a3.466 3.466 0 0 1 .364 1.904v.35h-5.39c.028.513.145.943.35 1.288.215.336.481.588.798.756.327.168.672.252 1.036.252.514 0 .915-.107 1.204-.322a1.97 1.97 0 0 0 .658-.896h1.162a3.153 3.153 0 0 1-.994 1.638c-.504.439-1.18.658-2.03.658Zm0-6.23c-.541 0-1.017.163-1.428.49-.401.327-.648.784-.742 1.372h4.228c-.037-.579-.247-1.031-.63-1.358-.373-.336-.849-.504-1.428-.504Zm5.413 9.142v-1.078h.854c.355 0 .607-.07.756-.21.149-.14.224-.387.224-.742v-6.986h-1.722v-1.008h1.722V79.95c0-.719.173-1.237.518-1.554.345-.317.868-.476 1.568-.476h1.666v1.064h-1.596c-.345 0-.597.075-.756.224-.149.14-.224.387-.224.742v1.106h2.576v1.008h-2.576v6.986c0 .719-.173 1.237-.518 1.554-.345.317-.863.476-1.554.476h-.938Zm11.223-11.256a.949.949 0 0 1-.7-.28.915.915 0 0 1-.28-.672c0-.27.093-.495.28-.672a.949.949 0 0 1 .7-.28c.27 0 .499.093.686.28a.867.867 0 0 1 .294.672.895.895 0 0 1-.294.672.934.934 0 0 1-.686.28ZM165.181 88v-1.008h2.212v-4.578c0-.233-.117-.35-.35-.35h-1.624v-1.008h1.904c.83 0 1.246.415 1.246 1.246v4.69h2.212V88h-5.6Zm8.226 0v-6.944h.98l.126 1.05h.07c.187-.336.481-.62.882-.854.401-.243.863-.364 1.386-.364.849 0 1.484.252 1.904.756.429.504.644 1.232.644 2.184V88h-1.176v-4.032c0-.616-.135-1.097-.406-1.442-.271-.355-.691-.532-1.26-.532-.551 0-1.017.191-1.4.574-.383.373-.574.915-.574 1.624V88h-1.176Zm11.279-8.176a.949.949 0 0 1-.7-.28.915.915 0 0 1-.28-.672c0-.27.093-.495.28-.672a.949.949 0 0 1 .7-.28c.27 0 .499.093.686.28a.867.867 0 0 1 .294.672.895.895 0 0 1-.294.672.934.934 0 0 1-.686.28ZM181.97 88v-1.008h2.212v-4.578c0-.233-.117-.35-.35-.35h-1.624v-1.008h1.904c.83 0 1.246.415 1.246 1.246v4.69h2.212V88h-5.6Zm11.922 0c-.635 0-1.134-.154-1.498-.462-.364-.308-.546-.863-.546-1.666v-3.808h-1.764v-1.008h1.05c.476 0 .751-.233.826-.7l.196-1.078h.868v1.778h2.772v1.008h-2.772v3.808c0 .392.089.667.266.826.187.159.504.238.952.238h1.554V88h-1.904Zm7.583-8.176a.949.949 0 0 1-.7-.28.915.915 0 0 1-.28-.672c0-.27.093-.495.28-.672a.949.949 0 0 1 .7-.28c.27 0 .499.093.686.28a.867.867 0 0 1 .294.672.895.895 0 0 1-.294.672.934.934 0 0 1-.686.28ZM198.759 88v-1.008h2.212v-4.578c0-.233-.117-.35-.35-.35h-1.624v-1.008h1.904c.83 0 1.246.415 1.246 1.246v4.69h2.212V88h-5.6Zm11.194.168c-.653 0-1.232-.15-1.736-.448a3.168 3.168 0 0 1-1.19-1.26c-.289-.55-.434-1.195-.434-1.932 0-.737.145-1.377.434-1.918.29-.55.686-.975 1.19-1.274.504-.299 1.083-.448 1.736-.448.654 0 1.232.15 1.736.448.504.299.901.723 1.19 1.274.29.541.434 1.18.434 1.918 0 .737-.144 1.381-.434 1.932a3.161 3.161 0 0 1-1.19 1.26c-.504.299-1.082.448-1.736.448Zm0-1.12c.402 0 .766-.089 1.092-.266.327-.177.584-.453.77-.826.196-.373.294-.85.294-1.428 0-.579-.098-1.055-.294-1.428a1.838 1.838 0 0 0-.77-.826 2.248 2.248 0 0 0-1.092-.266c-.392 0-.751.089-1.078.266a1.927 1.927 0 0 0-.784.826c-.196.373-.294.85-.294 1.428 0 .868.21 1.507.63 1.918.42.401.929.602 1.526.602Zm5.427.952v-6.944h.98l.126 1.05h.07c.186-.336.48-.62.882-.854.401-.243.863-.364 1.386-.364.849 0 1.484.252 1.904.756.429.504.644 1.232.644 2.184V88h-1.176v-4.032c0-.616-.136-1.097-.406-1.442-.271-.355-.691-.532-1.26-.532-.551 0-1.018.191-1.4.574-.383.373-.574.915-.574 1.624V88h-1.176Zm11.432.168c-.886 0-1.605-.205-2.156-.616-.541-.42-.844-.994-.91-1.722h1.218a1.4 1.4 0 0 0 .56.938c.327.243.766.364 1.316.364.523 0 .91-.112 1.162-.336.262-.224.392-.48.392-.77 0-.392-.154-.658-.462-.798-.308-.15-.77-.261-1.386-.336-.737-.084-1.348-.285-1.834-.602-.485-.317-.728-.793-.728-1.428 0-.57.238-1.04.714-1.414.476-.373 1.125-.56 1.946-.56.812 0 1.452.187 1.918.56.467.364.733.887.798 1.568h-1.162c-.028-.336-.191-.602-.49-.798-.289-.205-.653-.308-1.092-.308-.457 0-.812.089-1.064.266-.252.168-.378.392-.378.672s.14.513.42.7c.29.177.742.294 1.358.35.486.056.929.15 1.33.28.402.13.719.336.952.616.243.28.364.672.364 1.176.01.42-.107.798-.35 1.134-.233.327-.56.588-.98.784-.42.187-.905.28-1.456.28Z"
    />
    <path
        fill="var(--color-text-base)"
        d="M42.172 70.168c-.663 0-1.255-.135-1.778-.406-.513-.27-.92-.681-1.218-1.232-.299-.56-.448-1.265-.448-2.114V60.2h1.484v6.3c0 .747.177 1.325.532 1.736.355.401.84.602 1.456.602s1.101-.2 1.456-.602c.355-.41.532-.99.532-1.736v-6.3h1.484v6.216c0 .85-.154 1.554-.462 2.114-.308.55-.728.961-1.26 1.232-.523.27-1.115.406-1.778.406Zm8.479 0c-.915 0-1.643-.215-2.184-.644-.542-.43-.85-.999-.925-1.708h1.526c.056.327.22.593.49.798.28.205.65.308 1.106.308.44 0 .775-.089 1.008-.266.243-.187.364-.401.364-.644 0-.355-.144-.597-.434-.728-.28-.13-.695-.229-1.245-.294a5.02 5.02 0 0 1-1.303-.322 2.345 2.345 0 0 1-.91-.672c-.224-.29-.335-.649-.335-1.078 0-.607.238-1.097.714-1.47.475-.373 1.138-.56 1.987-.56.85 0 1.508.191 1.974.574.467.383.738.905.813 1.568h-1.428a.888.888 0 0 0-.434-.658c-.253-.168-.565-.252-.939-.252-.382 0-.686.075-.91.224-.224.14-.335.327-.335.56 0 .504.54.812 1.623.924.514.056.971.154 1.372.294.402.13.72.34.953.63.233.28.35.677.35 1.19.009.42-.112.798-.364 1.134-.243.336-.584.602-1.023.798-.429.196-.933.294-1.511.294Zm8.422 0c-.672 0-1.265-.15-1.778-.448a3.23 3.23 0 0 1-1.204-1.274c-.29-.541-.434-1.171-.434-1.89 0-.728.14-1.367.42-1.918.29-.55.69-.98 1.204-1.288.523-.308 1.125-.462 1.806-.462.672 0 1.25.154 1.736.462.485.299.859.7 1.12 1.204.27.504.406 1.06.406 1.666v.308c0 .103-.005.22-.014.35h-5.222c.047.644.257 1.134.63 1.47.373.327.812.49 1.316.49.439 0 .784-.089 1.036-.266.261-.187.453-.439.574-.756h1.498a3.212 3.212 0 0 1-1.05 1.68c-.532.448-1.213.672-2.044.672Zm0-5.992c-.457 0-.863.14-1.218.42-.355.27-.583.653-.686 1.148h3.696c-.037-.467-.22-.845-.546-1.134-.327-.29-.742-.434-1.246-.434Z"
    />
    <path fill="var(--color-border-base)" d="M38 100h224v1H38z" />
    <path
        fill="var(--color-text-muted)"
        d="M114.799 123v-1.022h2.226v-7.756h-2.226V113.2h5.628v1.022h-2.226v7.756h2.226V123h-5.628Zm11.937 0c-.635 0-1.134-.154-1.498-.462-.364-.308-.546-.863-.546-1.666v-3.808h-1.764v-1.008h1.05c.476 0 .751-.233.826-.7l.196-1.078h.868v1.778h2.772v1.008h-2.772v3.808c0 .392.089.667.266.826.187.159.504.238.952.238h1.554V123h-1.904Zm6.588-5.88.938-3.92h1.512l-1.386 3.92h-1.064Zm9.543 6.048c-.887 0-1.605-.205-2.156-.616-.541-.42-.845-.994-.91-1.722h1.218a1.4 1.4 0 0 0 .56.938c.327.243.765.364 1.316.364.523 0 .91-.112 1.162-.336.261-.224.392-.481.392-.77 0-.392-.154-.658-.462-.798-.308-.149-.77-.261-1.386-.336-.737-.084-1.349-.285-1.834-.602-.485-.317-.728-.793-.728-1.428 0-.569.238-1.041.714-1.414s1.125-.56 1.946-.56c.812 0 1.451.187 1.918.56.467.364.733.887.798 1.568h-1.162c-.028-.336-.191-.602-.49-.798-.289-.205-.653-.308-1.092-.308-.457 0-.812.089-1.064.266-.252.168-.378.392-.378.672s.14.513.42.7c.289.177.742.294 1.358.35.485.056.929.149 1.33.28.401.131.719.336.952.616.243.28.364.672.364 1.176.009.42-.107.798-.35 1.134-.233.327-.56.588-.98.784-.42.187-.905.28-1.456.28Zm16.131 0c-.551 0-1.008-.098-1.372-.294a1.967 1.967 0 0 1-.812-.77 2.198 2.198 0 0 1-.266-1.064c0-.709.257-1.246.77-1.61.523-.373 1.218-.56 2.086-.56h1.904v-.14c0-1.213-.555-1.82-1.666-1.82-.448 0-.826.098-1.134.294-.299.196-.49.504-.574.924h-1.204c.047-.467.201-.868.462-1.204a2.605 2.605 0 0 1 1.036-.77c.42-.177.891-.266 1.414-.266.989 0 1.708.261 2.156.784.457.513.686 1.199.686 2.058V123h-1.008l-.098-1.078h-.098c-.205.336-.481.63-.826.882-.336.243-.821.364-1.456.364Zm.21-1.036c.448 0 .826-.107 1.134-.322.317-.215.555-.499.714-.854a2.68 2.68 0 0 0 .252-1.162h-1.806c-.635 0-1.083.107-1.344.322-.252.215-.378.499-.378.854 0 .364.121.649.364.854.243.205.597.308 1.064.308Zm17.405 1.036c-.532 0-.985-.107-1.358-.322a2.067 2.067 0 0 1-.812-.91h-.084l-.126 1.064h-.966v-10.08h1.176v4.13c.177-.308.453-.579.826-.812.383-.233.831-.35 1.344-.35.597 0 1.125.14 1.582.42.457.28.817.691 1.078 1.232.261.541.392 1.199.392 1.974 0 .784-.131 1.451-.392 2.002-.261.541-.625.952-1.092 1.232-.457.28-.98.42-1.568.42Zm-.154-1.12c.588 0 1.069-.205 1.442-.616.383-.42.574-1.055.574-1.904s-.191-1.479-.574-1.89c-.373-.42-.854-.63-1.442-.63s-1.073.21-1.456.63c-.383.411-.574 1.041-.574 1.89s.191 1.484.574 1.904c.383.411.868.616 1.456.616Zm8.227-7.224a.947.947 0 0 1-.7-.28.916.916 0 0 1-.28-.672c0-.271.093-.495.28-.672a.947.947 0 0 1 .7-.28c.27 0 .499.093.686.28a.866.866 0 0 1 .294.672.896.896 0 0 1-.294.672.933.933 0 0 1-.686.28ZM181.97 123v-1.008h2.212v-4.578c0-.233-.117-.35-.35-.35h-1.624v-1.008h1.904c.83 0 1.246.415 1.246 1.246v4.69h2.212V123h-5.6Zm11.922 0c-.635 0-1.134-.154-1.498-.462-.364-.308-.546-.863-.546-1.666v-3.808h-1.764v-1.008h1.05c.476 0 .751-.233.826-.7l.196-1.078h.868v1.778h2.772v1.008h-2.772v3.808c0 .392.089.667.266.826.187.159.504.238.952.238h1.554V123h-1.904Zm12.379 0v-6.944h.966l.126.812h.07c.122-.28.304-.513.546-.7.252-.187.556-.28.91-.28.355 0 .654.089.896.266.252.168.434.406.546.714h.056a1.64 1.64 0 0 1 .588-.7c.271-.187.598-.28.98-.28.532 0 .929.182 1.19.546.271.355.406.831.406 1.428V123h-1.148v-4.956c0-.336-.07-.602-.21-.798-.13-.196-.345-.294-.644-.294a.943.943 0 0 0-.756.35c-.196.233-.294.565-.294.994V123h-1.162v-4.956c0-.336-.065-.602-.196-.798-.13-.196-.345-.294-.644-.294a.985.985 0 0 0-.77.35c-.196.233-.294.565-.294.994V123h-1.162Zm12.077.168c-.654 0-1.232-.149-1.736-.448a3.165 3.165 0 0 1-1.19-1.26c-.29-.551-.434-1.195-.434-1.932 0-.737.144-1.377.434-1.918a3.139 3.139 0 0 1 1.19-1.274c.504-.299 1.082-.448 1.736-.448.653 0 1.232.149 1.736.448.504.299.9.723 1.19 1.274.289.541.434 1.181.434 1.918 0 .737-.145 1.381-.434 1.932-.29.541-.686.961-1.19 1.26-.504.299-1.083.448-1.736.448Zm0-1.12c.401 0 .765-.089 1.092-.266.326-.177.583-.453.77-.826.196-.373.294-.849.294-1.428s-.098-1.055-.294-1.428c-.187-.373-.444-.649-.77-.826a2.257 2.257 0 0 0-1.092-.266c-.392 0-.752.089-1.078.266-.327.177-.588.453-.784.826-.196.373-.294.849-.294 1.428 0 .868.21 1.507.63 1.918.42.401.928.602 1.526.602Zm5.37.952v-1.008h1.778v-4.578c0-.233-.112-.35-.336-.35h-1.26v-1.008h1.694c.308 0 .556.084.742.252.187.168.28.415.28.742v.294h.056c.112-.467.322-.826.63-1.078.318-.252.756-.378 1.316-.378h1.274v1.246h-1.442c-.569 0-1.008.191-1.316.574-.308.373-.462.854-.462 1.442v2.842h2.184V123h-5.138Zm11.489.168c-.654 0-1.232-.149-1.736-.448a3.296 3.296 0 0 1-1.176-1.274c-.29-.551-.434-1.19-.434-1.918s.14-1.363.42-1.904a3.139 3.139 0 0 1 1.19-1.274c.504-.308 1.092-.462 1.764-.462.672 0 1.246.154 1.722.462.476.299.84.695 1.092 1.19a3.468 3.468 0 0 1 .364 1.904v.35h-5.39c.028.513.144.943.35 1.288.214.336.48.588.798.756.326.168.672.252 1.036.252.513 0 .914-.107 1.204-.322.289-.215.508-.513.658-.896h1.162a3.16 3.16 0 0 1-.994 1.638c-.504.439-1.181.658-2.03.658Zm0-6.23c-.542 0-1.018.163-1.428.49-.402.327-.649.784-.742 1.372h4.228c-.038-.579-.248-1.031-.63-1.358-.374-.336-.85-.504-1.428-.504Zm-117.482 24.23a3.27 3.27 0 0 1-1.68-.434 3.134 3.134 0 0 1-1.162-1.246c-.289-.551-.434-1.204-.434-1.96s.145-1.405.434-1.946c.29-.551.682-.971 1.176-1.26a3.292 3.292 0 0 1 1.666-.434c.859 0 1.545.215 2.058.644.514.429.84 1.003.98 1.722h-1.204a1.642 1.642 0 0 0-.644-.91c-.317-.233-.718-.35-1.204-.35-.354 0-.69.093-1.008.28a2.052 2.052 0 0 0-.77.84c-.196.373-.294.845-.294 1.414s.098 1.045.294 1.428c.196.373.453.653.77.84.318.187.654.28 1.008.28.514 0 .92-.117 1.218-.35.308-.233.518-.541.63-.924h1.204c-.177.737-.527 1.316-1.05 1.736-.513.42-1.176.63-1.988.63Zm8.283 0c-.653 0-1.232-.149-1.736-.448a3.165 3.165 0 0 1-1.19-1.26c-.289-.551-.434-1.195-.434-1.932 0-.737.145-1.377.434-1.918a3.139 3.139 0 0 1 1.19-1.274c.504-.299 1.083-.448 1.736-.448s1.232.149 1.736.448c.504.299.901.723 1.19 1.274.289.541.434 1.181.434 1.918 0 .737-.145 1.381-.434 1.932a3.165 3.165 0 0 1-1.19 1.26c-.504.299-1.083.448-1.736.448Zm0-1.12c.401 0 .765-.089 1.092-.266.327-.177.583-.453.77-.826.196-.373.294-.849.294-1.428s-.098-1.055-.294-1.428c-.187-.373-.443-.649-.77-.826a2.257 2.257 0 0 0-1.092-.266c-.392 0-.751.089-1.078.266-.327.177-.588.453-.784.826-.196.373-.294.849-.294 1.428 0 .868.21 1.507.63 1.918.42.401.929.602 1.526.602Zm5.426.952v-6.944h.98l.126 1.05h.07c.187-.336.481-.621.882-.854.402-.243.864-.364 1.386-.364.85 0 1.484.252 1.904.756.43.504.644 1.232.644 2.184V141h-1.176v-4.032c0-.616-.135-1.097-.406-1.442-.27-.355-.69-.532-1.26-.532-.55 0-1.017.191-1.4.574-.382.373-.574.915-.574 1.624V141h-1.176Zm12.091 0c-.635 0-1.134-.154-1.498-.462-.364-.308-.546-.863-.546-1.666v-3.808h-1.764v-1.008h1.05c.476 0 .751-.233.826-.7l.196-1.078h.868v1.778h2.772v1.008h-2.772v3.808c0 .392.089.667.266.826.187.159.504.238.952.238h1.554V141h-1.904Zm7.736.168c-.653 0-1.232-.149-1.736-.448a3.311 3.311 0 0 1-1.176-1.274c-.289-.551-.434-1.19-.434-1.918s.14-1.363.42-1.904c.29-.551.686-.975 1.19-1.274.504-.308 1.092-.462 1.764-.462.672 0 1.246.154 1.722.462.476.299.84.695 1.092 1.19a3.468 3.468 0 0 1 .364 1.904v.35h-5.39c.028.513.145.943.35 1.288.215.336.481.588.798.756.327.168.672.252 1.036.252.514 0 .915-.107 1.204-.322a1.97 1.97 0 0 0 .658-.896h1.162a3.153 3.153 0 0 1-.994 1.638c-.504.439-1.18.658-2.03.658Zm0-6.23c-.541 0-1.017.163-1.428.49-.401.327-.648.784-.742 1.372h4.228c-.037-.579-.247-1.031-.63-1.358-.373-.336-.849-.504-1.428-.504Zm5.357 6.062v-6.944h.98l.126 1.05h.07c.187-.336.481-.621.882-.854.401-.243.863-.364 1.386-.364.849 0 1.484.252 1.904.756.429.504.644 1.232.644 2.184V141h-1.176v-4.032c0-.616-.135-1.097-.406-1.442-.271-.355-.691-.532-1.26-.532-.551 0-1.017.191-1.4.574-.383.373-.574.915-.574 1.624V141h-1.176Zm12.091 0c-.635 0-1.134-.154-1.498-.462-.364-.308-.546-.863-.546-1.666v-3.808h-1.764v-1.008h1.05c.476 0 .751-.233.826-.7l.196-1.078h.868v1.778h2.772v1.008h-2.772v3.808c0 .392.088.667.266.826.186.159.504.238.952.238h1.554V141h-1.904Z"
    />
    <path
        fill="var(--color-text-base)"
        d="m39.358 123-1.344-9.8h1.442l.812 7.126 1.204-7.126h1.456l1.204 7.126.812-7.126h1.442l-1.344 9.8H43.32l-1.12-6.93-1.12 6.93h-1.722Zm8.059 0v-10.08H48.9v4.172c.187-.345.486-.63.897-.854a2.76 2.76 0 0 1 1.386-.35c.858 0 1.511.261 1.96.784.447.513.672 1.255.672 2.226V123H52.33v-3.892c0-.579-.14-1.027-.42-1.344-.28-.317-.668-.476-1.163-.476-.513 0-.951.173-1.316.518-.354.345-.532.845-.532 1.498V123h-1.483Zm11.656.168c-.672 0-1.265-.149-1.778-.448a3.232 3.232 0 0 1-1.204-1.274c-.29-.541-.434-1.171-.434-1.89 0-.728.14-1.367.42-1.918.29-.551.69-.98 1.204-1.288.523-.308 1.125-.462 1.806-.462.672 0 1.25.154 1.736.462.485.299.859.7 1.12 1.204.27.504.406 1.059.406 1.666v.308c0 .103-.005.219-.014.35h-5.222c.047.644.257 1.134.63 1.47.373.327.812.49 1.316.49.439 0 .784-.089 1.036-.266.261-.187.453-.439.574-.756h1.498a3.21 3.21 0 0 1-1.05 1.68c-.532.448-1.213.672-2.044.672Zm0-5.992c-.457 0-.863.14-1.218.42-.355.271-.583.653-.686 1.148h3.696c-.037-.467-.22-.845-.546-1.134-.327-.289-.742-.434-1.246-.434ZM64.276 123v-6.944h1.288l.126 1.036h.07c.186-.336.476-.621.868-.854.392-.233.844-.35 1.358-.35.849 0 1.488.257 1.918.77.429.513.644 1.269.644 2.268V123h-1.484v-3.892c0-.579-.122-1.027-.364-1.344-.243-.317-.626-.476-1.148-.476-.514 0-.943.173-1.288.518-.336.345-.504.845-.504 1.498V123h-1.484Z"
    />
</svg>
