<svg xmlns="http://www.w3.org/2000/svg" fill="none" viewBox="0 0 300 200">
    <path
        fill="var(--color-text-base)"
        d="M38.602 94.5v-9.8h1.568l2.03 4.424 2.03-4.424h1.568v9.8h-1.414v-6.972l-1.596 3.5h-1.176l-1.596-3.486V94.5h-1.414Zm12.077.168c-.672 0-1.265-.15-1.779-.448a3.232 3.232 0 0 1-1.203-1.274c-.29-.541-.434-1.171-.434-1.89 0-.728.14-1.367.42-1.918.289-.55.69-.98 1.203-1.288.523-.308 1.125-.462 1.806-.462.672 0 1.251.154 1.736.462.486.299.86.7 1.12 1.204.271.504.407 1.06.407 1.666v.308c0 .103-.005.22-.014.35h-5.223c.047.644.257 1.134.63 1.47.374.327.813.49 1.316.49.44 0 .785-.089 1.036-.266.262-.187.453-.439.575-.756h1.498a3.212 3.212 0 0 1-1.05 1.68c-.532.448-1.214.672-2.044.672Zm0-5.992c-.458 0-.864.14-1.218.42-.355.27-.584.653-.686 1.148h3.696c-.038-.467-.22-.845-.546-1.134-.327-.29-.742-.434-1.246-.434Zm9.066 5.824c-.681 0-1.223-.163-1.624-.49-.401-.336-.602-.929-.602-1.778v-3.416h-1.75v-1.26h1.036c.476 0 .756-.233.84-.7l.21-1.12h1.148v1.82h2.744v1.26h-2.744v3.388c0 .364.08.62.238.77.168.14.453.21.854.21h1.624V94.5h-1.974Zm7.009.168c-.551 0-1.013-.093-1.386-.28a2.046 2.046 0 0 1-.84-.77 2.108 2.108 0 0 1-.28-1.064c0-.681.247-1.213.742-1.596.504-.383 1.213-.574 2.128-.574h1.792v-.154c0-1.045-.486-1.568-1.456-1.568-.402 0-.742.089-1.022.266-.271.168-.453.443-.546.826h-1.484c.074-.728.387-1.302.938-1.722.56-.43 1.264-.644 2.114-.644 1.026 0 1.773.252 2.24.756.466.504.7 1.2.7 2.086v4.27h-1.26l-.126-1.022h-.098a3.144 3.144 0 0 1-.77.84c-.308.233-.77.35-1.386.35Zm.28-1.246c.606 0 1.059-.182 1.358-.546.308-.373.476-.845.504-1.414h-1.624c-.532 0-.91.089-1.134.266-.215.168-.322.406-.322.714 0 .308.107.55.322.728.224.168.522.252.896.252Zm8.744 1.162c-.345 0-.64-.112-.882-.336a1.124 1.124 0 0 1-.364-.84c0-.327.121-.602.364-.826.243-.224.537-.336.882-.336.355 0 .649.112.882.336.243.224.364.5.364.826 0 .327-.121.607-.364.84-.233.224-.527.336-.882.336Zm0-5.432c-.345 0-.64-.112-.882-.336a1.124 1.124 0 0 1-.364-.84c0-.327.121-.602.364-.826.243-.224.537-.336.882-.336.355 0 .649.112.882.336.243.224.364.5.364.826 0 .327-.121.607-.364.84-.233.224-.527.336-.882.336Z"
    />
    <path
        fill="var(--color-text-muted)"
        d="M85.218 94.5v-9.8h1.176v8.736h4.97V94.5h-6.146Zm11.292-8.176a.95.95 0 0 1-.7-.28.917.917 0 0 1-.28-.672.89.89 0 0 1 .28-.672.95.95 0 0 1 .7-.28c.271 0 .5.093.686.28a.867.867 0 0 1 .294.672.895.895 0 0 1-.293.672.933.933 0 0 1-.687.28ZM93.794 94.5v-1.008h2.213v-4.578c0-.233-.117-.35-.35-.35h-1.624v-1.008h1.903c.831 0 1.246.415 1.246 1.246v4.69h2.212V94.5h-5.6Zm11.265.168c-.887 0-1.605-.205-2.156-.616-.541-.42-.845-.994-.91-1.722h1.218a1.4 1.4 0 0 0 .56.938c.327.243.765.364 1.316.364.523 0 .91-.112 1.162-.336.261-.224.392-.48.392-.77 0-.392-.154-.658-.462-.798-.308-.15-.77-.261-1.386-.336-.737-.084-1.349-.285-1.834-.602-.485-.317-.728-.793-.728-1.428 0-.57.238-1.04.714-1.414.476-.373 1.125-.56 1.946-.56.812 0 1.451.187 1.918.56.467.364.733.887.798 1.568h-1.162c-.028-.336-.191-.602-.49-.798-.289-.205-.653-.308-1.092-.308-.457 0-.812.089-1.064.266-.252.168-.378.392-.378.672s.14.513.42.7c.289.177.742.294 1.358.35.485.056.929.15 1.33.28.401.13.719.336.952.616.243.28.364.672.364 1.176.009.42-.107.798-.35 1.134-.233.327-.56.588-.98.784-.42.187-.905.28-1.456.28Zm9.053-.168c-.635 0-1.134-.154-1.498-.462-.364-.308-.546-.863-.546-1.666v-3.808h-1.764v-1.008h1.05c.476 0 .751-.233.826-.7l.196-1.078h.868v1.778h2.772v1.008h-2.772v3.808c0 .392.088.667.266.826.186.159.504.238.952.238h1.554V94.5h-1.904Z"
    />
    <path fill="var(--color-border-base)" d="M125.612 98.28V84.42h1.176v13.86h-1.176Z" />
    <path
        fill="var(--color-text-base)"
        d="m135.392 94.5 2.926-9.8h1.764l2.926 9.8h-1.61l-.658-2.352h-3.08l-.658 2.352h-1.61Zm3.766-7.7-1.162 4.158h2.408l-1.162-4.158h-.084Zm7.821 7.868c-.84 0-1.48-.257-1.918-.77-.43-.523-.644-1.279-.644-2.268v-4.074h1.484v3.892c0 .57.121 1.017.364 1.344.252.317.634.476 1.148.476.513 0 .942-.173 1.288-.518.345-.345.518-.845.518-1.498v-3.696h1.484V94.5h-1.288l-.126-1.036h-.07c-.187.336-.476.62-.868.854-.392.233-.85.35-1.372.35Zm9.766-.168c-.681 0-1.223-.163-1.624-.49-.401-.336-.602-.929-.602-1.778v-3.416h-1.75v-1.26h1.036c.476 0 .756-.233.84-.7l.21-1.12h1.148v1.82h2.744v1.26h-2.744v3.388c0 .364.079.62.238.77.168.14.453.21.854.21h1.624V94.5h-1.974Zm4.461 0V84.42h1.484v4.172c.186-.345.485-.63.896-.854.41-.233.872-.35 1.386-.35.858 0 1.512.261 1.96.784.448.513.672 1.255.672 2.226V94.5h-1.484v-3.892c0-.579-.14-1.027-.42-1.344-.28-.317-.668-.476-1.162-.476-.514 0-.952.173-1.316.518-.355.345-.532.845-.532 1.498V94.5h-1.484Zm11.572.168c-.663 0-1.255-.15-1.778-.448a3.2 3.2 0 0 1-1.232-1.26c-.299-.55-.448-1.195-.448-1.932 0-.737.149-1.377.448-1.918.299-.55.709-.975 1.232-1.274.523-.299 1.12-.448 1.792-.448.672 0 1.265.15 1.778.448a3.08 3.08 0 0 1 1.218 1.274c.299.541.448 1.18.448 1.918 0 .737-.149 1.381-.448 1.932a3.2 3.2 0 0 1-1.232 1.26c-.513.299-1.106.448-1.778.448Zm0-1.414c.355 0 .681-.08.98-.238a1.73 1.73 0 0 0 .714-.728c.187-.336.28-.756.28-1.26 0-.513-.093-.933-.28-1.26a1.73 1.73 0 0 0-.714-.728 1.973 1.973 0 0 0-.966-.238c-.355 0-.681.08-.98.238a1.82 1.82 0 0 0-.728.728c-.177.327-.266.747-.266 1.26 0 .765.191 1.33.574 1.694.392.355.854.532 1.386.532Zm5.273 1.246v-1.288h1.694v-3.906c0-.308-.15-.462-.448-.462h-1.106v-1.288h1.666c.382 0 .695.112.938.336.242.215.364.518.364.91v.168h.07c.102-.523.322-.915.658-1.176.345-.27.844-.406 1.498-.406h1.078v1.568h-1.512c-.551 0-.976.191-1.274.574-.299.383-.448.84-.448 1.372v2.31h2.156V94.5h-5.334Zm11.516.084c-.345 0-.639-.112-.882-.336a1.126 1.126 0 0 1-.364-.84c0-.327.122-.602.364-.826.243-.224.537-.336.882-.336.355 0 .649.112.882.336.243.224.364.5.364.826 0 .327-.121.607-.364.84-.233.224-.527.336-.882.336Zm0-5.432c-.345 0-.639-.112-.882-.336a1.126 1.126 0 0 1-.364-.84c0-.327.122-.602.364-.826.243-.224.537-.336.882-.336.355 0 .649.112.882.336.243.224.364.5.364.826 0 .327-.121.607-.364.84-.233.224-.527.336-.882.336Z"
    />
    <path
        fill="var(--color-text-muted)"
        d="M39.232 116.5v-6.944h.98l.126 1.05h.07c.187-.336.48-.621.882-.854.401-.243.863-.364 1.386-.364.85 0 1.484.252 1.904.756.43.504.644 1.232.644 2.184v4.172h-1.176v-4.032c0-.616-.135-1.097-.406-1.442-.27-.355-.69-.532-1.26-.532-.55 0-1.017.191-1.4.574-.383.373-.574.915-.574 1.624v3.808h-1.176Zm11.362.168c-.653 0-1.232-.149-1.736-.448a3.168 3.168 0 0 1-1.19-1.26c-.289-.551-.434-1.195-.434-1.932 0-.737.145-1.377.434-1.918.29-.551.687-.975 1.19-1.274.505-.299 1.083-.448 1.736-.448.654 0 1.233.149 1.736.448.505.299.901.723 1.19 1.274.29.541.434 1.181.434 1.918 0 .737-.144 1.381-.434 1.932a3.165 3.165 0 0 1-1.19 1.26c-.503.299-1.082.448-1.736.448Zm0-1.12c.402 0 .766-.089 1.093-.266.326-.177.583-.453.77-.826.196-.373.294-.849.294-1.428s-.098-1.055-.294-1.428c-.187-.373-.444-.649-.77-.826a2.255 2.255 0 0 0-1.093-.266c-.392 0-.75.089-1.078.266-.326.177-.587.453-.783.826-.197.373-.294.849-.294 1.428 0 .868.21 1.507.63 1.918.42.401.928.602 1.525.602Zm5.371.952v-1.008h1.778v-4.578c0-.233-.112-.35-.336-.35h-1.26v-1.008h1.694c.308 0 .555.084.742.252.187.168.28.415.28.742v.294h.056c.112-.467.322-.826.63-1.078.317-.252.756-.378 1.316-.378h1.274v1.246h-1.442c-.57 0-1.008.191-1.316.574-.308.373-.462.854-.462 1.442v2.842h2.184v1.008h-5.138Zm11.18.168c-.587 0-1.115-.14-1.581-.42-.458-.28-.817-.691-1.078-1.232-.262-.551-.392-1.218-.392-2.002 0-.775.13-1.433.392-1.974.26-.541.62-.952 1.078-1.232.466-.28.994-.42 1.582-.42.55 0 1.003.107 1.358.322.364.215.634.495.812.84v-4.13h1.176v10.08h-.966l-.126-1.078h-.084a2.159 2.159 0 0 1-.826.91c-.364.224-.812.336-1.344.336Zm.155-1.12c.588 0 1.073-.205 1.456-.616.382-.42.574-1.055.574-1.904s-.192-1.479-.574-1.89c-.383-.42-.868-.63-1.456-.63s-1.074.21-1.456.63c-.374.411-.56 1.041-.56 1.89s.186 1.484.56 1.904c.382.411.868.616 1.456.616Zm8.59 1.12a3.269 3.269 0 0 1-1.68-.434 3.128 3.128 0 0 1-1.162-1.246c-.29-.551-.434-1.204-.434-1.96s.145-1.405.434-1.946c.29-.551.681-.971 1.176-1.26a3.29 3.29 0 0 1 1.666-.434c.859 0 1.545.215 2.058.644.514.429.84 1.003.98 1.722h-1.204a1.645 1.645 0 0 0-.644-.91c-.317-.233-.718-.35-1.204-.35-.355 0-.69.093-1.008.28a2.05 2.05 0 0 0-.77.84c-.196.373-.294.845-.294 1.414s.098 1.045.294 1.428c.196.373.453.653.77.84.318.187.654.28 1.008.28.513 0 .92-.117 1.218-.35.308-.233.518-.541.63-.924h1.204c-.177.737-.527 1.316-1.05 1.736-.513.42-1.176.63-1.988.63Zm8.283 0c-.654 0-1.232-.149-1.736-.448a3.167 3.167 0 0 1-1.19-1.26c-.29-.551-.434-1.195-.434-1.932 0-.737.144-1.377.434-1.918a3.14 3.14 0 0 1 1.19-1.274c.504-.299 1.082-.448 1.736-.448.653 0 1.232.149 1.736.448.504.299.9.723 1.19 1.274.289.541.434 1.181.434 1.918 0 .737-.145 1.381-.434 1.932-.29.541-.686.961-1.19 1.26-.504.299-1.083.448-1.736.448Zm0-1.12c.401 0 .765-.089 1.092-.266.326-.177.583-.453.77-.826.196-.373.294-.849.294-1.428s-.098-1.055-.294-1.428c-.187-.373-.444-.649-.77-.826a2.255 2.255 0 0 0-1.092-.266c-.392 0-.752.089-1.078.266-.327.177-.588.453-.784.826-.196.373-.294.849-.294 1.428 0 .868.21 1.507.63 1.918.42.401.928.602 1.526.602Zm8.156 1.12c-.588 0-1.115-.14-1.582-.42-.457-.28-.817-.691-1.078-1.232-.261-.551-.392-1.218-.392-2.002 0-.775.13-1.433.392-1.974.261-.541.62-.952 1.078-1.232.467-.28.994-.42 1.582-.42.55 0 1.004.107 1.358.322.364.215.635.495.812.84v-4.13h1.176v10.08h-.966l-.126-1.078H94.5a2.159 2.159 0 0 1-.826.91c-.364.224-.812.336-1.344.336Zm.154-1.12c.588 0 1.073-.205 1.456-.616.383-.42.574-1.055.574-1.904s-.191-1.479-.574-1.89c-.382-.42-.868-.63-1.456-.63s-1.073.21-1.456.63c-.373.411-.56 1.041-.56 1.89s.187 1.484.56 1.904c.383.411.868.616 1.456.616Zm8.549 1.12c-.654 0-1.232-.149-1.736-.448a3.302 3.302 0 0 1-1.176-1.274c-.29-.551-.434-1.19-.434-1.918s.14-1.363.42-1.904c.29-.551.686-.975 1.19-1.274.504-.308 1.092-.462 1.764-.462.672 0 1.246.154 1.722.462.476.299.84.695 1.092 1.19a3.468 3.468 0 0 1 .364 1.904v.35h-5.39c.028.513.144.943.35 1.288.214.336.48.588.798.756.326.168.672.252 1.036.252.513 0 .914-.107 1.204-.322.289-.215.508-.513.658-.896h1.162a3.16 3.16 0 0 1-.994 1.638c-.504.439-1.181.658-2.03.658Zm0-6.23c-.542 0-1.018.163-1.428.49-.402.327-.649.784-.742 1.372h4.228c-.038-.579-.248-1.031-.63-1.358-.374-.336-.85-.504-1.428-.504Z"
    />
    <path fill="var(--color-border-base)" d="M113.612 120.28v-13.86h1.176v13.86h-1.176Z" />
    <path
        fill="var(--color-text-base)"
        d="M126.458 116.5v-3.724l-3.234-6.076h1.694l2.282 4.508 2.282-4.508h1.694l-3.234 6.076v3.724h-1.484Zm9.221.168c-.672 0-1.265-.149-1.778-.448a3.226 3.226 0 0 1-1.204-1.274c-.29-.541-.434-1.171-.434-1.89 0-.728.14-1.367.42-1.918.289-.551.69-.98 1.204-1.288.522-.308 1.124-.462 1.806-.462.672 0 1.25.154 1.736.462.485.299.858.7 1.12 1.204.27.504.406 1.059.406 1.666v.308c0 .103-.005.219-.014.35h-5.222c.046.644.256 1.134.63 1.47.373.327.812.49 1.316.49.438 0 .784-.089 1.036-.266.261-.187.452-.439.574-.756h1.498a3.21 3.21 0 0 1-1.05 1.68c-.532.448-1.214.672-2.044.672Zm0-5.992c-.458 0-.864.14-1.218.42-.355.271-.584.653-.686 1.148h3.696c-.038-.467-.22-.845-.546-1.134-.327-.289-.742-.434-1.246-.434Zm7.68 5.992c-.551 0-1.013-.093-1.386-.28a2.052 2.052 0 0 1-.84-.77 2.105 2.105 0 0 1-.28-1.064c0-.681.247-1.213.742-1.596.504-.383 1.213-.574 2.128-.574h1.792v-.154c0-1.045-.485-1.568-1.456-1.568-.401 0-.742.089-1.022.266-.271.168-.453.443-.546.826h-1.484c.075-.728.387-1.302.938-1.722.56-.429 1.265-.644 2.114-.644 1.027 0 1.773.252 2.24.756.467.504.7 1.199.7 2.086v4.27h-1.26l-.126-1.022h-.098a3.13 3.13 0 0 1-.77.84c-.308.233-.77.35-1.386.35Zm.28-1.246c.607 0 1.059-.182 1.358-.546.308-.373.476-.845.504-1.414h-1.624c-.532 0-.91.089-1.134.266-.215.168-.322.406-.322.714 0 .308.107.551.322.728.224.168.523.252.896.252Zm5.623 1.078v-1.288h1.694v-3.906c0-.308-.15-.462-.448-.462h-1.106v-1.288h1.666c.382 0 .695.112.938.336.242.215.364.518.364.91v.168h.07c.102-.523.322-.915.658-1.176.345-.271.844-.406 1.498-.406h1.078v1.568h-1.512c-.551 0-.976.191-1.274.574-.299.383-.448.84-.448 1.372v2.31h2.156v1.288h-5.334Zm11.516.084c-.345 0-.639-.112-.882-.336a1.122 1.122 0 0 1-.364-.84c0-.327.121-.602.364-.826.243-.224.537-.336.882-.336.355 0 .649.112.882.336.243.224.364.499.364.826 0 .327-.121.607-.364.84-.233.224-.527.336-.882.336Zm0-5.432c-.345 0-.639-.112-.882-.336a1.122 1.122 0 0 1-.364-.84c0-.327.121-.602.364-.826.243-.224.537-.336.882-.336.355 0 .649.112.882.336.243.224.364.499.364.826 0 .327-.121.607-.364.84-.233.224-.527.336-.882.336Z"
    />
    <path
        fill="var(--color-text-muted)"
        d="M170.036 116.5v-.924a58.043 58.043 0 0 0 2.632-2.212c.756-.672 1.339-1.321 1.75-1.946.411-.625.616-1.265.616-1.918 0-.588-.168-1.05-.504-1.386-.327-.345-.77-.518-1.33-.518-.429 0-.793.093-1.092.28a1.772 1.772 0 0 0-.672.742 2.252 2.252 0 0 0-.224.994h-1.162c.009-.644.149-1.195.42-1.652.28-.467.653-.821 1.12-1.064a3.49 3.49 0 0 1 1.61-.364c.961 0 1.708.266 2.24.798.532.532.798 1.246.798 2.142 0 .588-.126 1.153-.378 1.694a7.047 7.047 0 0 1-1.008 1.54c-.42.495-.891.971-1.414 1.428-.523.457-1.05.896-1.582 1.316h4.648v1.05h-6.468Zm11.559.168c-.738 0-1.391-.205-1.96-.616-.56-.411-.999-.994-1.316-1.75-.308-.756-.462-1.657-.462-2.702s.154-1.946.462-2.702c.317-.756.756-1.339 1.316-1.75.569-.411 1.222-.616 1.96-.616.746 0 1.4.205 1.96.616.56.411.994.994 1.302 1.75.317.756.476 1.657.476 2.702s-.159 1.946-.476 2.702c-.308.756-.742 1.339-1.302 1.75-.56.411-1.214.616-1.96.616Zm-2.534-5.068c0 .635.065 1.209.196 1.722.14.504.331.929.574 1.274l2.716-6.734a1.946 1.946 0 0 0-.952-.238c-.495 0-.934.163-1.316.49-.383.317-.682.775-.896 1.372-.215.588-.322 1.293-.322 2.114Zm2.534 3.99c.494 0 .933-.159 1.316-.476.382-.327.681-.789.896-1.386.214-.597.322-1.307.322-2.128 0-.635-.07-1.204-.21-1.708-.131-.513-.318-.943-.56-1.288l-2.73 6.748c.298.159.62.238.966.238Zm5.23.91v-.924a58.043 58.043 0 0 0 2.632-2.212c.756-.672 1.339-1.321 1.75-1.946.411-.625.616-1.265.616-1.918 0-.588-.168-1.05-.504-1.386-.327-.345-.77-.518-1.33-.518-.429 0-.793.093-1.092.28a1.772 1.772 0 0 0-.672.742 2.252 2.252 0 0 0-.224.994h-1.162c.009-.644.149-1.195.42-1.652.28-.467.653-.821 1.12-1.064a3.49 3.49 0 0 1 1.61-.364c.961 0 1.708.266 2.24.798.532.532.798 1.246.798 2.142 0 .588-.126 1.153-.378 1.694a7.047 7.047 0 0 1-1.008 1.54c-.42.495-.891.971-1.414 1.428-.523.457-1.05.896-1.582 1.316h4.648v1.05h-6.468Zm12.763 0v-2.268h-4.69v-.91l4.466-6.622h1.4v6.468h1.4v1.064h-1.4v2.268h-1.176Zm-3.374-3.332h3.43v-5.096l-3.43 5.096Z"
    />
</svg>
