<svg viewBox="0 0 300 200" fill="none" xmlns="http://www.w3.org/2000/svg">
<path d="M127.62 86V72H129.74V84.1H136.64V86H127.62ZM143.092 86.24C142.306 86.24 141.646 86.1067 141.112 85.84C140.579 85.56 140.179 85.1933 139.912 84.74C139.646 84.2733 139.512 83.7667 139.512 83.22C139.512 82.2467 139.866 81.4867 140.572 80.94C141.292 80.3933 142.306 80.12 143.612 80.12H146.172V79.9C146.172 78.4067 145.479 77.66 144.092 77.66C143.519 77.66 143.032 77.7867 142.632 78.04C142.246 78.28 141.986 78.6733 141.852 79.22H139.732C139.839 78.18 140.286 77.36 141.072 76.76C141.872 76.1467 142.879 75.84 144.092 75.84C145.559 75.84 146.626 76.2 147.292 76.92C147.959 77.64 148.292 78.6333 148.292 79.9V86H146.492L146.312 84.54H146.172C145.879 85.0067 145.512 85.4067 145.072 85.74C144.632 86.0733 143.972 86.24 143.092 86.24ZM143.492 84.46C144.359 84.46 145.006 84.2 145.432 83.68C145.872 83.1467 146.112 82.4733 146.152 81.66H143.832C143.072 81.66 142.532 81.7867 142.212 82.04C141.906 82.28 141.752 82.62 141.752 83.06C141.752 83.5 141.906 83.8467 142.212 84.1C142.532 84.34 142.959 84.46 143.492 84.46ZM156.524 86.24C155.791 86.24 155.171 86.0933 154.664 85.8C154.171 85.4933 153.791 85.0733 153.524 84.54H153.404L153.224 86H151.404V71.6H153.524V77.36C153.764 76.96 154.144 76.6067 154.664 76.3C155.184 75.9933 155.804 75.84 156.524 75.84C157.351 75.84 158.091 76.04 158.744 76.44C159.398 76.8267 159.911 77.4067 160.284 78.18C160.671 78.9533 160.864 79.9067 160.864 81.04C160.864 82.1733 160.671 83.1267 160.284 83.9C159.911 84.6733 159.398 85.26 158.744 85.66C158.091 86.0467 157.351 86.24 156.524 86.24ZM156.084 84.22C156.844 84.22 157.471 83.96 157.964 83.44C158.471 82.9067 158.724 82.1133 158.724 81.06C158.724 79.9933 158.471 79.1933 157.964 78.66C157.471 78.1267 156.844 77.86 156.084 77.86C155.324 77.86 154.691 78.1267 154.184 78.66C153.691 79.18 153.444 79.9733 153.444 81.04C153.444 82.0933 153.691 82.8867 154.184 83.42C154.691 83.9533 155.324 84.22 156.084 84.22ZM168.097 86.24C167.137 86.24 166.29 86.0267 165.557 85.6C164.823 85.16 164.25 84.5533 163.837 83.78C163.423 83.0067 163.217 82.1067 163.217 81.08C163.217 80.04 163.417 79.1267 163.817 78.34C164.23 77.5533 164.803 76.94 165.537 76.5C166.283 76.06 167.143 75.84 168.117 75.84C169.077 75.84 169.903 76.06 170.597 76.5C171.29 76.9267 171.823 77.5 172.197 78.22C172.583 78.94 172.777 79.7333 172.777 80.6C172.777 80.7333 172.777 80.88 172.777 81.04C172.777 81.1867 172.77 81.3533 172.757 81.54H165.297C165.363 82.46 165.663 83.16 166.197 83.64C166.73 84.1067 167.357 84.34 168.077 84.34C168.703 84.34 169.197 84.2133 169.557 83.96C169.93 83.6933 170.203 83.3333 170.377 82.88H172.517C172.277 83.8267 171.777 84.6267 171.017 85.28C170.257 85.92 169.283 86.24 168.097 86.24ZM168.097 77.68C167.443 77.68 166.863 77.88 166.357 78.28C165.85 78.6667 165.523 79.2133 165.377 79.92H170.657C170.603 79.2533 170.343 78.7133 169.877 78.3C169.41 77.8867 168.817 77.68 168.097 77.68ZM175.329 86V84.16H178.649V74.1C178.649 73.66 178.435 73.44 178.009 73.44H175.609V71.6H178.389C179.162 71.6 179.749 71.8067 180.149 72.22C180.562 72.62 180.769 73.2067 180.769 73.98V84.16H184.109V86H175.329Z" fill="var(--color-text-base)"/>
<path d="M130.395 108.18C129.655 108.18 128.995 107.965 128.415 107.535C127.835 107.095 127.38 106.47 127.05 105.66C126.73 104.85 126.57 103.88 126.57 102.75C126.57 101.63 126.735 100.665 127.065 99.855C127.395 99.045 127.86 98.42 128.46 97.98C129.07 97.54 129.79 97.32 130.62 97.32C131.61 97.32 132.415 97.61 133.035 98.19C133.665 98.77 134.04 99.55 134.16 100.53H132.765C132.665 99.93 132.43 99.445 132.06 99.075C131.7 98.695 131.22 98.505 130.62 98.505C129.76 98.505 129.085 98.88 128.595 99.63C128.105 100.38 127.86 101.42 127.86 102.75C127.86 104.1 128.105 105.145 128.595 105.885C129.085 106.625 129.72 106.995 130.5 106.995C131.06 106.995 131.52 106.83 131.88 106.5C132.24 106.16 132.51 105.73 132.69 105.21C132.88 104.68 132.985 104.135 133.005 103.575H130.665V102.495H134.295V108H133.14L133.035 106.41H132.975C132.765 106.95 132.455 107.38 132.045 107.7C131.645 108.02 131.095 108.18 130.395 108.18ZM139.404 99.24C139.104 99.24 138.854 99.14 138.654 98.94C138.454 98.74 138.354 98.5 138.354 98.22C138.354 97.93 138.454 97.69 138.654 97.5C138.854 97.3 139.104 97.2 139.404 97.2C139.694 97.2 139.939 97.3 140.139 97.5C140.349 97.69 140.454 97.93 140.454 98.22C140.454 98.5 140.349 98.74 140.139 98.94C139.939 99.14 139.694 99.24 139.404 99.24ZM136.494 108V106.92H138.864V102.015C138.864 101.765 138.739 101.64 138.489 101.64H136.749V100.56H138.789C139.679 100.56 140.124 101.005 140.124 101.895V106.92H142.494V108H136.494ZM147.753 108L144.483 100.56H145.923L148.488 106.62L151.068 100.56H152.493L149.208 108H147.753ZM157.557 108.18C156.857 108.18 156.237 108.02 155.697 107.7C155.167 107.37 154.747 106.915 154.437 106.335C154.127 105.745 153.972 105.06 153.972 104.28C153.972 103.5 154.122 102.82 154.422 102.24C154.732 101.65 155.157 101.195 155.697 100.875C156.237 100.545 156.867 100.38 157.587 100.38C158.307 100.38 158.922 100.545 159.432 100.875C159.942 101.195 160.332 101.62 160.602 102.15C160.872 102.68 161.007 103.25 161.007 103.86C161.007 103.97 161.002 104.08 160.992 104.19C160.992 104.3 160.992 104.425 160.992 104.565H155.217C155.247 105.115 155.372 105.575 155.592 105.945C155.822 106.305 156.107 106.575 156.447 106.755C156.797 106.935 157.167 107.025 157.557 107.025C158.107 107.025 158.537 106.91 158.847 106.68C159.157 106.45 159.392 106.13 159.552 105.72H160.797C160.627 106.41 160.272 106.995 159.732 107.475C159.192 107.945 158.467 108.18 157.557 108.18ZM157.557 101.505C156.977 101.505 156.467 101.68 156.027 102.03C155.597 102.38 155.332 102.87 155.232 103.5H159.762C159.722 102.88 159.497 102.395 159.087 102.045C158.687 101.685 158.177 101.505 157.557 101.505ZM173.206 111.3L175.036 107.28H174.601L171.661 100.56H173.026L175.471 106.32L178.051 100.56H179.371L174.526 111.3H173.206ZM184.465 108.18C183.765 108.18 183.145 108.02 182.605 107.7C182.065 107.38 181.64 106.93 181.33 106.35C181.02 105.76 180.865 105.07 180.865 104.28C180.865 103.49 181.02 102.805 181.33 102.225C181.64 101.635 182.065 101.18 182.605 100.86C183.145 100.54 183.765 100.38 184.465 100.38C185.165 100.38 185.785 100.54 186.325 100.86C186.865 101.18 187.29 101.635 187.6 102.225C187.91 102.805 188.065 103.49 188.065 104.28C188.065 105.07 187.91 105.76 187.6 106.35C187.29 106.93 186.865 107.38 186.325 107.7C185.785 108.02 185.165 108.18 184.465 108.18ZM184.465 106.98C184.895 106.98 185.285 106.885 185.635 106.695C185.985 106.505 186.26 106.21 186.46 105.81C186.67 105.41 186.775 104.9 186.775 104.28C186.775 103.66 186.67 103.15 186.46 102.75C186.26 102.35 185.985 102.055 185.635 101.865C185.285 101.675 184.895 101.58 184.465 101.58C184.045 101.58 183.66 101.675 183.31 101.865C182.96 102.055 182.68 102.35 182.47 102.75C182.26 103.15 182.155 103.66 182.155 104.28C182.155 105.21 182.38 105.895 182.83 106.335C183.28 106.765 183.825 106.98 184.465 106.98ZM192.934 108.18C192.034 108.18 191.354 107.91 190.894 107.37C190.434 106.83 190.204 106.05 190.204 105.03V100.56H191.464V104.88C191.464 105.54 191.609 106.06 191.899 106.44C192.199 106.81 192.649 106.995 193.249 106.995C193.849 106.995 194.354 106.795 194.764 106.395C195.174 105.985 195.379 105.4 195.379 104.64V100.56H196.639V108H195.589L195.454 106.875H195.379C195.179 107.235 194.864 107.545 194.434 107.805C194.004 108.055 193.504 108.18 192.934 108.18ZM199.213 108V106.92H201.118V102.015C201.118 101.765 200.998 101.64 200.758 101.64H199.408V100.56H201.223C201.553 100.56 201.818 100.65 202.018 100.83C202.218 101.01 202.318 101.275 202.318 101.625V101.94H202.378C202.498 101.44 202.723 101.055 203.053 100.785C203.393 100.515 203.863 100.38 204.463 100.38H205.828V101.715H204.283C203.673 101.715 203.203 101.92 202.873 102.33C202.543 102.73 202.378 103.245 202.378 103.875V106.92H204.718V108H199.213ZM219.916 108.18C219.016 108.18 218.336 107.91 217.876 107.37C217.416 106.83 217.186 106.05 217.186 105.03V100.56H218.446V104.88C218.446 105.54 218.591 106.06 218.881 106.44C219.181 106.81 219.631 106.995 220.231 106.995C220.831 106.995 221.336 106.795 221.746 106.395C222.156 105.985 222.361 105.4 222.361 104.64V100.56H223.621V108H222.571L222.436 106.875H222.361C222.161 107.235 221.846 107.545 221.416 107.805C220.986 108.055 220.486 108.18 219.916 108.18ZM229.511 108.18C228.561 108.18 227.791 107.96 227.201 107.52C226.621 107.07 226.296 106.455 226.226 105.675H227.531C227.591 106.085 227.791 106.42 228.131 106.68C228.481 106.94 228.951 107.07 229.541 107.07C230.101 107.07 230.516 106.95 230.786 106.71C231.066 106.47 231.206 106.195 231.206 105.885C231.206 105.465 231.041 105.18 230.711 105.03C230.381 104.87 229.886 104.75 229.226 104.67C228.436 104.58 227.781 104.365 227.261 104.025C226.741 103.685 226.481 103.175 226.481 102.495C226.481 101.885 226.736 101.38 227.246 100.98C227.756 100.58 228.451 100.38 229.331 100.38C230.201 100.38 230.886 100.58 231.386 100.98C231.886 101.37 232.171 101.93 232.241 102.66H230.996C230.966 102.3 230.791 102.015 230.471 101.805C230.161 101.585 229.771 101.475 229.301 101.475C228.811 101.475 228.431 101.57 228.161 101.76C227.891 101.94 227.756 102.18 227.756 102.48C227.756 102.78 227.906 103.03 228.206 103.23C228.516 103.42 229.001 103.545 229.661 103.605C230.181 103.665 230.656 103.765 231.086 103.905C231.516 104.045 231.856 104.265 232.106 104.565C232.366 104.865 232.496 105.285 232.496 105.825C232.506 106.275 232.381 106.68 232.121 107.04C231.871 107.39 231.521 107.67 231.071 107.88C230.621 108.08 230.101 108.18 229.511 108.18ZM238.505 108.18C237.805 108.18 237.185 108.02 236.645 107.7C236.115 107.37 235.695 106.915 235.385 106.335C235.075 105.745 234.92 105.06 234.92 104.28C234.92 103.5 235.07 102.82 235.37 102.24C235.68 101.65 236.105 101.195 236.645 100.875C237.185 100.545 237.815 100.38 238.535 100.38C239.255 100.38 239.87 100.545 240.38 100.875C240.89 101.195 241.28 101.62 241.55 102.15C241.82 102.68 241.955 103.25 241.955 103.86C241.955 103.97 241.95 104.08 241.94 104.19C241.94 104.3 241.94 104.425 241.94 104.565H236.165C236.195 105.115 236.32 105.575 236.54 105.945C236.77 106.305 237.055 106.575 237.395 106.755C237.745 106.935 238.115 107.025 238.505 107.025C239.055 107.025 239.485 106.91 239.795 106.68C240.105 106.45 240.34 106.13 240.5 105.72H241.745C241.575 106.41 241.22 106.995 240.68 107.475C240.14 107.945 239.415 108.18 238.505 108.18ZM238.505 101.505C237.925 101.505 237.415 101.68 236.975 102.03C236.545 102.38 236.28 102.87 236.18 103.5H240.71C240.67 102.88 240.445 102.395 240.035 102.045C239.635 101.685 239.125 101.505 238.505 101.505ZM244.184 108V106.92H246.089V102.015C246.089 101.765 245.969 101.64 245.729 101.64H244.379V100.56H246.194C246.524 100.56 246.789 100.65 246.989 100.83C247.189 101.01 247.289 101.275 247.289 101.625V101.94H247.349C247.469 101.44 247.694 101.055 248.024 100.785C248.364 100.515 248.834 100.38 249.434 100.38H250.799V101.715H249.254C248.644 101.715 248.174 101.92 247.844 102.33C247.514 102.73 247.349 103.245 247.349 103.875V106.92H249.689V108H244.184ZM256.493 108.18C255.543 108.18 254.773 107.96 254.183 107.52C253.603 107.07 253.278 106.455 253.208 105.675H254.513C254.573 106.085 254.773 106.42 255.113 106.68C255.463 106.94 255.933 107.07 256.523 107.07C257.083 107.07 257.498 106.95 257.768 106.71C258.048 106.47 258.188 106.195 258.188 105.885C258.188 105.465 258.023 105.18 257.693 105.03C257.363 104.87 256.868 104.75 256.208 104.67C255.418 104.58 254.763 104.365 254.243 104.025C253.723 103.685 253.463 103.175 253.463 102.495C253.463 101.885 253.718 101.38 254.228 100.98C254.738 100.58 255.433 100.38 256.313 100.38C257.183 100.38 257.868 100.58 258.368 100.98C258.868 101.37 259.153 101.93 259.223 102.66H257.978C257.948 102.3 257.773 102.015 257.453 101.805C257.143 101.585 256.753 101.475 256.283 101.475C255.793 101.475 255.413 101.57 255.143 101.76C254.873 101.94 254.738 102.18 254.738 102.48C254.738 102.78 254.888 103.03 255.188 103.23C255.498 103.42 255.983 103.545 256.643 103.605C257.163 103.665 257.638 103.765 258.068 103.905C258.498 104.045 258.838 104.265 259.088 104.565C259.348 104.865 259.478 105.285 259.478 105.825C259.488 106.275 259.363 106.68 259.103 107.04C258.853 107.39 258.503 107.67 258.053 107.88C257.603 108.08 257.083 108.18 256.493 108.18ZM273.776 108.18C273.186 108.18 272.696 108.075 272.306 107.865C271.916 107.655 271.626 107.38 271.436 107.04C271.246 106.69 271.151 106.31 271.151 105.9C271.151 105.14 271.426 104.565 271.976 104.175C272.536 103.775 273.281 103.575 274.211 103.575H276.251V103.425C276.251 102.125 275.656 101.475 274.466 101.475C273.986 101.475 273.581 101.58 273.251 101.79C272.931 102 272.726 102.33 272.636 102.78H271.346C271.396 102.28 271.561 101.85 271.841 101.49C272.131 101.13 272.501 100.855 272.951 100.665C273.401 100.475 273.906 100.38 274.466 100.38C275.526 100.38 276.296 100.66 276.776 101.22C277.266 101.77 277.511 102.505 277.511 103.425V108H276.431L276.326 106.845H276.221C276.001 107.205 275.706 107.52 275.336 107.79C274.976 108.05 274.456 108.18 273.776 108.18ZM274.001 107.07C274.481 107.07 274.886 106.955 275.216 106.725C275.556 106.495 275.811 106.19 275.981 105.81C276.161 105.43 276.251 105.015 276.251 104.565H274.316C273.636 104.565 273.156 104.68 272.876 104.91C272.606 105.14 272.471 105.445 272.471 105.825C272.471 106.215 272.601 106.52 272.861 106.74C273.121 106.96 273.501 107.07 274.001 107.07ZM127.245 128V117.2H128.505V121.685C128.705 121.305 129.035 120.995 129.495 120.755C129.955 120.505 130.46 120.38 131.01 120.38C131.92 120.38 132.61 120.655 133.08 121.205C133.56 121.755 133.8 122.525 133.8 123.515V128H132.54V123.68C132.54 123.01 132.375 122.49 132.045 122.12C131.725 121.75 131.275 121.565 130.695 121.565C130.295 121.565 129.93 121.655 129.6 121.835C129.27 122.015 129.005 122.28 128.805 122.63C128.605 122.98 128.505 123.41 128.505 123.92V128H127.245ZM139.404 119.24C139.104 119.24 138.854 119.14 138.654 118.94C138.454 118.74 138.354 118.5 138.354 118.22C138.354 117.93 138.454 117.69 138.654 117.5C138.854 117.3 139.104 117.2 139.404 117.2C139.694 117.2 139.939 117.3 140.139 117.5C140.349 117.69 140.454 117.93 140.454 118.22C140.454 118.5 140.349 118.74 140.139 118.94C139.939 119.14 139.694 119.24 139.404 119.24ZM136.494 128V126.92H138.864V122.015C138.864 121.765 138.739 121.64 138.489 121.64H136.749V120.56H138.789C139.679 120.56 140.124 121.005 140.124 121.895V126.92H142.494V128H136.494ZM145.308 128V120.56H146.358L146.493 121.685H146.568C146.768 121.325 147.083 121.02 147.513 120.77C147.943 120.51 148.438 120.38 148.998 120.38C149.908 120.38 150.588 120.65 151.038 121.19C151.498 121.73 151.728 122.51 151.728 123.53V128H150.468V123.68C150.468 123.02 150.323 122.505 150.033 122.135C149.743 121.755 149.293 121.565 148.683 121.565C148.093 121.565 147.593 121.77 147.183 122.18C146.773 122.58 146.568 123.16 146.568 123.92V128H145.308ZM158.262 128C157.582 128 157.047 127.835 156.657 127.505C156.267 127.175 156.072 126.58 156.072 125.72V121.64H154.182V120.56H155.307C155.817 120.56 156.112 120.31 156.192 119.81L156.402 118.655H157.332V120.56H160.302V121.64H157.332V125.72C157.332 126.14 157.427 126.435 157.617 126.605C157.817 126.775 158.157 126.86 158.637 126.86H160.302V128H158.262Z" fill="var(--color-text-muted)"/>
<g filter="url(#filter0_i_13_49)">
<rect x="20" y="73" width="88" height="42" rx="4" fill="var(--color-surface-muted)"/>
</g>
<rect x="20.5" y="73.5" width="87" height="41" rx="3.5" stroke="var(--color-border-base)"/>
<g filter="url(#filter1_d_13_49)">
<rect x="23" y="77" width="34" height="34" rx="4" fill="var(--color-text-base)"/>
</g>
<defs>
<filter id="filter0_i_13_49" x="20" y="73" width="90" height="44" filterUnits="userSpaceOnUse" color-interpolation-filters="sRGB">
<feFlood flood-opacity="0" result="BackgroundImageFix"/>
<feBlend mode="normal" in="SourceGraphic" in2="BackgroundImageFix" result="shape"/>
<feColorMatrix in="SourceAlpha" type="matrix" values="0 0 0 0 0 0 0 0 0 0 0 0 0 0 0 0 0 0 127 0" result="hardAlpha"/>
<feOffset dx="2" dy="2"/>
<feGaussianBlur stdDeviation="1"/>
<feComposite in2="hardAlpha" operator="arithmetic" k2="-1" k3="1"/>
<feColorMatrix type="matrix" values="0 0 0 0 0.705882 0 0 0 0 0.745098 0 0 0 0 0.823529 0 0 0 0.3 0"/>
<feBlend mode="normal" in2="shape" result="effect1_innerShadow_13_49"/>
</filter>
<filter id="filter1_d_13_49" x="17" y="71" width="50" height="50" filterUnits="userSpaceOnUse" color-interpolation-filters="sRGB">
<feFlood flood-opacity="0" result="BackgroundImageFix"/>
<feColorMatrix in="SourceAlpha" type="matrix" values="0 0 0 0 0 0 0 0 0 0 0 0 0 0 0 0 0 0 127 0" result="hardAlpha"/>
<feOffset dx="2" dy="2"/>
<feGaussianBlur stdDeviation="4"/>
<feComposite in2="hardAlpha" operator="out"/>
<feColorMatrix type="matrix" values="0 0 0 0 0.705882 0 0 0 0 0.745098 0 0 0 0 0.823529 0 0 0 1 0"/>
<feBlend mode="normal" in2="BackgroundImageFix" result="effect1_dropShadow_13_49"/>
<feBlend mode="normal" in="SourceGraphic" in2="effect1_dropShadow_13_49" result="shape"/>
</filter>
</defs>
</svg>
