<svg xmlns="http://www.w3.org/2000/svg" fill="none" viewBox="0 0 300 200">
    <g filter="url(#text-area__a)">
        <rect width="224" height="91" x="38" y="73" fill="var(--color-surface-muted)" rx="4" />
    </g>
    <rect width="223" height="90" x="38.5" y="73.5" stroke="var(--color-border-base)" rx="3.5" />
    <path
        fill="var(--color-text-base)"
        d="M39.134 50v-9.8h1.484v8.47h4.83V50h-6.314Zm10.83.168c-.55 0-1.012-.093-1.386-.28a2.046 2.046 0 0 1-.84-.77 2.109 2.109 0 0 1-.28-1.064c0-.681.248-1.213.742-1.596.505-.383 1.214-.574 2.128-.574h1.792v-.154c0-1.045-.485-1.568-1.456-1.568-.4 0-.742.089-1.022.266-.27.168-.452.443-.546.826h-1.483c.074-.728.387-1.302.938-1.722.56-.43 1.264-.644 2.113-.644 1.027 0 1.774.252 2.24.756.467.504.7 1.2.7 2.086V50h-1.26l-.126-1.022h-.098a3.144 3.144 0 0 1-.77.84c-.308.233-.77.35-1.386.35Zm.28-1.246c.607 0 1.06-.182 1.358-.546.309-.373.477-.845.505-1.414h-1.624c-.532 0-.91.089-1.134.266-.215.168-.322.406-.322.714 0 .308.107.55.322.728.224.168.522.252.896.252Zm9.123 1.246c-.513 0-.947-.103-1.302-.308a2.146 2.146 0 0 1-.798-.882h-.084L57.057 50h-1.274V39.92h1.484v4.032c.168-.28.434-.527.798-.742.364-.215.798-.322 1.302-.322.579 0 1.097.14 1.554.42.457.27.817.677 1.078 1.218.27.541.406 1.209.406 2.002 0 .793-.135 1.46-.406 2.002-.261.541-.62.952-1.078 1.232-.457.27-.975.406-1.554.406Zm-.308-1.414c.532 0 .97-.182 1.316-.546.355-.373.532-.929.532-1.666 0-.747-.177-1.307-.532-1.68-.345-.373-.784-.56-1.316-.56s-.975.187-1.33.56c-.345.364-.518.92-.518 1.666 0 .737.173 1.293.518 1.666.355.373.798.56 1.33.56Zm8.409 1.414c-.672 0-1.265-.15-1.778-.448a3.231 3.231 0 0 1-1.204-1.274c-.29-.541-.434-1.171-.434-1.89 0-.728.14-1.367.42-1.918.289-.55.69-.98 1.204-1.288.522-.308 1.124-.462 1.806-.462.672 0 1.25.154 1.736.462.485.299.858.7 1.12 1.204.27.504.406 1.06.406 1.666v.308c0 .103-.005.22-.014.35h-5.222c.046.644.256 1.134.63 1.47.373.327.812.49 1.316.49.438 0 .784-.089 1.036-.266.26-.187.452-.439.574-.756h1.498a3.212 3.212 0 0 1-1.05 1.68c-.532.448-1.214.672-2.044.672Zm0-5.992c-.458 0-.864.14-1.218.42-.355.27-.584.653-.686 1.148h3.696c-.038-.467-.22-.845-.546-1.134-.327-.29-.742-.434-1.246-.434ZM72.53 50v-1.288h2.324V41.67c0-.308-.15-.462-.448-.462h-1.68V39.92h1.946c.541 0 .952.145 1.232.434.29.28.434.69.434 1.232v7.126h2.338V50H72.53Z"
    />
    <path
        fill="var(--color-text-muted)"
        d="M40.93 64.12a2.16 2.16 0 0 1-1.32-.43c-.387-.293-.69-.71-.91-1.25-.213-.54-.32-1.187-.32-1.94 0-.747.11-1.39.33-1.93.22-.54.53-.957.93-1.25.407-.293.887-.44 1.44-.44.66 0 1.197.193 1.61.58.42.387.67.907.75 1.56h-.93c-.067-.4-.223-.723-.47-.97-.24-.253-.56-.38-.96-.38-.573 0-1.023.25-1.35.75-.327.5-.49 1.193-.49 2.08 0 .9.163 1.597.49 2.09.327.493.75.74 1.27.74.373 0 .68-.11.92-.33.24-.227.42-.513.54-.86a3.57 3.57 0 0 0 .21-1.09h-1.56v-.72h2.42V64h-.77l-.07-1.06h-.04c-.14.36-.347.647-.62.86-.267.213-.633.32-1.1.32Zm6.006-5.96a.678.678 0 0 1-.5-.2.655.655 0 0 1-.2-.48c0-.193.067-.353.2-.48a.68.68 0 0 1 .5-.2c.193 0 .357.067.49.2a.62.62 0 0 1 .21.48.64.64 0 0 1-.21.48.666.666 0 0 1-.49.2ZM44.996 64v-.72h1.58v-3.27c0-.167-.083-.25-.25-.25h-1.16v-.72h1.36c.593 0 .89.297.89.89v3.35h1.58V64h-4Zm7.506 0-2.18-4.96h.96l1.71 4.04 1.72-4.04h.95L53.472 64h-.97Zm6.536.12a2.39 2.39 0 0 1-1.24-.32 2.355 2.355 0 0 1-.84-.91c-.206-.393-.31-.85-.31-1.37 0-.52.1-.973.3-1.36.207-.393.49-.697.85-.91.36-.22.78-.33 1.26-.33s.89.11 1.23.33c.34.213.6.497.78.85a2.476 2.476 0 0 1 .26 1.36v.25h-3.85c.02.367.104.673.25.92.154.24.344.42.57.54.234.12.48.18.74.18.367 0 .654-.077.86-.23.207-.153.364-.367.47-.64h.83c-.113.46-.35.85-.71 1.17-.36.313-.843.47-1.45.47Zm0-4.45c-.386 0-.726.117-1.02.35-.286.233-.463.56-.53.98h3.02c-.026-.413-.176-.737-.45-.97-.266-.24-.606-.36-1.02-.36Zm10.433 6.53 1.22-2.68h-.29l-1.96-4.48h.91l1.63 3.84 1.72-3.84h.88l-3.23 7.16h-.88Zm7.506-2.08c-.467 0-.88-.107-1.24-.32a2.258 2.258 0 0 1-.85-.9c-.207-.393-.31-.853-.31-1.38 0-.527.103-.983.31-1.37a2.24 2.24 0 0 1 .85-.91c.36-.213.773-.32 1.24-.32.466 0 .88.107 1.24.32.36.213.643.517.85.91.206.387.31.843.31 1.37 0 .527-.104.987-.31 1.38-.207.387-.49.687-.85.9a2.39 2.39 0 0 1-1.24.32Zm0-.8c.286 0 .546-.063.78-.19.233-.127.416-.323.55-.59.14-.267.21-.607.21-1.02 0-.413-.07-.753-.21-1.02a1.317 1.317 0 0 0-.55-.59 1.608 1.608 0 0 0-.78-.19c-.28 0-.537.063-.77.19a1.37 1.37 0 0 0-.56.59c-.14.267-.21.607-.21 1.02 0 .62.15 1.077.45 1.37.3.287.663.43 1.09.43Zm5.646.8c-.6 0-1.054-.18-1.36-.54-.307-.36-.46-.88-.46-1.56v-2.98h.84v2.88c0 .44.096.787.29 1.04.2.247.5.37.9.37s.736-.133 1.01-.4c.273-.273.41-.663.41-1.17v-2.72h.84V64h-.7l-.09-.75h-.05c-.134.24-.344.447-.63.62-.287.167-.62.25-1 .25Zm4.186-.12v-.72h1.27v-3.27c0-.167-.08-.25-.24-.25h-.9v-.72h1.21c.22 0 .396.06.53.18.133.12.2.297.2.53v.21h.04c.08-.333.23-.59.45-.77.226-.18.54-.27.94-.27h.91v.89h-1.03c-.407 0-.72.137-.94.41-.22.267-.33.61-.33 1.03v2.03h1.56V64h-3.67Zm13.802.12c-.6 0-1.053-.18-1.36-.54-.307-.36-.46-.88-.46-1.56v-2.98h.84v2.88c0 .44.097.787.29 1.04.2.247.5.37.9.37s.737-.133 1.01-.4c.273-.273.41-.663.41-1.17v-2.72h.84V64h-.7l-.09-.75h-.05c-.133.24-.343.447-.63.62-.287.167-.62.25-1 .25Zm6.396 0c-.633 0-1.147-.147-1.54-.44-.387-.3-.603-.71-.65-1.23h.87c.04.273.173.497.4.67.233.173.547.26.94.26.373 0 .65-.08.83-.24.187-.16.28-.343.28-.55 0-.28-.11-.47-.33-.57-.22-.107-.55-.187-.99-.24-.527-.06-.963-.203-1.31-.43-.347-.227-.52-.567-.52-1.02 0-.407.17-.743.51-1.01.34-.267.803-.4 1.39-.4.58 0 1.037.133 1.37.4.333.26.523.633.57 1.12h-.83a.728.728 0 0 0-.35-.57c-.207-.147-.467-.22-.78-.22-.327 0-.58.063-.76.19-.18.12-.27.28-.27.48 0 .2.1.367.3.5.207.127.53.21.97.25.347.04.663.107.95.2.287.093.513.24.68.44.173.2.26.48.26.84.007.3-.077.57-.25.81-.167.233-.4.42-.7.56-.3.133-.647.2-1.04.2Zm5.996 0c-.467 0-.88-.107-1.24-.32a2.361 2.361 0 0 1-.84-.91c-.207-.393-.31-.85-.31-1.37 0-.52.1-.973.3-1.36.207-.393.49-.697.85-.91.36-.22.78-.33 1.26-.33s.89.11 1.23.33c.34.213.6.497.78.85a2.476 2.476 0 0 1 .26 1.36v.25h-3.85c.02.367.103.673.25.92.153.24.343.42.57.54.233.12.48.18.74.18.367 0 .653-.077.86-.23.207-.153.363-.367.47-.64h.83c-.113.46-.35.85-.71 1.17-.36.313-.843.47-1.45.47Zm0-4.45a1.59 1.59 0 0 0-1.02.35c-.287.233-.463.56-.53.98h3.02c-.027-.413-.177-.737-.45-.97-.267-.24-.607-.36-1.02-.36Zm3.786 4.33v-.72h1.27v-3.27c0-.167-.08-.25-.24-.25h-.9v-.72h1.21c.22 0 .397.06.53.18.134.12.2.297.2.53v.21h.04c.08-.333.23-.59.45-.77.227-.18.54-.27.94-.27h.91v.89h-1.03c-.406 0-.72.137-.94.41-.22.267-.33.61-.33 1.03v2.03h1.56V64h-3.67Zm8.206.12c-.633 0-1.146-.147-1.54-.44-.386-.3-.603-.71-.65-1.23h.87c.04.273.174.497.4.67.234.173.547.26.94.26.374 0 .65-.08.83-.24.187-.16.28-.343.28-.55 0-.28-.11-.47-.33-.57-.22-.107-.55-.187-.99-.24-.526-.06-.963-.203-1.31-.43-.346-.227-.52-.567-.52-1.02 0-.407.17-.743.51-1.01.34-.267.804-.4 1.39-.4.58 0 1.037.133 1.37.4.334.26.524.633.57 1.12h-.83a.726.726 0 0 0-.35-.57c-.206-.147-.466-.22-.78-.22-.326 0-.58.063-.76.19-.18.12-.27.28-.27.48 0 .2.1.367.3.5.207.127.53.21.97.25.347.04.664.107.95.2.287.093.514.24.68.44.174.2.26.48.26.84.007.3-.076.57-.25.81-.166.233-.4.42-.7.56-.3.133-.646.2-1.04.2Zm11.523 0c-.394 0-.72-.07-.98-.21a1.4 1.4 0 0 1-.58-.55 1.564 1.564 0 0 1-.19-.76c0-.507.183-.89.55-1.15.373-.267.87-.4 1.49-.4h1.36v-.1c0-.867-.397-1.3-1.19-1.3-.32 0-.59.07-.81.21-.214.14-.35.36-.41.66h-.86a1.63 1.63 0 0 1 .33-.86c.193-.24.44-.423.74-.55.3-.127.636-.19 1.01-.19.706 0 1.22.187 1.54.56.326.367.49.857.49 1.47V64h-.72l-.07-.77h-.07c-.147.24-.344.45-.59.63-.24.173-.587.26-1.04.26Zm.15-.74c.32 0 .59-.077.81-.23.226-.153.396-.357.51-.61.12-.253.18-.53.18-.83h-1.291c-.453 0-.773.077-.959.23a.761.761 0 0 0-.27.61c0 .26.086.463.26.61.173.147.426.22.76.22Zm10.092.62v-7.2h.84v2.99c.133-.253.353-.46.66-.62.306-.167.643-.25 1.01-.25.606 0 1.066.183 1.38.55.32.367.48.88.48 1.54V64h-.84v-2.88c0-.447-.11-.793-.33-1.04-.214-.247-.514-.37-.9-.37-.267 0-.51.06-.73.18a1.35 1.35 0 0 0-.53.53c-.134.233-.2.52-.2.86V64h-.84Zm8.106-5.84a.678.678 0 0 1-.5-.2.652.652 0 0 1-.2-.48c0-.193.066-.353.2-.48a.68.68 0 0 1 .5-.2.67.67 0 0 1 .49.2.62.62 0 0 1 .21.48.64.64 0 0 1-.21.48.668.668 0 0 1-.49.2Zm-1.94 5.84v-.72h1.58v-3.27c0-.167-.084-.25-.25-.25h-1.16v-.72h1.36c.593 0 .89.297.89.89v3.35h1.58V64h-4Zm5.876 0v-4.96h.7l.09.75h.05a1.63 1.63 0 0 1 .63-.61 1.88 1.88 0 0 1 .99-.26c.607 0 1.06.18 1.36.54.307.36.46.88.46 1.56V64h-.84v-2.88c0-.44-.097-.783-.29-1.03-.193-.253-.493-.38-.9-.38a1.36 1.36 0 0 0-1 .41c-.273.267-.41.653-.41 1.16V64h-.84Zm8.636 0c-.453 0-.81-.11-1.07-.33-.26-.22-.39-.617-.39-1.19v-2.72h-1.26v-.72h.75c.34 0 .537-.167.59-.5l.14-.77h.62v1.27h1.98v.72h-1.98v2.72c0 .28.063.477.19.59.133.113.36.17.68.17h1.11V64h-1.36Z"
    />
    <defs>
        <filter
            id="text-area__a"
            width="226"
            height="93"
            x="38"
            y="73"
            color-interpolation-filters="sRGB"
            filterUnits="userSpaceOnUse"
        >
            <feFlood flood-opacity="0" result="BackgroundImageFix" />
            <feBlend in="SourceGraphic" in2="BackgroundImageFix" result="shape" />
            <feColorMatrix in="SourceAlpha" result="hardAlpha" values="0 0 0 0 0 0 0 0 0 0 0 0 0 0 0 0 0 0 127 0" />
            <feOffset dx="2" dy="2" />
            <feGaussianBlur stdDeviation="1" />
            <feComposite in2="hardAlpha" k2="-1" k3="1" operator="arithmetic" />
            <feColorMatrix values="0 0 0 0 0.705882 0 0 0 0 0.745098 0 0 0 0 0.823529 0 0 0 0.3 0" />
            <feBlend in2="shape" result="effect1_innerShadow_1_126" />
        </filter>
    </defs>
</svg>
