<?xml version="1.0" standalone="no"?>
<!DOCTYPE svg PUBLIC "-//W3C//DTD SVG 20010904//EN"
 "http://www.w3.org/TR/2001/REC-SVG-20010904/DTD/svg10.dtd">
<svg version="1.0" xmlns="http://www.w3.org/2000/svg"
 width="700.000000pt" height="700.000000pt" viewBox="0 0 700.000000 700.000000"
 preserveAspectRatio="xMidYMid meet">
<metadata>
Created by potrace 1.14, written by Peter Selinger 2001-2017
</metadata>
<g transform="translate(0.000000,700.000000) scale(0.100000,-0.100000)"
fill="#000000" stroke="none">
<path d="M2709 6908 c0 -51 -2 -100 -3 -108 -2 -8 -6 -44 -10 -80 -3 -36 -8
-78 -11 -95 -3 -16 -7 -46 -10 -65 -2 -19 -7 -46 -10 -60 -3 -14 -7 -36 -10
-49 -18 -95 -93 -345 -125 -416 -5 -11 -18 -42 -30 -70 -33 -79 -129 -264
-174 -335 -46 -75 -138 -209 -161 -236 -5 -7 -28 -34 -50 -60 -52 -64 -150
-170 -195 -212 -19 -18 -53 -50 -75 -71 -156 -147 -427 -328 -631 -421 -203
-94 -268 -117 -464 -169 -216 -57 -398 -81 -632 -85 l-113 -2 0 -874 0 -875
1747 0 c1160 0 1744 -3 1740 -10 -3 -5 -34 -48 -67 -95 -234 -324 -432 -713
-568 -1116 -49 -144 -127 -427 -142 -511 -3 -18 -7 -48 -10 -65 -3 -18 -8 -40
-10 -48 -5 -17 -10 -50 -21 -125 -3 -27 -8 -59 -10 -70 -3 -11 -7 -47 -10 -80
-3 -33 -7 -71 -9 -85 -6 -31 -16 -216 -19 -332 l-2 -88 918 0 c505 0 918 3
919 8 0 4 2 50 4 102 2 52 7 118 11 145 3 28 6 57 6 65 1 14 30 191 43 255 11
56 46 179 72 255 200 591 593 1084 1130 1414 50 31 94 56 97 56 4 0 23 10 44
23 80 50 390 175 501 203 9 2 43 10 76 19 97 24 180 41 252 51 26 3 57 8 68
10 11 2 63 7 115 10 52 3 101 7 108 9 10 4 12 184 10 877 l-3 873 -1742 0
c-959 0 -1743 2 -1743 5 0 7 20 37 104 157 138 197 305 498 396 713 17 41 38
89 45 105 68 150 206 607 231 760 8 49 12 73 18 93 3 9 7 37 10 62 3 25 8 54
10 65 5 24 25 184 31 240 5 51 16 246 19 348 l3 77 -834 0 -833 0 -1 -92z"/>
</g>
</svg>
