<svg xmlns="http://www.w3.org/2000/svg">
    <symbol viewBox="0 0 240 37" id="logo">
        <path
            d="M56.9893 30.0889V9.36099H60.834L61.2101 12.4535H61.419C61.9762 11.4505 62.8399 10.6008 64.01 9.90427C65.1801 9.20776 66.5313 8.85951 68.0637 8.85951C70.5989 8.85951 72.5073 9.62567 73.7889 11.158C75.0705 12.6903 75.7112 14.9469 75.7112 17.928V30.0889H71.2815V18.4712C71.2815 16.7439 70.9193 15.4066 70.1949 14.4594C69.4706 13.5122 68.3283 13.0385 66.7682 13.0385C65.2358 13.0385 63.9543 13.5539 62.9235 14.5848C61.9205 15.6156 61.419 17.1061 61.419 19.0563V30.0889H56.9893Z"
        />
        <path
            d="M89.6528 30.5904C87.6748 30.5904 85.9057 30.1446 84.3455 29.2531C82.7853 28.3616 81.5595 27.1079 80.668 25.492C79.7764 23.8482 79.3307 21.9259 79.3307 19.725C79.3307 17.524 79.7764 15.6156 80.668 13.9997C81.5595 12.356 82.7853 11.0883 84.3455 10.1968C85.9057 9.30528 87.6887 8.85951 89.6946 8.85951C91.7006 8.85951 93.4697 9.30528 95.002 10.1968C96.5621 11.0883 97.7741 12.356 98.6377 13.9997C99.5293 15.6156 99.975 17.524 99.975 19.725C99.975 21.9259 99.5293 23.8482 98.6377 25.492C97.7462 27.1079 96.5204 28.3616 94.9602 29.2531C93.4279 30.1446 91.6588 30.5904 89.6528 30.5904ZM89.6528 26.3696C90.7115 26.3696 91.6866 26.1328 92.5781 25.6592C93.4697 25.1855 94.1801 24.4612 94.7095 23.4861C95.2667 22.4831 95.5453 21.2294 95.5453 19.725C95.5453 18.1926 95.2667 16.9389 94.7095 15.9638C94.1801 14.9887 93.4697 14.2644 92.5781 13.7908C91.7145 13.3171 90.7533 13.0803 89.6946 13.0803C88.6359 13.0803 87.6608 13.3171 86.7693 13.7908C85.8778 14.2644 85.1534 14.9887 84.5962 15.9638C84.0669 16.9389 83.8022 18.1926 83.8022 19.725C83.8022 22.0095 84.3733 23.695 85.5156 24.7816C86.6857 25.8402 88.0648 26.3696 89.6528 26.3696Z"
        />
        <path
            d="M103.72 30.0889V26.2442H108.776V14.5848C108.776 13.6654 108.331 13.2057 107.439 13.2057H104.138V9.36099H109.111C110.253 9.36099 111.186 9.69532 111.911 10.364C112.635 11.0047 112.997 11.9102 112.997 13.0803V13.5818H113.206C113.513 12.0216 114.167 10.8515 115.17 10.0714C116.201 9.26348 117.692 8.85951 119.642 8.85951H122.86V13.54H118.346C116.703 13.54 115.435 14.1111 114.543 15.2534C113.652 16.3957 113.206 17.7608 113.206 19.3488V26.2442H119.642V30.0889H103.72Z"
        />
        <path
            d="M135.297 30.5904C133.569 30.5904 132.023 30.1864 130.658 29.3785C129.293 28.5427 128.206 27.3168 127.398 25.7009C126.618 24.0851 126.228 22.0931 126.228 19.725C126.228 17.3568 126.632 15.3648 127.44 13.749C128.248 12.1331 129.335 10.9212 130.7 10.1132C132.093 9.27741 133.639 8.85951 135.339 8.85951C136.927 8.85951 138.236 9.16597 139.267 9.7789C140.298 10.364 141.064 11.1162 141.565 12.0356V0H145.995V30.0889H142.192L141.816 27.0382H141.565C141.008 28.1248 140.214 28.9884 139.183 29.6292C138.18 30.27 136.885 30.5904 135.297 30.5904ZM136.216 26.3696C137.804 26.3696 139.114 25.8124 140.144 24.698C141.203 23.5836 141.733 21.9259 141.733 19.725C141.733 17.4961 141.203 15.8385 140.144 14.7519C139.114 13.6375 137.804 13.0803 136.216 13.0803C134.628 13.0803 133.305 13.6375 132.246 14.7519C131.215 15.8663 130.7 17.5379 130.7 19.7667C130.7 21.9677 131.215 23.6254 132.246 24.7398C133.305 25.8263 134.628 26.3696 136.216 26.3696Z"
        />
        <path
            d="M160.104 30.5904C158.182 30.5904 156.454 30.1446 154.922 29.2531C153.417 28.3616 152.233 27.1079 151.37 25.492C150.506 23.8482 150.074 21.9259 150.074 19.725C150.074 17.524 150.506 15.6156 151.37 13.9997C152.261 12.3838 153.459 11.1301 154.964 10.2386C156.468 9.31921 158.182 8.85951 160.104 8.85951C162.751 8.85951 164.882 9.52816 166.498 10.8654C168.142 12.1749 169.186 13.9858 169.632 16.2982H164.993C164.715 15.2952 164.144 14.5012 163.28 13.9161C162.444 13.3311 161.371 13.0385 160.062 13.0385C159.115 13.0385 158.209 13.2893 157.346 13.7908C156.51 14.2922 155.827 15.0445 155.298 16.0474C154.797 17.0225 154.546 18.2484 154.546 19.725C154.546 21.1737 154.797 22.3995 155.298 23.4025C155.827 24.4055 156.51 25.1716 157.346 25.7009C158.209 26.2024 159.115 26.4532 160.062 26.4532C161.399 26.4532 162.472 26.1606 163.28 25.5756C164.088 24.9905 164.659 24.1826 164.993 23.1517H169.632C169.075 25.4363 167.988 27.2472 166.372 28.5845C164.757 29.9218 162.667 30.5904 160.104 30.5904Z"
        />
        <path
            d="M183.197 30.5904C181.219 30.5904 179.45 30.1446 177.89 29.2531C176.33 28.3616 175.104 27.1079 174.213 25.492C173.321 23.8482 172.875 21.9259 172.875 19.725C172.875 17.524 173.321 15.6156 174.213 13.9997C175.104 12.356 176.33 11.0883 177.89 10.1968C179.45 9.30528 181.233 8.85951 183.239 8.85951C185.245 8.85951 187.014 9.30528 188.547 10.1968C190.107 11.0883 191.319 12.356 192.182 13.9997C193.074 15.6156 193.52 17.524 193.52 19.725C193.52 21.9259 193.074 23.8482 192.182 25.492C191.291 27.1079 190.065 28.3616 188.505 29.2531C186.973 30.1446 185.203 30.5904 183.197 30.5904ZM183.197 26.3696C184.256 26.3696 185.231 26.1328 186.123 25.6592C187.014 25.1855 187.725 24.4612 188.254 23.4861C188.811 22.4831 189.09 21.2294 189.09 19.725C189.09 18.1926 188.811 16.9389 188.254 15.9638C187.725 14.9887 187.014 14.2644 186.123 13.7908C185.259 13.3171 184.298 13.0803 183.239 13.0803C182.181 13.0803 181.205 13.3171 180.314 13.7908C179.422 14.2644 178.698 14.9887 178.141 15.9638C177.612 16.9389 177.347 18.1926 177.347 19.725C177.347 22.0095 177.918 23.695 179.06 24.7816C180.23 25.8402 181.609 26.3696 183.197 26.3696Z"
        />
        <path
            d="M205.455 30.5904C203.728 30.5904 202.182 30.1864 200.817 29.3785C199.451 28.5427 198.365 27.3168 197.557 25.7009C196.777 24.0851 196.387 22.0931 196.387 19.725C196.387 17.3568 196.791 15.3648 197.599 13.749C198.407 12.1331 199.493 10.9212 200.858 10.1132C202.251 9.27741 203.798 8.85951 205.497 8.85951C207.085 8.85951 208.395 9.16597 209.425 9.7789C210.456 10.364 211.222 11.1162 211.724 12.0356V0H216.154V30.0889H212.351L211.975 27.0382H211.724C211.167 28.1248 210.373 28.9884 209.342 29.6292C208.339 30.27 207.043 30.5904 205.455 30.5904ZM206.375 26.3696C207.963 26.3696 209.272 25.8124 210.303 24.698C211.362 23.5836 211.891 21.9259 211.891 19.725C211.891 17.4961 211.362 15.8385 210.303 14.7519C209.272 13.6375 207.963 13.0803 206.375 13.0803C204.787 13.0803 203.463 13.6375 202.405 14.7519C201.374 15.8663 200.858 17.5379 200.858 19.7667C200.858 21.9677 201.374 23.6254 202.405 24.7398C203.463 25.8263 204.787 26.3696 206.375 26.3696Z"
        />
        <path
            d="M230.221 30.5904C228.215 30.5904 226.446 30.1446 224.913 29.2531C223.381 28.3337 222.183 27.0661 221.319 25.4502C220.456 23.8343 220.024 21.9538 220.024 19.8085C220.024 17.6354 220.442 15.727 221.277 14.0833C222.141 12.4395 223.339 11.158 224.871 10.2386C226.432 9.31921 228.229 8.85951 230.262 8.85951C232.268 8.85951 233.996 9.31921 235.444 10.2386C236.893 11.1301 238.007 12.3281 238.788 13.8325C239.595 15.337 239.999 16.9947 239.999 18.8056C239.999 19.0842 239.999 19.3906 239.999 19.725C239.999 20.0314 239.986 20.3797 239.958 20.7697H224.37C224.509 22.6921 225.136 24.1547 226.25 25.1577C227.365 26.1328 228.674 26.6203 230.179 26.6203C231.488 26.6203 232.519 26.3557 233.271 25.8263C234.051 25.2691 234.622 24.5169 234.985 23.5696H239.456C238.955 25.5477 237.91 27.2193 236.322 28.5845C234.734 29.9218 232.7 30.5904 230.221 30.5904ZM230.221 12.7042C228.855 12.7042 227.643 13.1221 226.585 13.9579C225.526 14.7659 224.844 15.9081 224.537 17.3847H235.57C235.458 15.9917 234.915 14.8634 233.94 13.9997C232.965 13.136 231.725 12.7042 230.221 12.7042Z"
        />
        <path
            fill-rule="evenodd"
            clip-rule="evenodd"
            d="M22.3876 0.835938C22.3876 5.87586 20.7222 10.5268 17.9117 14.2685H35.8201V23.2235V23.2308C28.6088 23.467 22.8353 29.3873 22.8353 36.6561H13.4325C13.4325 31.6162 15.0979 26.9652 17.9084 23.2235H0V14.2685V14.2612C0.148652 14.266 0.297915 14.2685 0.447752 14.2685C7.86634 14.2685 13.8803 8.25453 13.8803 0.835938H22.3876Z"
        />
    </symbol>

    <symbol
        viewBox="0 0 183.01 30.59"
        id="logo-footer"
    >
        <path
            d="M0,30.0888671875L0,9.3609619140625L3.84466552734375,9.3609619140625L4.22076416015625,12.4534912109375L4.4296875,12.4534912109375C4.98687744140625,11.45050048828125,5.8505859375,10.600830078125,7.02069091796875,9.904296875C8.1907958984375,9.207763671875,9.5419921875,8.8594970703125,11.07440185546875,8.8594970703125C13.609619140625,8.8594970703125,15.51800537109375,9.62567138671875,16.79962158203125,11.157958984375C18.0811767578125,12.6903076171875,18.72186279296875,14.9468994140625,18.72186279296875,17.927978515625L18.72186279296875,30.0888671875L14.29217529296875,30.0888671875L14.29217529296875,18.47119140625C14.29217529296875,16.743896484375,13.92999267578125,15.4066162109375,13.20556640625,14.45941162109375C12.48126220703125,13.51220703125,11.3389892578125,13.03851318359375,9.77886962890625,13.03851318359375C8.24652099609375,13.03851318359375,6.9649658203125,13.55389404296875,5.9342041015625,14.5848388671875C4.93121337890625,15.6156005859375,4.4296875,17.1060791015625,4.4296875,19.0562744140625L4.4296875,30.0888671875L0,30.0888671875Z"
        />
        <path
            d="M32.66351318359375,30.59039306640625C30.68548583984375,30.59039306640625,28.9163818359375,30.14459228515625,27.356201171875,29.25311279296875C25.7960205078125,28.361572265625,24.5701904296875,27.10791015625,23.6787109375,25.49200439453125C22.787109375,23.84820556640625,22.34136962890625,21.9259033203125,22.34136962890625,19.7249755859375C22.34136962890625,17.52398681640625,22.787109375,15.6156005859375,23.6787109375,13.99969482421875C24.5701904296875,12.35595703125,25.7960205078125,11.0882568359375,27.356201171875,10.19677734375C28.9163818359375,9.3052978515625,30.69940185546875,8.8594970703125,32.705322265625,8.8594970703125C34.7113037109375,8.8594970703125,36.48040771484375,9.3052978515625,38.0126953125,10.19677734375C39.57281494140625,11.0882568359375,40.7847900390625,12.35595703125,41.64837646484375,13.99969482421875C42.53997802734375,15.6156005859375,42.9857177734375,17.52398681640625,42.9857177734375,19.7249755859375C42.9857177734375,21.9259033203125,42.53997802734375,23.84820556640625,41.64837646484375,25.49200439453125C40.75689697265625,27.10791015625,39.53106689453125,28.361572265625,37.97088623046875,29.25311279296875C36.4385986328125,30.14459228515625,34.66949462890625,30.59039306640625,32.66351318359375,30.59039306640625ZM32.66351318359375,26.36962890625C33.72216796875,26.36962890625,34.697265625,26.1328125,35.58880615234375,25.6591796875C36.48040771484375,25.18548583984375,37.1907958984375,24.461181640625,37.72021484375,23.486083984375C38.27740478515625,22.48309326171875,38.55596923828125,21.2293701171875,38.55596923828125,19.7249755859375C38.55596923828125,18.192626953125,38.27740478515625,16.93890380859375,37.72021484375,15.96380615234375C37.1907958984375,14.98870849609375,36.48040771484375,14.264404296875,35.58880615234375,13.790771484375C34.7252197265625,13.317138671875,33.76397705078125,13.080322265625,32.705322265625,13.080322265625C31.6466064453125,13.080322265625,30.6715087890625,13.317138671875,29.77996826171875,13.790771484375C28.88848876953125,14.264404296875,28.1640625,14.98870849609375,27.60687255859375,15.96380615234375C27.07757568359375,16.93890380859375,26.8128662109375,18.192626953125,26.8128662109375,19.7249755859375C26.8128662109375,22.009521484375,27.38397216796875,23.69500732421875,28.52630615234375,24.7816162109375C29.6964111328125,25.8402099609375,31.07550048828125,26.36962890625,32.66351318359375,26.36962890625Z"
        />
        <path
            d="M46.730712890625,30.0888671875L46.730712890625,26.24420166015625L51.78668212890625,26.24420166015625L51.78668212890625,14.5848388671875C51.78668212890625,13.6654052734375,51.3416748046875,13.2056884765625,50.44970703125,13.2056884765625L47.148681640625,13.2056884765625L47.148681640625,9.3609619140625L52.1217041015625,9.3609619140625C53.263671875,9.3609619140625,54.19671630859375,9.6953125,54.92169189453125,10.364013671875C55.64569091796875,11.00469970703125,56.0076904296875,11.91015625,56.0076904296875,13.080322265625L56.0076904296875,13.581787109375L56.2166748046875,13.581787109375C56.523681640625,12.0216064453125,57.17767333984375,10.85150146484375,58.1806640625,10.0714111328125C59.211669921875,9.26348876953125,60.70269775390625,8.8594970703125,62.6527099609375,8.8594970703125L65.87066650390625,8.8594970703125L65.87066650390625,13.5400390625L61.356689453125,13.5400390625C59.71368408203125,13.5400390625,58.4456787109375,14.111083984375,57.5537109375,15.25341796875C56.6627197265625,16.39569091796875,56.2166748046875,17.76080322265625,56.2166748046875,19.34881591796875L56.2166748046875,26.24420166015625L62.6527099609375,26.24420166015625L62.6527099609375,30.0888671875L46.730712890625,30.0888671875Z"
        />
        <path
            d="M78.30767822265625,30.59039306640625C76.5797119140625,30.59039306640625,75.03369140625,30.1864013671875,73.668701171875,29.3785400390625C72.3037109375,28.542724609375,71.2166748046875,27.3167724609375,70.40869140625,25.700927734375C69.628662109375,24.0850830078125,69.23870849609375,22.0931396484375,69.23870849609375,19.7249755859375C69.23870849609375,17.3568115234375,69.6427001953125,15.36480712890625,70.45068359375,13.7490234375C71.2586669921875,12.133056640625,72.345703125,10.92120361328125,73.710693359375,10.1131591796875C75.10369873046875,9.27740478515625,76.64971923828125,8.8594970703125,78.34967041015625,8.8594970703125C79.93768310546875,8.8594970703125,81.2467041015625,9.16595458984375,82.2777099609375,9.7789306640625C83.3087158203125,10.364013671875,84.07470703125,11.1162109375,84.57568359375,12.03564453125L84.57568359375,0L89.00567626953125,0L89.00567626953125,30.0888671875L85.20269775390625,30.0888671875L84.82666015625,27.0382080078125L84.57568359375,27.0382080078125C84.0186767578125,28.124755859375,83.22467041015625,28.9884033203125,82.19366455078125,29.62921142578125C81.190673828125,30.27001953125,79.89569091796875,30.59039306640625,78.30767822265625,30.59039306640625ZM79.2266845703125,26.36962890625C80.814697265625,26.36962890625,82.12469482421875,25.8123779296875,83.1546630859375,24.697998046875C84.21368408203125,23.5836181640625,84.74371337890625,21.9259033203125,84.74371337890625,19.7249755859375C84.74371337890625,17.49609375,84.21368408203125,15.8385009765625,83.1546630859375,14.75189208984375C82.12469482421875,13.63751220703125,80.814697265625,13.080322265625,79.2266845703125,13.080322265625C77.638671875,13.080322265625,76.315673828125,13.63751220703125,75.2567138671875,14.75189208984375C74.2257080078125,15.8663330078125,73.710693359375,17.53790283203125,73.710693359375,19.7667236328125C73.710693359375,21.96771240234375,74.2257080078125,23.6253662109375,75.2567138671875,24.73980712890625C76.315673828125,25.8262939453125,77.638671875,26.36962890625,79.2266845703125,26.36962890625Z"
        />
        <path
            d="M103.11468505859375,30.59039306640625C101.19268798828125,30.59039306640625,99.46466064453125,30.14459228515625,97.93267822265625,29.25311279296875C96.42767333984375,28.361572265625,95.24371337890625,27.10791015625,94.38067626953125,25.49200439453125C93.51666259765625,23.84820556640625,93.084716796875,21.9259033203125,93.084716796875,19.7249755859375C93.084716796875,17.52398681640625,93.51666259765625,15.6156005859375,94.38067626953125,13.99969482421875C95.27166748046875,12.3837890625,96.46966552734375,11.130126953125,97.97467041015625,10.23858642578125C99.47869873046875,9.3192138671875,101.19268798828125,8.8594970703125,103.11468505859375,8.8594970703125C105.76171875,8.8594970703125,107.8927001953125,9.5281982421875,109.5086669921875,10.8653564453125C111.1527099609375,12.1749267578125,112.19671630859375,13.98583984375,112.6427001953125,16.2982177734375L108.003662109375,16.2982177734375C107.7257080078125,15.295166015625,107.1546630859375,14.501220703125,106.29071044921875,13.9161376953125C105.4547119140625,13.33111572265625,104.3817138671875,13.03851318359375,103.07269287109375,13.03851318359375C102.12567138671875,13.03851318359375,101.21966552734375,13.289306640625,100.356689453125,13.790771484375C99.52069091796875,14.292236328125,98.83770751953125,15.04449462890625,98.3087158203125,16.04736328125C97.80767822265625,17.0224609375,97.55670166015625,18.2484130859375,97.55670166015625,19.7249755859375C97.55670166015625,21.1737060546875,97.80767822265625,22.3995361328125,98.3087158203125,23.4024658203125C98.83770751953125,24.405517578125,99.52069091796875,25.171630859375,100.356689453125,25.700927734375C101.21966552734375,26.202392578125,102.12567138671875,26.45318603515625,103.07269287109375,26.45318603515625C104.40966796875,26.45318603515625,105.482666015625,26.16064453125,106.29071044921875,25.5755615234375C107.09869384765625,24.990478515625,107.669677734375,24.1826171875,108.003662109375,23.1517333984375L112.6427001953125,23.1517333984375C112.085693359375,25.436279296875,110.99871826171875,27.2471923828125,109.3826904296875,28.58447265625C107.7677001953125,29.92181396484375,105.67767333984375,30.59039306640625,103.11468505859375,30.59039306640625Z"
        />
        <path
            d="M126.20770263671875,30.59039306640625C124.22967529296875,30.59039306640625,122.460693359375,30.14459228515625,120.90069580078125,29.25311279296875C119.3406982421875,28.361572265625,118.11468505859375,27.10791015625,117.22369384765625,25.49200439453125C116.3316650390625,23.84820556640625,115.88568115234375,21.9259033203125,115.88568115234375,19.7249755859375C115.88568115234375,17.52398681640625,116.3316650390625,15.6156005859375,117.22369384765625,13.99969482421875C118.11468505859375,12.35595703125,119.3406982421875,11.0882568359375,120.90069580078125,10.19677734375C122.460693359375,9.3052978515625,124.24371337890625,8.8594970703125,126.24969482421875,8.8594970703125C128.25567626953125,8.8594970703125,130.02471923828125,9.3052978515625,131.55767822265625,10.19677734375C133.11767578125,11.0882568359375,134.3297119140625,12.35595703125,135.19268798828125,13.99969482421875C136.084716796875,15.6156005859375,136.53070068359375,17.52398681640625,136.53070068359375,19.7249755859375C136.53070068359375,21.9259033203125,136.084716796875,23.84820556640625,135.19268798828125,25.49200439453125C134.30169677734375,27.10791015625,133.07568359375,28.361572265625,131.51568603515625,29.25311279296875C129.98370361328125,30.14459228515625,128.21368408203125,30.59039306640625,126.20770263671875,30.59039306640625ZM126.20770263671875,26.36962890625C127.26666259765625,26.36962890625,128.24169921875,26.1328125,129.1336669921875,25.6591796875C130.02471923828125,25.18548583984375,130.7357177734375,24.461181640625,131.26470947265625,23.486083984375C131.82171630859375,22.48309326171875,132.1007080078125,21.2293701171875,132.1007080078125,19.7249755859375C132.1007080078125,18.192626953125,131.82171630859375,16.93890380859375,131.26470947265625,15.96380615234375C130.7357177734375,14.98870849609375,130.02471923828125,14.264404296875,129.1336669921875,13.790771484375C128.26971435546875,13.317138671875,127.3087158203125,13.080322265625,126.24969482421875,13.080322265625C125.19171142578125,13.080322265625,124.2156982421875,13.317138671875,123.32470703125,13.790771484375C122.43267822265625,14.264404296875,121.70867919921875,14.98870849609375,121.15167236328125,15.96380615234375C120.6226806640625,16.93890380859375,120.357666015625,18.192626953125,120.357666015625,19.7249755859375C120.357666015625,22.009521484375,120.9287109375,23.69500732421875,122.0706787109375,24.7816162109375C123.24066162109375,25.8402099609375,124.61968994140625,26.36962890625,126.20770263671875,26.36962890625Z"
        />
        <path
            d="M148.4656982421875,30.59039306640625C146.73870849609375,30.59039306640625,145.19268798828125,30.1864013671875,143.82769775390625,29.3785400390625C142.461669921875,28.542724609375,141.37567138671875,27.3167724609375,140.56768798828125,25.700927734375C139.78765869140625,24.0850830078125,139.397705078125,22.0931396484375,139.397705078125,19.7249755859375C139.397705078125,17.3568115234375,139.80169677734375,15.36480712890625,140.60968017578125,13.7490234375C141.41766357421875,12.133056640625,142.503662109375,10.92120361328125,143.86871337890625,10.1131591796875C145.26171875,9.27740478515625,146.8087158203125,8.8594970703125,148.5076904296875,8.8594970703125C150.095703125,8.8594970703125,151.40570068359375,9.16595458984375,152.4356689453125,9.7789306640625C153.4666748046875,10.364013671875,154.232666015625,11.1162109375,154.73468017578125,12.03564453125L154.73468017578125,0L159.1646728515625,0L159.1646728515625,30.0888671875L155.3616943359375,30.0888671875L154.9857177734375,27.0382080078125L154.73468017578125,27.0382080078125C154.17767333984375,28.124755859375,153.3836669921875,28.9884033203125,152.3526611328125,29.62921142578125C151.34967041015625,30.27001953125,150.0537109375,30.59039306640625,148.4656982421875,30.59039306640625ZM149.38568115234375,26.36962890625C150.97369384765625,26.36962890625,152.28271484375,25.8123779296875,153.31365966796875,24.697998046875C154.3726806640625,23.5836181640625,154.90167236328125,21.9259033203125,154.90167236328125,19.7249755859375C154.90167236328125,17.49609375,154.3726806640625,15.8385009765625,153.31365966796875,14.75189208984375C152.28271484375,13.63751220703125,150.97369384765625,13.080322265625,149.38568115234375,13.080322265625C147.79766845703125,13.080322265625,146.47369384765625,13.63751220703125,145.41571044921875,14.75189208984375C144.38470458984375,15.8663330078125,143.86871337890625,17.53790283203125,143.86871337890625,19.7667236328125C143.86871337890625,21.96771240234375,144.38470458984375,23.6253662109375,145.41571044921875,24.73980712890625C146.47369384765625,25.8262939453125,147.79766845703125,26.36962890625,149.38568115234375,26.36962890625Z"
        />
        <path
            d="M173.231689453125,30.59039306640625C171.2257080078125,30.59039306640625,169.4566650390625,30.14459228515625,167.9237060546875,29.25311279296875C166.39166259765625,28.333740234375,165.19366455078125,27.06610107421875,164.3297119140625,25.4501953125C163.4666748046875,23.83428955078125,163.03466796875,21.95379638671875,163.03466796875,19.8084716796875C163.03466796875,17.6353759765625,163.45269775390625,15.72698974609375,164.28765869140625,14.08331298828125C165.15167236328125,12.43951416015625,166.34967041015625,11.157958984375,167.8817138671875,10.23858642578125C169.4427490234375,9.3192138671875,171.23974609375,8.8594970703125,173.272705078125,8.8594970703125C175.2786865234375,8.8594970703125,177.0067138671875,9.3192138671875,178.4547119140625,10.23858642578125C179.9036865234375,11.130126953125,181.0177001953125,12.328125,181.7987060546875,13.83251953125C182.605712890625,15.3370361328125,183.0096435546875,16.99468994140625,183.0096435546875,18.80560302734375C183.0096435546875,19.084228515625,183.0096435546875,19.390625,183.0096435546875,19.7249755859375C183.0096435546875,20.0313720703125,182.9967041015625,20.37969970703125,182.96875,20.76971435546875L167.38067626953125,20.76971435546875C167.51971435546875,22.692138671875,168.146728515625,24.1546630859375,169.2607421875,25.15771484375C170.375732421875,26.1328125,171.6846923828125,26.62030029296875,173.189697265625,26.62030029296875C174.4986572265625,26.62030029296875,175.5296630859375,26.355712890625,176.28173828125,25.8262939453125C177.0616455078125,25.26910400390625,177.6326904296875,24.51690673828125,177.9957275390625,23.569580078125L182.4666748046875,23.569580078125C181.9656982421875,25.5477294921875,180.920654296875,27.21929931640625,179.332763671875,28.58447265625C177.7447509765625,29.92181396484375,175.710693359375,30.59039306640625,173.231689453125,30.59039306640625ZM173.231689453125,12.7042236328125C171.86572265625,12.7042236328125,170.6536865234375,13.1220703125,169.595703125,13.9578857421875C168.5367431640625,14.765869140625,167.85467529296875,15.9080810546875,167.54766845703125,17.38470458984375L178.5806884765625,17.38470458984375C178.46875,15.99169921875,177.9256591796875,14.8634033203125,176.95068359375,13.99969482421875C175.9757080078125,13.135986328125,174.7357177734375,12.7042236328125,173.231689453125,12.7042236328125Z"
        />
    </symbol>

    <symbol id="img-light-theme" viewBox="0 0 24 24">
        <circle cx="12" cy="12" r="4.25" stroke="currentColor" stroke-width="2" />
        <path
            stroke="currentColor"
            stroke-linecap="round"
            stroke-width="2"
            d="M12 1.25v2.5M12 20.25v2.5M1.25 12h2.5M4.408 19.592l1.706-1.706M4.408 4.408l1.706 1.706M19.592 19.592l-1.706-1.706M19.592 4.408l-1.706 1.706M20.25 12h2.5"
        />
    </symbol>
    <symbol id="img-dark-theme" viewBox="0 0 24 24">
        <path
            stroke="currentColor"
            stroke-width="2"
            d="M18.01 15.96c-5.506 0-9.97-4.464-9.97-9.97 0-.881.157-1.755.374-2.612.109-.427-.33-.786-.704-.555C4.617 4.725 2.5 7.679 2.5 11.529c0 5.507 4.464 9.971 9.971 9.971 3.635 0 7.044-2.053 8.75-5.21.216-.4-.223-.827-.659-.698-.83.246-1.72.368-2.551.368Z"
        />
    </symbol>

    <symbol id="img-system-theme" viewBox="0 0 24 24">
        <path
            stroke="currentColor"
            stroke-linecap="round"
            stroke-width="1.5"
            d="M12 1v22M5.813 5.813l-1.59-1.59"
        /><circle cx="12" cy="12" r="5.75" stroke="currentColor" stroke-width="1.5" /><path
            stroke="currentColor"
            stroke-linecap="round"
            stroke-width="1.5"
            d="M3.25 12H1M4.224 19.779l1.59-1.591"
        />
    </symbol>

    <symbol viewBox="0 0 100 100" id="logo-clip-path">
        <defs>
            <clipPath id="logo-clip" clipPathUnits="objectBoundingBox" transform="scale(0.01 0.01)">
                <path
                    fill="#000"
                    fill-rule="evenodd"
                    d="M62.5 0c0 14.07-4.65 27.054-12.495 37.5H100v25.02c-20.132.66-36.25 17.188-36.25 37.48H37.5c0-14.07 4.65-27.054 12.495-37.5H0V37.48c.415.013.832.02 1.25.02 20.71 0 37.5-16.79 37.5-37.5H62.5Z"
                    clip-rule="evenodd"
                />
            </clipPath>
        </defs>
    </symbol>

    <symbol
        viewBox="0 0 24 24"
        stroke-width="2"
        stroke-linecap="round"
        stroke-linejoin="round"
        id="arrow-right"
    >
        <path stroke="none" d="M0 0h24v24H0z" fill="none" />
        <path d="M5 12l14 0" />
        <path d="M15 16l4 -4" />
        <path d="M15 8l4 4" />
    </symbol>
</svg>
